%TF.GenerationSoftware,Altium Limited,Altium Designer,25.6.2 (33)*%
G04 Layer_Physical_Order=2*
G04 Layer_Color=16711680*
%FSLAX45Y45*%
%MOMM*%
%TF.SameCoordinates,7B33E32E-16D1-4F5D-9D55-C7F3CFA0A62C*%
%TF.FilePolarity,Positive*%
%TF.FileFunction,Copper,L2,Bot,Signal*%
%TF.Part,Single*%
G01*
G75*
%TA.AperFunction,Conductor*%
%ADD11C,0.25400*%
%TA.AperFunction,ViaPad*%
%ADD12C,1.30000*%
%ADD13C,0.63500*%
%TA.AperFunction,ConnectorPad*%
%ADD14R,0.95000X1.05000*%
G36*
X136420Y1042240D02*
X304053D01*
Y905091D01*
X205413Y806450D01*
X191832D01*
X170827Y797749D01*
X154751Y781673D01*
X146050Y760668D01*
Y737932D01*
X154751Y716927D01*
X170827Y700851D01*
X191832Y692150D01*
X214568D01*
X235573Y700851D01*
X251649Y716927D01*
X260350Y737932D01*
Y751513D01*
X370369Y861531D01*
X377300Y871905D01*
X387894Y870608D01*
X390000Y869792D01*
Y416205D01*
X377300Y410945D01*
X373007Y415238D01*
X352393Y427139D01*
X329401Y433300D01*
X305599D01*
X282607Y427139D01*
X261993Y415238D01*
X245162Y398407D01*
X233261Y377793D01*
X227100Y354801D01*
Y330999D01*
X233261Y308007D01*
X245162Y287393D01*
X261993Y270562D01*
X282607Y258661D01*
X305599Y252500D01*
X329401D01*
X352393Y258661D01*
X373007Y270562D01*
X377300Y274855D01*
X390000Y269595D01*
Y213005D01*
X377300Y207745D01*
X373007Y212038D01*
X352393Y223939D01*
X329401Y230100D01*
X305599D01*
X282607Y223939D01*
X261993Y212038D01*
X245162Y195207D01*
X233261Y174593D01*
X227100Y151601D01*
Y127799D01*
X233261Y104807D01*
X245162Y84193D01*
X261993Y67362D01*
X282607Y55461D01*
X305599Y49300D01*
X329401D01*
X352393Y55461D01*
X373007Y67362D01*
X377300Y71655D01*
X390000Y66395D01*
Y50000D01*
X347620Y7620D01*
X52380D01*
X10000Y50000D01*
Y72795D01*
X22700Y78055D01*
X33393Y67362D01*
X54007Y55461D01*
X76200Y49514D01*
Y139700D01*
Y229886D01*
X54007Y223939D01*
X33393Y212038D01*
X22700Y201345D01*
X10000Y206605D01*
Y275995D01*
X22700Y281255D01*
X33393Y270562D01*
X54007Y258661D01*
X76999Y252500D01*
X100801D01*
X123793Y258661D01*
X144407Y270562D01*
X161238Y287393D01*
X173139Y308007D01*
X179300Y330999D01*
Y354801D01*
X173139Y377793D01*
X161238Y398407D01*
X144407Y415238D01*
X123793Y427139D01*
X100801Y433300D01*
X76999D01*
X54007Y427139D01*
X33393Y415238D01*
X22700Y404545D01*
X10000Y409805D01*
Y1065784D01*
X22700Y1070775D01*
X41832Y1062850D01*
X50820D01*
Y1042240D01*
X111020D01*
Y1120140D01*
X136420D01*
Y1042240D01*
D02*
G37*
%LPC*%
G36*
X101600Y229886D02*
Y152400D01*
X179086D01*
X173139Y174593D01*
X161238Y195207D01*
X144407Y212038D01*
X123793Y223939D01*
X101600Y229886D01*
D02*
G37*
G36*
X179086Y127000D02*
X101600D01*
Y49514D01*
X123793Y55461D01*
X144407Y67362D01*
X161238Y84193D01*
X173139Y104807D01*
X179086Y127000D01*
D02*
G37*
%LPD*%
D11*
X342900Y889000D02*
Y1117600D01*
X203200Y749300D02*
X342900Y889000D01*
X89700Y139700D02*
X203200Y253200D01*
X53200Y772300D02*
X203200Y622300D01*
Y253200D02*
Y622300D01*
X88900Y139700D02*
X89700D01*
X53200Y772300D02*
Y1120000D01*
D12*
X317500Y139700D02*
D03*
X88900D02*
D03*
Y342900D02*
D03*
X317500D02*
D03*
D13*
X203200Y749300D02*
D03*
X342900Y1117600D02*
D03*
X53200Y1120000D02*
D03*
D14*
X123720Y1120140D02*
D03*
X268720D02*
D03*
%TF.MD5,a0ca5b8ca7d44ca6218d596a79940257*%
M02*
