%TF.GenerationSoftware,Altium Limited,Altium Designer,25.6.2 (33)*%
G04 Layer_Color=0*
%FSLAX45Y45*%
%MOMM*%
%TF.SameCoordinates,85768DE1-254B-4F2A-BBB9-FB77CA5A1332*%
%TF.FilePolarity,Positive*%
%TF.FileFunction,Plated,1,2,PTH,Drill*%
%TF.Part,Single*%
G01*
G75*
%TA.AperFunction,ComponentDrill*%
%ADD40C,1.04000*%
%TA.AperFunction,OtherDrill,Pad Free-3 (66mm,19mm)*%
%ADD41C,3.50000*%
%TA.AperFunction,OtherDrill,Pad Free-2 (16.3mm,15mm)*%
%ADD42C,3.50000*%
%TA.AperFunction,ComponentDrill*%
%ADD43C,0.89000*%
%ADD44C,2.29000*%
%TA.AperFunction,ViaDrill,NotFilled*%
%ADD45C,0.30000*%
D40*
X1828800Y3556000D02*
D03*
X3606800Y2032000D02*
D03*
X1828800D02*
D03*
X1320800Y3556000D02*
D03*
X2844800Y2032000D02*
D03*
X2590800D02*
D03*
X1066800D02*
D03*
X1320800D02*
D03*
X1574800D02*
D03*
X2336800D02*
D03*
X3098800D02*
D03*
X3860800D02*
D03*
X4114800D02*
D03*
X4368800D02*
D03*
X4622800D02*
D03*
X2082800D02*
D03*
X3352800D02*
D03*
X4622800Y3556000D02*
D03*
X4368800D02*
D03*
X4114800D02*
D03*
X3860800D02*
D03*
X3606800D02*
D03*
X3352800D02*
D03*
X3098800D02*
D03*
X2844800D02*
D03*
X2590800D02*
D03*
X2336800D02*
D03*
X2082800D02*
D03*
X1574800D02*
D03*
X1066800D02*
D03*
D41*
X6600000Y1900000D02*
D03*
D42*
X1630000Y1500000D02*
D03*
D43*
X4665000Y909000D02*
D03*
X6405000D02*
D03*
X3995000D02*
D03*
X5735000Y660000D02*
D03*
X3995000D02*
D03*
X2265000D02*
D03*
X535000D02*
D03*
X1205000Y909000D02*
D03*
X5735000D02*
D03*
X535000D02*
D03*
X2935000D02*
D03*
X2265000D02*
D03*
X1205000Y660000D02*
D03*
X2935000D02*
D03*
X4665000D02*
D03*
X6405000D02*
D03*
D44*
X6746000Y360000D02*
D03*
X5394000D02*
D03*
X6070000Y279000D02*
D03*
X4330000D02*
D03*
X3654000Y360000D02*
D03*
X5006000D02*
D03*
X3276000D02*
D03*
X1924000D02*
D03*
X2600000Y279000D02*
D03*
X870000D02*
D03*
X194000Y360000D02*
D03*
X1546000D02*
D03*
D45*
X5550000Y3390000D02*
D03*
Y3140000D02*
D03*
X3350000Y1250000D02*
D03*
X3090000Y1340000D02*
D03*
X3040000Y2350000D02*
D03*
X3250000D02*
D03*
X6400000Y2410000D02*
D03*
X5740000Y2420000D02*
D03*
X5870000Y3320000D02*
D03*
X1900000Y1430000D02*
D03*
X2380000D02*
D03*
X3940000Y1510000D02*
D03*
X4070000Y1390000D02*
D03*
X5650000Y1470000D02*
D03*
X560000Y1570000D02*
D03*
X630000Y1390000D02*
D03*
X2340000Y1730000D02*
D03*
X2080000D02*
D03*
X4406900Y1560000D02*
D03*
X6145000D02*
D03*
X3910000Y1360000D02*
D03*
X950000Y1560000D02*
D03*
X5650000Y1360000D02*
D03*
X460000D02*
D03*
X2680000Y1560000D02*
D03*
X2180000Y1360000D02*
D03*
X6004560Y581660D02*
D03*
X4264660Y579120D02*
D03*
X2534920Y581660D02*
D03*
X805180Y579120D02*
D03*
%TF.MD5,6047e3e074cdb67899d3ba1975716755*%
M02*
