%TF.GenerationSoftware,Altium Limited,Altium Designer,25.6.2 (33)*%
G04 Layer_Color=65535*
%FSLAX45Y45*%
%MOMM*%
%TF.SameCoordinates,85768DE1-254B-4F2A-BBB9-FB77CA5A1332*%
%TF.FilePolarity,Positive*%
%TF.FileFunction,Legend,Top*%
%TF.Part,Single*%
G01*
G75*
%TA.AperFunction,NonConductor*%
%ADD27C,0.25000*%
%ADD28C,0.20000*%
%ADD29C,0.25400*%
%ADD30C,0.12700*%
%ADD31C,0.40000*%
D27*
X5677800Y2424720D02*
G03*
X5677800Y2424720I-12500J0D01*
G01*
D28*
X1220000Y1140000D02*
G03*
X1220000Y1140000I-10000J0D01*
G01*
X2950000D02*
G03*
X2950000Y1140000I-10000J0D01*
G01*
X4680000D02*
G03*
X4680000Y1140000I-10000J0D01*
G01*
X6420000D02*
G03*
X6420000Y1140000I-10000J0D01*
G01*
X5637800Y2662221D02*
Y3037218D01*
X6427800Y2662221D02*
Y3037218D01*
X270000Y2862500D02*
Y2779194D01*
X286661Y2762532D01*
X319984D01*
X336645Y2779194D01*
Y2862500D01*
X436613Y2845839D02*
X419952Y2862500D01*
X386629D01*
X369968Y2845839D01*
Y2829177D01*
X386629Y2812516D01*
X419952D01*
X436613Y2795855D01*
Y2779194D01*
X419952Y2762532D01*
X386629D01*
X369968Y2779194D01*
X469936Y2862500D02*
Y2762532D01*
X519919D01*
X536581Y2779194D01*
Y2795855D01*
X519919Y2812516D01*
X469936D01*
X519919D01*
X536581Y2829177D01*
Y2845839D01*
X519919Y2862500D01*
X469936D01*
X5490016Y2663355D02*
X5573322D01*
X5589984Y2680016D01*
Y2713338D01*
X5573322Y2730000D01*
X5490016D01*
X5589984Y2763322D02*
Y2796645D01*
Y2779984D01*
X5490016D01*
X5506677Y2763322D01*
X6769984Y2766693D02*
X6670016D01*
Y2816677D01*
X6686678Y2833339D01*
X6720000D01*
X6736661Y2816677D01*
Y2766693D01*
Y2800016D02*
X6769984Y2833339D01*
X6753323Y2866661D02*
X6769984Y2883323D01*
Y2916645D01*
X6753323Y2933306D01*
X6686678D01*
X6670016Y2916645D01*
Y2883323D01*
X6686678Y2866661D01*
X6703339D01*
X6720000Y2883323D01*
Y2933306D01*
D29*
X230000Y2567500D02*
X580000D01*
X230000Y3070000D02*
X580000D01*
Y2567500D02*
Y3070000D01*
X230000Y2567500D02*
Y3070000D01*
D30*
X170000Y1092000D02*
X1567000D01*
X1570000D01*
X170000Y571000D02*
Y1092000D01*
X1567000Y571000D02*
Y1092000D01*
X170000Y30000D02*
Y153000D01*
X1570000Y30000D02*
Y153000D01*
X170000Y25000D02*
X1570000D01*
X1900000D02*
X3300000D01*
Y30000D02*
Y153000D01*
X1900000Y30000D02*
Y153000D01*
X3297000Y571000D02*
Y1092000D01*
X1900000Y571000D02*
Y1092000D01*
X3297000D02*
X3300000D01*
X1900000D02*
X3297000D01*
X3630000Y25000D02*
X5030000D01*
Y30000D02*
Y153000D01*
X3630000Y30000D02*
Y153000D01*
X5027000Y571000D02*
Y1092000D01*
X3630000Y571000D02*
Y1092000D01*
X5027000D02*
X5030000D01*
X3630000D02*
X5027000D01*
X5370000D02*
X6767000D01*
X6770000D01*
X5370000Y571000D02*
Y1092000D01*
X6767000Y571000D02*
Y1092000D01*
X5370000Y30000D02*
Y153000D01*
X6770000Y30000D02*
Y153000D01*
X5370000Y25000D02*
X6770000D01*
D31*
X6099968Y1170064D02*
Y1370000D01*
X6000000Y1270032D01*
X6133290D01*
X4260000Y1336677D02*
X4293322Y1370000D01*
X4359968D01*
X4393290Y1336677D01*
Y1303355D01*
X4359968Y1270032D01*
X4326645D01*
X4359968D01*
X4393290Y1236709D01*
Y1203387D01*
X4359968Y1170064D01*
X4293322D01*
X4260000Y1203387D01*
X2663290Y1170064D02*
X2530000D01*
X2663290Y1303355D01*
Y1336677D01*
X2629968Y1370000D01*
X2563322D01*
X2530000Y1336677D01*
X800000Y1170064D02*
X866645D01*
X833322D01*
Y1370000D01*
X800000Y1336677D01*
%TF.MD5,0186f053cdd8f18256a1deb0c7b36587*%
M02*
