%TF.GenerationSoftware,Altium Limited,Altium Designer,25.6.2 (33)*%
G04 Layer_Physical_Order=1*
G04 Layer_Color=255*
%FSLAX45Y45*%
%MOMM*%
%TF.SameCoordinates,85768DE1-254B-4F2A-BBB9-FB77CA5A1332*%
%TF.FilePolarity,Positive*%
%TF.FileFunction,Copper,L1,Top,Signal*%
%TF.Part,Single*%
G01*
G75*
%TA.AperFunction,SMDPad,CuDef*%
%ADD10R,1.00000X0.80000*%
%ADD11R,0.60000X1.35000*%
%ADD12R,0.40000X1.35000*%
%TA.AperFunction,Conductor*%
%ADD13C,0.38100*%
%TA.AperFunction,ComponentPad*%
%ADD14C,1.59000*%
%TA.AperFunction,ViaPad*%
%ADD15C,4.00000*%
%TA.AperFunction,ComponentPad*%
%ADD16C,1.39800*%
%ADD17C,3.30600*%
%ADD18R,1.59000X1.59000*%
%ADD19R,1.39800X1.39800*%
%TA.AperFunction,ViaPad*%
%ADD20C,0.63500*%
G36*
X6858000Y3784103D02*
X6867958D01*
X6887491Y3780218D01*
X6905891Y3772596D01*
X6922449Y3761532D01*
X6936532Y3747449D01*
X6947596Y3730890D01*
X6955218Y3712491D01*
X6959103Y3692957D01*
X6959103Y3683000D01*
X6959103Y127000D01*
X6959103Y117042D01*
X6955218Y97510D01*
X6947596Y79109D01*
X6936532Y62550D01*
X6922449Y48467D01*
X6905891Y37403D01*
X6887491Y29782D01*
X6867958Y25896D01*
X117042D01*
X97509Y29782D01*
X79109Y37403D01*
X62550Y48468D01*
X48467Y62550D01*
X37403Y79109D01*
X29781Y97509D01*
X25896Y117042D01*
Y264195D01*
X38596Y268047D01*
X53952Y245066D01*
X79066Y219952D01*
X108596Y200220D01*
X141409Y186629D01*
X176242Y179700D01*
X211758D01*
X246592Y186629D01*
X279404Y200220D01*
X308935Y219952D01*
X334048Y245066D01*
X353780Y274596D01*
X367371Y307409D01*
X374300Y342242D01*
Y377758D01*
X367371Y412592D01*
X353780Y445404D01*
X334048Y474935D01*
X308935Y500048D01*
X279404Y519780D01*
X246592Y533371D01*
X211758Y540300D01*
X176242D01*
X141409Y533371D01*
X108596Y519780D01*
X79066Y500048D01*
X53952Y474935D01*
X38596Y451953D01*
X25896Y455805D01*
X25896Y1651000D01*
X25892Y3682995D01*
X25892Y3692953D01*
X29777Y3712487D01*
X37399Y3730887D01*
X48464Y3747448D01*
X62547Y3761531D01*
X79108Y3772596D01*
X97507Y3780218D01*
X117042Y3784103D01*
X127001Y3784104D01*
X6858000Y3784103D01*
D02*
G37*
%LPC*%
G36*
X4635241Y3650500D02*
X4610359D01*
X4586324Y3644060D01*
X4564776Y3631619D01*
X4547181Y3614024D01*
X4534740Y3592476D01*
X4528300Y3568441D01*
Y3543559D01*
X4534740Y3519524D01*
X4547181Y3497976D01*
X4564776Y3480381D01*
X4586324Y3467940D01*
X4610359Y3461500D01*
X4635241D01*
X4659276Y3467940D01*
X4680824Y3480381D01*
X4698419Y3497976D01*
X4710860Y3519524D01*
X4717300Y3543559D01*
Y3568441D01*
X4710860Y3592476D01*
X4698419Y3614024D01*
X4680824Y3631619D01*
X4659276Y3644060D01*
X4635241Y3650500D01*
D02*
G37*
G36*
X4381241D02*
X4356359D01*
X4332324Y3644060D01*
X4310776Y3631619D01*
X4293181Y3614024D01*
X4280740Y3592476D01*
X4274300Y3568441D01*
Y3543559D01*
X4280740Y3519524D01*
X4293181Y3497976D01*
X4310776Y3480381D01*
X4332324Y3467940D01*
X4356359Y3461500D01*
X4381241D01*
X4405276Y3467940D01*
X4426824Y3480381D01*
X4444419Y3497976D01*
X4456860Y3519524D01*
X4463300Y3543559D01*
Y3568441D01*
X4456860Y3592476D01*
X4444419Y3614024D01*
X4426824Y3631619D01*
X4405276Y3644060D01*
X4381241Y3650500D01*
D02*
G37*
G36*
X4127241D02*
X4102359D01*
X4078324Y3644060D01*
X4056776Y3631619D01*
X4039181Y3614024D01*
X4026740Y3592476D01*
X4020300Y3568441D01*
Y3543559D01*
X4026740Y3519524D01*
X4039181Y3497976D01*
X4056776Y3480381D01*
X4078324Y3467940D01*
X4102359Y3461500D01*
X4127241D01*
X4151276Y3467940D01*
X4172824Y3480381D01*
X4190419Y3497976D01*
X4202860Y3519524D01*
X4209300Y3543559D01*
Y3568441D01*
X4202860Y3592476D01*
X4190419Y3614024D01*
X4172824Y3631619D01*
X4151276Y3644060D01*
X4127241Y3650500D01*
D02*
G37*
G36*
X3873241D02*
X3848359D01*
X3824324Y3644060D01*
X3802776Y3631619D01*
X3785181Y3614024D01*
X3772740Y3592476D01*
X3766300Y3568441D01*
Y3543559D01*
X3772740Y3519524D01*
X3785181Y3497976D01*
X3802776Y3480381D01*
X3824324Y3467940D01*
X3848359Y3461500D01*
X3873241D01*
X3897276Y3467940D01*
X3918824Y3480381D01*
X3936419Y3497976D01*
X3948860Y3519524D01*
X3955300Y3543559D01*
Y3568441D01*
X3948860Y3592476D01*
X3936419Y3614024D01*
X3918824Y3631619D01*
X3897276Y3644060D01*
X3873241Y3650500D01*
D02*
G37*
G36*
X3619241D02*
X3594359D01*
X3570324Y3644060D01*
X3548776Y3631619D01*
X3531181Y3614024D01*
X3518740Y3592476D01*
X3512300Y3568441D01*
Y3543559D01*
X3518740Y3519524D01*
X3531181Y3497976D01*
X3548776Y3480381D01*
X3570324Y3467940D01*
X3594359Y3461500D01*
X3619241D01*
X3643276Y3467940D01*
X3664824Y3480381D01*
X3682419Y3497976D01*
X3694860Y3519524D01*
X3701300Y3543559D01*
Y3568441D01*
X3694860Y3592476D01*
X3682419Y3614024D01*
X3664824Y3631619D01*
X3643276Y3644060D01*
X3619241Y3650500D01*
D02*
G37*
G36*
X3365241D02*
X3340359D01*
X3316324Y3644060D01*
X3294776Y3631619D01*
X3277181Y3614024D01*
X3264740Y3592476D01*
X3258300Y3568441D01*
Y3543559D01*
X3264740Y3519524D01*
X3277181Y3497976D01*
X3294776Y3480381D01*
X3316324Y3467940D01*
X3340359Y3461500D01*
X3365241D01*
X3389276Y3467940D01*
X3410824Y3480381D01*
X3428419Y3497976D01*
X3440860Y3519524D01*
X3447300Y3543559D01*
Y3568441D01*
X3440860Y3592476D01*
X3428419Y3614024D01*
X3410824Y3631619D01*
X3389276Y3644060D01*
X3365241Y3650500D01*
D02*
G37*
G36*
X3111241D02*
X3086359D01*
X3062324Y3644060D01*
X3040776Y3631619D01*
X3023181Y3614024D01*
X3010740Y3592476D01*
X3004300Y3568441D01*
Y3543559D01*
X3010740Y3519524D01*
X3023181Y3497976D01*
X3040776Y3480381D01*
X3062324Y3467940D01*
X3086359Y3461500D01*
X3111241D01*
X3135276Y3467940D01*
X3156824Y3480381D01*
X3174419Y3497976D01*
X3186860Y3519524D01*
X3193300Y3543559D01*
Y3568441D01*
X3186860Y3592476D01*
X3174419Y3614024D01*
X3156824Y3631619D01*
X3135276Y3644060D01*
X3111241Y3650500D01*
D02*
G37*
G36*
X2857241D02*
X2832359D01*
X2808324Y3644060D01*
X2786776Y3631619D01*
X2769181Y3614024D01*
X2756740Y3592476D01*
X2750300Y3568441D01*
Y3543559D01*
X2756740Y3519524D01*
X2769181Y3497976D01*
X2786776Y3480381D01*
X2808324Y3467940D01*
X2832359Y3461500D01*
X2857241D01*
X2881276Y3467940D01*
X2902824Y3480381D01*
X2920419Y3497976D01*
X2932860Y3519524D01*
X2939300Y3543559D01*
Y3568441D01*
X2932860Y3592476D01*
X2920419Y3614024D01*
X2902824Y3631619D01*
X2881276Y3644060D01*
X2857241Y3650500D01*
D02*
G37*
G36*
X2603241D02*
X2578359D01*
X2554324Y3644060D01*
X2532776Y3631619D01*
X2515181Y3614024D01*
X2502740Y3592476D01*
X2496300Y3568441D01*
Y3543559D01*
X2502740Y3519524D01*
X2515181Y3497976D01*
X2532776Y3480381D01*
X2554324Y3467940D01*
X2578359Y3461500D01*
X2603241D01*
X2627276Y3467940D01*
X2648824Y3480381D01*
X2666419Y3497976D01*
X2678860Y3519524D01*
X2685300Y3543559D01*
Y3568441D01*
X2678860Y3592476D01*
X2666419Y3614024D01*
X2648824Y3631619D01*
X2627276Y3644060D01*
X2603241Y3650500D01*
D02*
G37*
G36*
X2349241D02*
X2324359D01*
X2300324Y3644060D01*
X2278776Y3631619D01*
X2261181Y3614024D01*
X2248740Y3592476D01*
X2242300Y3568441D01*
Y3543559D01*
X2248740Y3519524D01*
X2261181Y3497976D01*
X2278776Y3480381D01*
X2300324Y3467940D01*
X2324359Y3461500D01*
X2349241D01*
X2373276Y3467940D01*
X2394824Y3480381D01*
X2412419Y3497976D01*
X2424860Y3519524D01*
X2431300Y3543559D01*
Y3568441D01*
X2424860Y3592476D01*
X2412419Y3614024D01*
X2394824Y3631619D01*
X2373276Y3644060D01*
X2349241Y3650500D01*
D02*
G37*
G36*
X2095241D02*
X2070359D01*
X2046324Y3644060D01*
X2024776Y3631619D01*
X2007181Y3614024D01*
X1994740Y3592476D01*
X1988300Y3568441D01*
Y3543559D01*
X1994740Y3519524D01*
X2007181Y3497976D01*
X2024776Y3480381D01*
X2046324Y3467940D01*
X2070359Y3461500D01*
X2095241D01*
X2119276Y3467940D01*
X2140824Y3480381D01*
X2158419Y3497976D01*
X2170860Y3519524D01*
X2177300Y3543559D01*
Y3568441D01*
X2170860Y3592476D01*
X2158419Y3614024D01*
X2140824Y3631619D01*
X2119276Y3644060D01*
X2095241Y3650500D01*
D02*
G37*
G36*
X1587241D02*
X1562359D01*
X1538324Y3644060D01*
X1516776Y3631619D01*
X1499181Y3614024D01*
X1486740Y3592476D01*
X1480300Y3568441D01*
Y3543559D01*
X1486740Y3519524D01*
X1499181Y3497976D01*
X1516776Y3480381D01*
X1538324Y3467940D01*
X1562359Y3461500D01*
X1587241D01*
X1611276Y3467940D01*
X1632824Y3480381D01*
X1650419Y3497976D01*
X1662860Y3519524D01*
X1669300Y3543559D01*
Y3568441D01*
X1662860Y3592476D01*
X1650419Y3614024D01*
X1632824Y3631619D01*
X1611276Y3644060D01*
X1587241Y3650500D01*
D02*
G37*
G36*
X1333241D02*
X1308359D01*
X1284324Y3644060D01*
X1262776Y3631619D01*
X1245181Y3614024D01*
X1232740Y3592476D01*
X1226300Y3568441D01*
Y3543559D01*
X1232740Y3519524D01*
X1245181Y3497976D01*
X1262776Y3480381D01*
X1284324Y3467940D01*
X1308359Y3461500D01*
X1333241D01*
X1357276Y3467940D01*
X1378824Y3480381D01*
X1396419Y3497976D01*
X1408860Y3519524D01*
X1415300Y3543559D01*
Y3568441D01*
X1408860Y3592476D01*
X1396419Y3614024D01*
X1378824Y3631619D01*
X1357276Y3644060D01*
X1333241Y3650500D01*
D02*
G37*
G36*
X1161300D02*
X972300D01*
Y3461500D01*
X1161300D01*
Y3650500D01*
D02*
G37*
G36*
X1841241D02*
X1816359D01*
X1792324Y3644060D01*
X1770776Y3631619D01*
X1753181Y3614024D01*
X1740740Y3592476D01*
X1734300Y3568441D01*
Y3543559D01*
X1740740Y3519524D01*
X1753181Y3497976D01*
X1770776Y3480381D01*
X1792324Y3467940D01*
X1794083Y3467469D01*
Y3368521D01*
Y3195422D01*
X535451Y1936791D01*
X527926Y1925528D01*
X525283Y1912242D01*
Y1601397D01*
X520367Y1596482D01*
X513250Y1579299D01*
Y1560701D01*
X520367Y1543518D01*
X533518Y1530367D01*
X550701Y1523250D01*
X556192D01*
X561453Y1510550D01*
X457653Y1406750D01*
X450701D01*
X433518Y1399633D01*
X420367Y1386482D01*
X413250Y1369299D01*
Y1350701D01*
X420367Y1333518D01*
X433518Y1320367D01*
X450701Y1313250D01*
X469299D01*
X486482Y1320367D01*
X499633Y1333518D01*
X506750Y1350701D01*
Y1357653D01*
X1013096Y1863999D01*
X1187605D01*
X1192201Y1851299D01*
X947653Y1606750D01*
X940701D01*
X923518Y1599633D01*
X910367Y1586482D01*
X903250Y1569299D01*
Y1550701D01*
X910367Y1533518D01*
X923518Y1520367D01*
X940701Y1513250D01*
X959299D01*
X976482Y1520367D01*
X989633Y1533518D01*
X996750Y1550701D01*
Y1557653D01*
X1234380Y1795283D01*
X2548225D01*
X2553486Y1782583D01*
X2177653Y1406750D01*
X2170701D01*
X2158934Y1401876D01*
X2151740Y1412643D01*
X2364548Y1625451D01*
X2372074Y1636714D01*
X2374717Y1650000D01*
Y1698603D01*
X2379633Y1703518D01*
X2386750Y1720701D01*
Y1739299D01*
X2379633Y1756482D01*
X2366482Y1769633D01*
X2349299Y1776750D01*
X2330701D01*
X2313518Y1769633D01*
X2300367Y1756482D01*
X2293250Y1739299D01*
Y1720701D01*
X2300367Y1703518D01*
X2305283Y1698603D01*
Y1664380D01*
X2045451Y1404548D01*
X2037926Y1393286D01*
X2037417Y1390729D01*
X2024717Y1391980D01*
Y1625620D01*
X2082347Y1683250D01*
X2089299D01*
X2106482Y1690367D01*
X2119633Y1703518D01*
X2126750Y1720701D01*
Y1739299D01*
X2119633Y1756482D01*
X2106482Y1769633D01*
X2089299Y1776750D01*
X2070701D01*
X2053518Y1769633D01*
X2040367Y1756482D01*
X2033250Y1739299D01*
Y1732347D01*
X1965451Y1664549D01*
X1957926Y1653286D01*
X1955283Y1640000D01*
Y1451885D01*
X1942583Y1449359D01*
X1939633Y1456482D01*
X1926482Y1469633D01*
X1909299Y1476750D01*
X1890701D01*
X1873518Y1469633D01*
X1860367Y1456482D01*
X1853250Y1439299D01*
Y1420701D01*
X1860367Y1403518D01*
X1860521Y1403364D01*
Y1399618D01*
X1735620Y1274717D01*
X1664577D01*
X1663326Y1287417D01*
X1692713Y1293262D01*
X1731841Y1309470D01*
X1767054Y1332999D01*
X1797001Y1362946D01*
X1820531Y1398160D01*
X1836738Y1437287D01*
X1845000Y1478824D01*
Y1521176D01*
X1836738Y1562713D01*
X1820531Y1601841D01*
X1797001Y1637054D01*
X1767054Y1667001D01*
X1731841Y1690531D01*
X1692713Y1706738D01*
X1651176Y1715000D01*
X1608824D01*
X1567287Y1706738D01*
X1528160Y1690531D01*
X1492946Y1667001D01*
X1462999Y1637054D01*
X1439470Y1601841D01*
X1423262Y1562713D01*
X1415000Y1521176D01*
Y1478824D01*
X1423262Y1437287D01*
X1439470Y1398160D01*
X1462999Y1362946D01*
X1492946Y1332999D01*
X1528160Y1309470D01*
X1567287Y1293262D01*
X1596674Y1287417D01*
X1595423Y1274717D01*
X1284265D01*
X1094434Y1464549D01*
X1083171Y1472074D01*
X1069885Y1474717D01*
X680000D01*
X666714Y1472074D01*
X655451Y1464549D01*
X627653Y1436750D01*
X620701D01*
X603518Y1429633D01*
X590367Y1416482D01*
X583250Y1399299D01*
Y1380701D01*
X590367Y1363518D01*
X603518Y1350367D01*
X620701Y1343250D01*
X639299D01*
X656482Y1350367D01*
X669633Y1363518D01*
X676750Y1380701D01*
Y1387653D01*
X694380Y1405283D01*
X1055505D01*
X1245336Y1215451D01*
X1256599Y1207926D01*
X1269885Y1205283D01*
X1750000D01*
X1763286Y1207926D01*
X1774549Y1215451D01*
X1919787Y1360690D01*
X1927313Y1371953D01*
X1929955Y1385238D01*
Y1393841D01*
X1939633Y1403518D01*
X1942583Y1410641D01*
X1955283Y1408115D01*
Y1214380D01*
X1275620Y534717D01*
X898680D01*
X851930Y581467D01*
Y588419D01*
X844813Y605602D01*
X831662Y618753D01*
X814479Y625870D01*
X795881D01*
X778698Y618753D01*
X765547Y605602D01*
X758430Y588419D01*
Y569821D01*
X765547Y552638D01*
X778698Y539487D01*
X795881Y532370D01*
X802833D01*
X859751Y475451D01*
X864917Y472000D01*
X861064Y459300D01*
X852242D01*
X817409Y452371D01*
X784596Y438780D01*
X755066Y419048D01*
X729952Y393934D01*
X710220Y364404D01*
X696629Y331591D01*
X689700Y296758D01*
Y261242D01*
X696629Y226408D01*
X710220Y193596D01*
X729952Y164065D01*
X755066Y138952D01*
X784596Y119220D01*
X817409Y105629D01*
X852242Y98700D01*
X887758D01*
X922591Y105629D01*
X955404Y119220D01*
X984935Y138952D01*
X1010048Y164065D01*
X1029780Y193596D01*
X1043371Y226408D01*
X1050300Y261242D01*
Y296758D01*
X1043371Y331591D01*
X1029780Y364404D01*
X1010048Y393934D01*
X984935Y419048D01*
X955404Y438780D01*
X922591Y452371D01*
X921527Y452583D01*
X922777Y465283D01*
X1290000D01*
X1303286Y467926D01*
X1314549Y475451D01*
X2014549Y1175452D01*
X2022075Y1186715D01*
X2022583Y1189270D01*
X2035283Y1188019D01*
Y640000D01*
X2037926Y626714D01*
X2045451Y615451D01*
X2195451Y465451D01*
X2206714Y457926D01*
X2220000Y455283D01*
X2443260D01*
X2456546Y457926D01*
X2467809Y465451D01*
X2537267Y534910D01*
X2544219D01*
X2561402Y542027D01*
X2574553Y555178D01*
X2581670Y572361D01*
Y590959D01*
X2574553Y608142D01*
X2561402Y621293D01*
X2544219Y628410D01*
X2525621D01*
X2508438Y621293D01*
X2495287Y608142D01*
X2488170Y590959D01*
Y584007D01*
X2428880Y524717D01*
X2234380D01*
X2104717Y654380D01*
Y1365620D01*
X2127357Y1388260D01*
X2138124Y1381066D01*
X2133250Y1369299D01*
Y1350701D01*
X2140367Y1333518D01*
X2153518Y1320367D01*
X2170701Y1313250D01*
X2189299D01*
X2206482Y1320367D01*
X2219633Y1333518D01*
X2226750Y1350701D01*
Y1357653D01*
X2327358Y1458261D01*
X2338124Y1451067D01*
X2333250Y1439299D01*
Y1420701D01*
X2340367Y1403518D01*
X2353518Y1390367D01*
X2370701Y1383250D01*
X2389299D01*
X2406482Y1390367D01*
X2411398Y1395283D01*
X3068114D01*
X3070640Y1382583D01*
X3063518Y1379633D01*
X3050367Y1366482D01*
X3043250Y1349299D01*
Y1330701D01*
X3050367Y1313518D01*
X3063518Y1300367D01*
X3080701Y1293250D01*
X3099299D01*
X3116482Y1300367D01*
X3121397Y1305283D01*
X3328115D01*
X3330641Y1292583D01*
X3323518Y1289633D01*
X3310367Y1276482D01*
X3303250Y1259299D01*
Y1240701D01*
X3310367Y1223518D01*
X3323518Y1210367D01*
X3340701Y1203250D01*
X3359299D01*
X3376482Y1210367D01*
X3381397Y1215283D01*
X3505620D01*
X3725283Y995620D01*
Y650000D01*
X3727926Y636714D01*
X3735452Y625452D01*
X3895452Y465451D01*
X3906715Y457926D01*
X3920000Y455283D01*
X4251252D01*
X4253778Y442583D01*
X4244596Y438780D01*
X4215065Y419048D01*
X4189952Y393934D01*
X4170220Y364404D01*
X4156629Y331591D01*
X4149700Y296758D01*
Y261242D01*
X4156629Y226408D01*
X4170220Y193596D01*
X4189952Y164065D01*
X4215065Y138952D01*
X4244596Y119220D01*
X4277409Y105629D01*
X4312242Y98700D01*
X4347758D01*
X4382591Y105629D01*
X4415404Y119220D01*
X4444934Y138952D01*
X4470048Y164065D01*
X4489780Y193596D01*
X4503371Y226408D01*
X4510300Y261242D01*
Y296758D01*
X4503371Y331591D01*
X4489780Y364404D01*
X4470048Y393934D01*
X4444934Y419048D01*
X4415404Y438780D01*
X4406222Y442583D01*
X4408748Y455283D01*
X4768145D01*
X4781431Y457926D01*
X4792694Y465451D01*
X4874185Y546943D01*
X4956540D01*
X4957791Y534243D01*
X4953408Y533371D01*
X4920596Y519780D01*
X4891065Y500048D01*
X4865952Y474935D01*
X4846220Y445404D01*
X4832629Y412592D01*
X4825700Y377758D01*
Y342242D01*
X4832629Y307409D01*
X4846220Y274596D01*
X4865952Y245066D01*
X4891065Y219952D01*
X4920596Y200220D01*
X4953408Y186629D01*
X4988242Y179700D01*
X5023758D01*
X5058591Y186629D01*
X5091404Y200220D01*
X5120934Y219952D01*
X5146048Y245066D01*
X5165780Y274596D01*
X5179371Y307409D01*
X5186300Y342242D01*
Y377758D01*
X5179371Y412592D01*
X5165780Y445404D01*
X5146048Y474935D01*
X5120934Y500048D01*
X5091404Y519780D01*
X5058591Y533371D01*
X5054209Y534243D01*
X5055460Y546943D01*
X5344540D01*
X5345791Y534243D01*
X5341409Y533371D01*
X5308596Y519780D01*
X5279066Y500048D01*
X5253952Y474935D01*
X5234220Y445404D01*
X5220629Y412592D01*
X5213700Y377758D01*
Y342242D01*
X5220629Y307409D01*
X5234220Y274596D01*
X5253952Y245066D01*
X5279066Y219952D01*
X5308596Y200220D01*
X5341409Y186629D01*
X5376242Y179700D01*
X5411758D01*
X5446592Y186629D01*
X5479404Y200220D01*
X5508935Y219952D01*
X5534048Y245066D01*
X5553780Y274596D01*
X5567371Y307409D01*
X5574300Y342242D01*
Y377758D01*
X5567371Y412592D01*
X5553780Y445404D01*
X5534048Y474935D01*
X5508935Y500048D01*
X5479404Y519780D01*
X5446592Y533371D01*
X5442209Y534243D01*
X5443460Y546943D01*
X5623960D01*
X5665451Y505451D01*
X5676714Y497926D01*
X5690000Y495283D01*
X5780000D01*
X5793286Y497926D01*
X5804549Y505451D01*
X5846040Y546943D01*
X5973163D01*
X5978078Y542027D01*
X5995261Y534910D01*
X6013859D01*
X6031042Y542027D01*
X6044193Y555178D01*
X6051310Y572361D01*
Y590959D01*
X6044193Y608142D01*
X6031042Y621293D01*
X6013859Y628410D01*
X5995261D01*
X5978078Y621293D01*
X5973163Y616377D01*
X5831660D01*
X5821326Y614322D01*
X5814284Y621339D01*
X5812562Y624541D01*
X5814114Y627230D01*
X5819900Y648823D01*
Y671177D01*
X5814114Y692770D01*
X5802937Y712130D01*
X5787130Y727937D01*
X5767770Y739114D01*
X5746177Y744900D01*
X5723823D01*
X5702230Y739114D01*
X5682870Y727937D01*
X5667063Y712130D01*
X5655886Y692770D01*
X5650100Y671177D01*
Y648823D01*
X5655886Y627230D01*
X5657438Y624542D01*
X5655716Y621340D01*
X5648674Y614322D01*
X5638340Y616377D01*
X4859805D01*
X4846520Y613735D01*
X4835257Y606209D01*
X4753765Y524717D01*
X4288670D01*
X4286144Y537417D01*
X4291142Y539487D01*
X4304293Y552638D01*
X4311410Y569821D01*
Y588419D01*
X4304293Y605602D01*
X4291142Y618753D01*
X4273959Y625870D01*
X4255361D01*
X4238178Y618753D01*
X4233263Y613837D01*
X4149120D01*
X4135834Y611194D01*
X4124571Y603669D01*
X4105620Y584717D01*
X4057744D01*
X4052483Y597417D01*
X4062937Y607870D01*
X4074114Y627230D01*
X4079900Y648823D01*
Y671177D01*
X4074114Y692770D01*
X4062937Y712130D01*
X4047130Y727937D01*
X4027770Y739114D01*
X4006177Y744900D01*
X3983823D01*
X3962230Y739114D01*
X3942870Y727937D01*
X3927063Y712130D01*
X3915886Y692770D01*
X3910100Y671177D01*
Y656958D01*
X3897400Y651697D01*
X3854717Y694380D01*
Y1040000D01*
X3852074Y1053286D01*
X3844549Y1064549D01*
X3544548Y1364549D01*
X3533286Y1372074D01*
X3520000Y1374717D01*
X3121397D01*
X3116482Y1379633D01*
X3109360Y1382583D01*
X3111886Y1395283D01*
X3860000D01*
X3861508Y1395583D01*
X3865652Y1391326D01*
X3869426Y1384209D01*
X3863250Y1369299D01*
Y1350701D01*
X3870367Y1333518D01*
X3883518Y1320367D01*
X3900701Y1313250D01*
X3919299D01*
X3936482Y1320367D01*
X3949633Y1333518D01*
X3956750Y1350701D01*
Y1357653D01*
X4017358Y1418261D01*
X4028124Y1411067D01*
X4023250Y1399299D01*
Y1380701D01*
X4030367Y1363518D01*
X4043518Y1350367D01*
X4060701Y1343250D01*
X4079299D01*
X4096482Y1350367D01*
X4109633Y1363518D01*
X4116750Y1380701D01*
Y1387653D01*
X4134380Y1405283D01*
X5611208D01*
X5616431Y1395642D01*
X5616836Y1392951D01*
X5610367Y1386482D01*
X5603250Y1369299D01*
Y1350701D01*
X5610367Y1333518D01*
X5623518Y1320367D01*
X5640701Y1313250D01*
X5659299D01*
X5676482Y1320367D01*
X5681397Y1325283D01*
X5730000D01*
X5743286Y1327926D01*
X5754549Y1335451D01*
X6097583Y1678486D01*
X6110283Y1673225D01*
Y1591397D01*
X6105368Y1586482D01*
X6098250Y1569299D01*
Y1550701D01*
X6105368Y1533518D01*
X6118518Y1520367D01*
X6135701Y1513250D01*
X6154299D01*
X6171482Y1520367D01*
X6184633Y1533518D01*
X6191750Y1550701D01*
Y1569299D01*
X6184633Y1586482D01*
X6179717Y1591397D01*
Y1670620D01*
X6349849Y1840751D01*
X6357374Y1852014D01*
X6360017Y1865300D01*
Y2365908D01*
X6372717Y2371168D01*
X6373518Y2370367D01*
X6390701Y2363250D01*
X6409299D01*
X6426482Y2370367D01*
X6439633Y2383518D01*
X6446750Y2400701D01*
Y2419299D01*
X6439633Y2436482D01*
X6434867Y2441248D01*
Y2474721D01*
X6445300D01*
Y2639721D01*
X5840967D01*
Y2691870D01*
X5889380Y2740283D01*
X6515000D01*
Y2720000D01*
X6645000D01*
Y2830000D01*
X6515000D01*
Y2809717D01*
X4349800D01*
X4336514Y2807074D01*
X4325251Y2799548D01*
X3644852Y2119149D01*
X3643276Y2120060D01*
X3619241Y2126500D01*
X3594359D01*
X3570324Y2120060D01*
X3548776Y2107619D01*
X3531181Y2090024D01*
X3518740Y2068476D01*
X3512300Y2044441D01*
Y2019559D01*
X3518740Y1995524D01*
X3531181Y1973976D01*
X3548776Y1956381D01*
X3566527Y1946133D01*
X3563124Y1933433D01*
X3396476D01*
X3393073Y1946133D01*
X3410824Y1956381D01*
X3428419Y1973976D01*
X3440860Y1995524D01*
X3447300Y2019559D01*
Y2044441D01*
X3440860Y2068476D01*
X3428419Y2090024D01*
X3410824Y2107619D01*
X3389276Y2120060D01*
X3365241Y2126500D01*
X3340359D01*
X3316324Y2120060D01*
X3294776Y2107619D01*
X3277181Y2090024D01*
X3264740Y2068476D01*
X3258300Y2044441D01*
Y2019559D01*
X3264740Y1995524D01*
X3277181Y1973976D01*
X3294776Y1956381D01*
X3312527Y1946133D01*
X3309124Y1933433D01*
X3142476D01*
X3139073Y1946133D01*
X3156824Y1956381D01*
X3174419Y1973976D01*
X3186860Y1995524D01*
X3193300Y2019559D01*
Y2044441D01*
X3186860Y2068476D01*
X3174419Y2090024D01*
X3156824Y2107619D01*
X3135276Y2120060D01*
X3111241Y2126500D01*
X3086359D01*
X3062324Y2120060D01*
X3040776Y2107619D01*
X3023181Y2090024D01*
X3010740Y2068476D01*
X3004300Y2044441D01*
Y2019559D01*
X3010740Y1995524D01*
X3023181Y1973976D01*
X3040776Y1956381D01*
X3058527Y1946133D01*
X3055124Y1933433D01*
X2888476D01*
X2885073Y1946133D01*
X2902824Y1956381D01*
X2920419Y1973976D01*
X2932860Y1995524D01*
X2939300Y2019559D01*
Y2044441D01*
X2932860Y2068476D01*
X2931949Y2070052D01*
X3164549Y2302651D01*
X3172074Y2313914D01*
X3174717Y2327200D01*
Y2375620D01*
X4064380Y3265283D01*
X4099592D01*
X4104453Y3253550D01*
X3247653Y2396750D01*
X3240701D01*
X3223518Y2389633D01*
X3210367Y2376482D01*
X3203250Y2359299D01*
Y2340701D01*
X3210367Y2323518D01*
X3223518Y2310367D01*
X3240701Y2303250D01*
X3259299D01*
X3276482Y2310367D01*
X3289633Y2323518D01*
X3296750Y2340701D01*
Y2347653D01*
X4158149Y3209051D01*
X5620300D01*
Y3174717D01*
X5581398D01*
X5576482Y3179633D01*
X5559299Y3186750D01*
X5540701D01*
X5523518Y3179633D01*
X5510367Y3166482D01*
X5503250Y3149299D01*
Y3130701D01*
X5510367Y3113518D01*
X5523518Y3100367D01*
X5540701Y3093250D01*
X5559299D01*
X5576482Y3100367D01*
X5581398Y3105283D01*
X5620300D01*
Y3059719D01*
X5630583D01*
Y3004700D01*
X5633226Y2991414D01*
X5640751Y2980152D01*
X5720452Y2900451D01*
X5731715Y2892925D01*
X5745000Y2890283D01*
X6515000D01*
Y2870000D01*
X6645000D01*
Y2980000D01*
X6515000D01*
Y2959717D01*
X5759381D01*
X5700017Y3019080D01*
Y3059719D01*
X6445300D01*
Y3224718D01*
X5904867D01*
Y3288752D01*
X5909633Y3293518D01*
X5916750Y3310701D01*
Y3329299D01*
X5909633Y3346482D01*
X5896482Y3359633D01*
X5879299Y3366750D01*
X5860701D01*
X5843518Y3359633D01*
X5830367Y3346482D01*
X5823250Y3329299D01*
Y3310701D01*
X5828124Y3298934D01*
X5817357Y3291740D01*
X5784549Y3324549D01*
X5773286Y3332074D01*
X5760000Y3334717D01*
X5571885D01*
X5569359Y3347417D01*
X5576482Y3350367D01*
X5589633Y3363518D01*
X5596750Y3380701D01*
Y3399299D01*
X5589633Y3416482D01*
X5576482Y3429633D01*
X5559299Y3436750D01*
X5540701D01*
X5523518Y3429633D01*
X5518603Y3424717D01*
X1863517D01*
Y3467469D01*
X1865276Y3467940D01*
X1886824Y3480381D01*
X1904419Y3497976D01*
X1916860Y3519524D01*
X1923300Y3543559D01*
Y3568441D01*
X1916860Y3592476D01*
X1904419Y3614024D01*
X1886824Y3631619D01*
X1865276Y3644060D01*
X1841241Y3650500D01*
D02*
G37*
G36*
X6621176Y2115000D02*
X6578824D01*
X6537287Y2106738D01*
X6498159Y2090530D01*
X6462946Y2067001D01*
X6432999Y2037054D01*
X6409470Y2001841D01*
X6393262Y1962713D01*
X6385000Y1921176D01*
Y1878824D01*
X6393262Y1837287D01*
X6409470Y1798159D01*
X6432999Y1762946D01*
X6462946Y1732999D01*
X6498159Y1709470D01*
X6537287Y1693262D01*
X6578824Y1685000D01*
X6621176D01*
X6662713Y1693262D01*
X6701841Y1709470D01*
X6737054Y1732999D01*
X6767001Y1762946D01*
X6790530Y1798159D01*
X6806738Y1837287D01*
X6815000Y1878824D01*
Y1921176D01*
X6806738Y1962713D01*
X6790530Y2001841D01*
X6767001Y2037054D01*
X6737054Y2067001D01*
X6701841Y2090530D01*
X6662713Y2106738D01*
X6621176Y2115000D01*
D02*
G37*
G36*
X6416177Y993900D02*
X6393823D01*
X6372230Y988114D01*
X6352870Y976937D01*
X6337063Y961130D01*
X6325886Y941770D01*
X6320100Y920177D01*
Y897823D01*
X6325886Y876230D01*
X6337063Y856870D01*
X6352870Y841063D01*
X6372230Y829886D01*
X6393823Y824100D01*
X6416177D01*
X6437770Y829886D01*
X6457130Y841063D01*
X6472937Y856870D01*
X6484114Y876230D01*
X6489900Y897823D01*
Y920177D01*
X6484114Y941770D01*
X6472937Y961130D01*
X6457130Y976937D01*
X6437770Y988114D01*
X6416177Y993900D01*
D02*
G37*
G36*
X5746177D02*
X5723823D01*
X5702230Y988114D01*
X5682870Y976937D01*
X5667063Y961130D01*
X5655886Y941770D01*
X5650100Y920177D01*
Y897823D01*
X5655886Y876230D01*
X5667063Y856870D01*
X5682870Y841063D01*
X5702230Y829886D01*
X5723823Y824100D01*
X5746177D01*
X5767770Y829886D01*
X5787130Y841063D01*
X5802937Y856870D01*
X5814114Y876230D01*
X5819900Y897823D01*
Y920177D01*
X5814114Y941770D01*
X5802937Y961130D01*
X5787130Y976937D01*
X5767770Y988114D01*
X5746177Y993900D01*
D02*
G37*
G36*
X4676177D02*
X4653823D01*
X4632230Y988114D01*
X4612870Y976937D01*
X4597063Y961130D01*
X4585886Y941770D01*
X4580100Y920177D01*
Y897823D01*
X4585886Y876230D01*
X4597063Y856870D01*
X4612870Y841063D01*
X4632230Y829886D01*
X4653823Y824100D01*
X4676177D01*
X4697770Y829886D01*
X4717130Y841063D01*
X4732937Y856870D01*
X4744114Y876230D01*
X4749900Y897823D01*
Y920177D01*
X4744114Y941770D01*
X4732937Y961130D01*
X4717130Y976937D01*
X4697770Y988114D01*
X4676177Y993900D01*
D02*
G37*
G36*
X4006177D02*
X3983823D01*
X3962230Y988114D01*
X3942870Y976937D01*
X3927063Y961130D01*
X3915886Y941770D01*
X3910100Y920177D01*
Y897823D01*
X3915886Y876230D01*
X3927063Y856870D01*
X3942870Y841063D01*
X3962230Y829886D01*
X3983823Y824100D01*
X4006177D01*
X4027770Y829886D01*
X4047130Y841063D01*
X4062937Y856870D01*
X4074114Y876230D01*
X4079900Y897823D01*
Y920177D01*
X4074114Y941770D01*
X4062937Y961130D01*
X4047130Y976937D01*
X4027770Y988114D01*
X4006177Y993900D01*
D02*
G37*
G36*
X2946177D02*
X2923823D01*
X2902230Y988114D01*
X2882870Y976937D01*
X2867063Y961130D01*
X2855886Y941770D01*
X2850100Y920177D01*
Y897823D01*
X2855886Y876230D01*
X2867063Y856870D01*
X2882870Y841063D01*
X2902230Y829886D01*
X2923823Y824100D01*
X2946177D01*
X2967770Y829886D01*
X2987130Y841063D01*
X3002937Y856870D01*
X3014114Y876230D01*
X3019900Y897823D01*
Y920177D01*
X3014114Y941770D01*
X3002937Y961130D01*
X2987130Y976937D01*
X2967770Y988114D01*
X2946177Y993900D01*
D02*
G37*
G36*
X2276177D02*
X2253823D01*
X2232230Y988114D01*
X2212870Y976937D01*
X2197063Y961130D01*
X2185886Y941770D01*
X2180100Y920177D01*
Y897823D01*
X2185886Y876230D01*
X2197063Y856870D01*
X2212870Y841063D01*
X2232230Y829886D01*
X2253823Y824100D01*
X2276177D01*
X2297770Y829886D01*
X2317129Y841063D01*
X2332937Y856870D01*
X2344114Y876230D01*
X2349900Y897823D01*
Y920177D01*
X2344114Y941770D01*
X2332937Y961130D01*
X2317129Y976937D01*
X2297770Y988114D01*
X2276177Y993900D01*
D02*
G37*
G36*
X1216177D02*
X1193823D01*
X1172230Y988114D01*
X1152870Y976937D01*
X1137063Y961130D01*
X1125886Y941770D01*
X1120100Y920177D01*
Y897823D01*
X1125886Y876230D01*
X1137063Y856870D01*
X1152870Y841063D01*
X1172230Y829886D01*
X1193823Y824100D01*
X1216177D01*
X1237770Y829886D01*
X1257130Y841063D01*
X1272937Y856870D01*
X1284114Y876230D01*
X1289900Y897823D01*
Y920177D01*
X1284114Y941770D01*
X1272937Y961130D01*
X1257130Y976937D01*
X1237770Y988114D01*
X1216177Y993900D01*
D02*
G37*
G36*
X546177D02*
X523823D01*
X502230Y988114D01*
X482870Y976937D01*
X467063Y961130D01*
X455886Y941770D01*
X450100Y920177D01*
Y897823D01*
X455886Y876230D01*
X467063Y856870D01*
X482870Y841063D01*
X502230Y829886D01*
X523823Y824100D01*
X546177D01*
X567770Y829886D01*
X587130Y841063D01*
X602937Y856870D01*
X614114Y876230D01*
X619900Y897823D01*
Y920177D01*
X614114Y941770D01*
X602937Y961130D01*
X587130Y976937D01*
X567770Y988114D01*
X546177Y993900D01*
D02*
G37*
G36*
X6489900Y744900D02*
X6320100D01*
Y575100D01*
X6489900D01*
Y744900D01*
D02*
G37*
G36*
X4749900D02*
X4580100D01*
Y575100D01*
X4749900D01*
Y744900D01*
D02*
G37*
G36*
X3019900D02*
X2850100D01*
Y575100D01*
X3019900D01*
Y744900D01*
D02*
G37*
G36*
X2276177D02*
X2253823D01*
X2232230Y739114D01*
X2212870Y727937D01*
X2197063Y712130D01*
X2185886Y692770D01*
X2180100Y671177D01*
Y648823D01*
X2185886Y627230D01*
X2197063Y607870D01*
X2212870Y592063D01*
X2232230Y580886D01*
X2253823Y575100D01*
X2276177D01*
X2297770Y580886D01*
X2317129Y592063D01*
X2332937Y607870D01*
X2344114Y627230D01*
X2349900Y648823D01*
Y671177D01*
X2344114Y692770D01*
X2332937Y712130D01*
X2317129Y727937D01*
X2297770Y739114D01*
X2276177Y744900D01*
D02*
G37*
G36*
X1289900D02*
X1120100D01*
Y575100D01*
X1289900D01*
Y744900D01*
D02*
G37*
G36*
X546177D02*
X523823D01*
X502230Y739114D01*
X482870Y727937D01*
X467063Y712130D01*
X455886Y692770D01*
X450100Y671177D01*
Y648823D01*
X455886Y627230D01*
X467063Y607870D01*
X482870Y592063D01*
X502230Y580886D01*
X523823Y575100D01*
X546177D01*
X567770Y580886D01*
X587130Y592063D01*
X602937Y607870D01*
X614114Y627230D01*
X619900Y648823D01*
Y671177D01*
X614114Y692770D01*
X602937Y712130D01*
X587130Y727937D01*
X567770Y739114D01*
X546177Y744900D01*
D02*
G37*
G36*
X6763758Y540300D02*
X6728242D01*
X6693409Y533371D01*
X6660596Y519780D01*
X6631065Y500048D01*
X6605952Y474935D01*
X6586220Y445404D01*
X6572629Y412592D01*
X6565700Y377758D01*
Y342242D01*
X6572629Y307409D01*
X6586220Y274596D01*
X6605952Y245066D01*
X6631065Y219952D01*
X6660596Y200220D01*
X6693409Y186629D01*
X6728242Y179700D01*
X6763758D01*
X6798591Y186629D01*
X6831404Y200220D01*
X6860934Y219952D01*
X6886048Y245066D01*
X6905780Y274596D01*
X6919371Y307409D01*
X6926300Y342242D01*
Y377758D01*
X6919371Y412592D01*
X6905780Y445404D01*
X6886048Y474935D01*
X6860934Y500048D01*
X6831404Y519780D01*
X6798591Y533371D01*
X6763758Y540300D01*
D02*
G37*
G36*
X3671758D02*
X3636242D01*
X3601409Y533371D01*
X3568596Y519780D01*
X3539066Y500048D01*
X3513952Y474935D01*
X3494220Y445404D01*
X3480629Y412592D01*
X3473700Y377758D01*
Y342242D01*
X3480629Y307409D01*
X3494220Y274596D01*
X3513952Y245066D01*
X3539066Y219952D01*
X3568596Y200220D01*
X3601409Y186629D01*
X3636242Y179700D01*
X3671758D01*
X3706592Y186629D01*
X3739404Y200220D01*
X3768935Y219952D01*
X3794048Y245066D01*
X3813780Y274596D01*
X3827371Y307409D01*
X3834300Y342242D01*
Y377758D01*
X3827371Y412592D01*
X3813780Y445404D01*
X3794048Y474935D01*
X3768935Y500048D01*
X3739404Y519780D01*
X3706592Y533371D01*
X3671758Y540300D01*
D02*
G37*
G36*
X3293758D02*
X3258242D01*
X3223408Y533371D01*
X3190596Y519780D01*
X3161065Y500048D01*
X3135952Y474935D01*
X3116220Y445404D01*
X3102629Y412592D01*
X3095700Y377758D01*
Y342242D01*
X3102629Y307409D01*
X3116220Y274596D01*
X3135952Y245066D01*
X3161065Y219952D01*
X3190596Y200220D01*
X3223408Y186629D01*
X3258242Y179700D01*
X3293758D01*
X3328591Y186629D01*
X3361404Y200220D01*
X3390934Y219952D01*
X3416048Y245066D01*
X3435780Y274596D01*
X3449371Y307409D01*
X3456300Y342242D01*
Y377758D01*
X3449371Y412592D01*
X3435780Y445404D01*
X3416048Y474935D01*
X3390934Y500048D01*
X3361404Y519780D01*
X3328591Y533371D01*
X3293758Y540300D01*
D02*
G37*
G36*
X1941758D02*
X1906242D01*
X1871409Y533371D01*
X1838596Y519780D01*
X1809065Y500048D01*
X1783952Y474935D01*
X1764220Y445404D01*
X1750629Y412592D01*
X1743700Y377758D01*
Y342242D01*
X1750629Y307409D01*
X1764220Y274596D01*
X1783952Y245066D01*
X1809065Y219952D01*
X1838596Y200220D01*
X1871409Y186629D01*
X1906242Y179700D01*
X1941758D01*
X1976591Y186629D01*
X2009404Y200220D01*
X2038934Y219952D01*
X2064048Y245066D01*
X2083780Y274596D01*
X2097371Y307409D01*
X2104300Y342242D01*
Y377758D01*
X2097371Y412592D01*
X2083780Y445404D01*
X2064048Y474935D01*
X2038934Y500048D01*
X2009404Y519780D01*
X1976591Y533371D01*
X1941758Y540300D01*
D02*
G37*
G36*
X1563758D02*
X1528242D01*
X1493408Y533371D01*
X1460596Y519780D01*
X1431065Y500048D01*
X1405952Y474935D01*
X1386220Y445404D01*
X1372629Y412592D01*
X1365700Y377758D01*
Y342242D01*
X1372629Y307409D01*
X1386220Y274596D01*
X1405952Y245066D01*
X1431065Y219952D01*
X1460596Y200220D01*
X1493408Y186629D01*
X1528242Y179700D01*
X1563758D01*
X1598591Y186629D01*
X1631404Y200220D01*
X1660934Y219952D01*
X1686048Y245066D01*
X1705780Y274596D01*
X1719371Y307409D01*
X1726300Y342242D01*
Y377758D01*
X1719371Y412592D01*
X1705780Y445404D01*
X1686048Y474935D01*
X1660934Y500048D01*
X1631404Y519780D01*
X1598591Y533371D01*
X1563758Y540300D01*
D02*
G37*
G36*
X6087758Y459300D02*
X6052242D01*
X6017409Y452371D01*
X5984596Y438780D01*
X5955066Y419048D01*
X5929952Y393934D01*
X5910220Y364404D01*
X5896629Y331591D01*
X5889700Y296758D01*
Y261242D01*
X5896629Y226408D01*
X5910220Y193596D01*
X5929952Y164065D01*
X5955066Y138952D01*
X5984596Y119220D01*
X6017409Y105629D01*
X6052242Y98700D01*
X6087758D01*
X6122592Y105629D01*
X6155404Y119220D01*
X6184935Y138952D01*
X6210048Y164065D01*
X6229780Y193596D01*
X6243371Y226408D01*
X6250300Y261242D01*
Y296758D01*
X6243371Y331591D01*
X6229780Y364404D01*
X6210048Y393934D01*
X6184935Y419048D01*
X6155404Y438780D01*
X6122592Y452371D01*
X6087758Y459300D01*
D02*
G37*
G36*
X2617758D02*
X2582242D01*
X2547408Y452371D01*
X2514596Y438780D01*
X2485065Y419048D01*
X2459952Y393934D01*
X2440220Y364404D01*
X2426629Y331591D01*
X2419700Y296758D01*
Y261242D01*
X2426629Y226408D01*
X2440220Y193596D01*
X2459952Y164065D01*
X2485065Y138952D01*
X2514596Y119220D01*
X2547408Y105629D01*
X2582242Y98700D01*
X2617758D01*
X2652591Y105629D01*
X2685404Y119220D01*
X2714934Y138952D01*
X2740048Y164065D01*
X2759780Y193596D01*
X2773371Y226408D01*
X2780300Y261242D01*
Y296758D01*
X2773371Y331591D01*
X2759780Y364404D01*
X2740048Y393934D01*
X2714934Y419048D01*
X2685404Y438780D01*
X2652591Y452371D01*
X2617758Y459300D01*
D02*
G37*
%LPD*%
G36*
X5523518Y3350367D02*
X5530641Y3347417D01*
X5528115Y3334717D01*
X4050000D01*
X4036714Y3332074D01*
X4025451Y3324549D01*
X3115451Y2414549D01*
X3107926Y2403286D01*
X3105283Y2390000D01*
Y2343579D01*
X3098278Y2338177D01*
X3086750Y2344816D01*
Y2359299D01*
X3079633Y2376482D01*
X3066482Y2389633D01*
X3049299Y2396750D01*
X3030701D01*
X3013518Y2389633D01*
X3008603Y2384717D01*
X2908800D01*
X2895515Y2382075D01*
X2884252Y2374549D01*
X2628852Y2119149D01*
X2627276Y2120060D01*
X2603241Y2126500D01*
X2578359D01*
X2554324Y2120060D01*
X2532776Y2107619D01*
X2515181Y2090024D01*
X2502740Y2068476D01*
X2496300Y2044441D01*
Y2019559D01*
X2502740Y1995524D01*
X2515181Y1973976D01*
X2532776Y1956381D01*
X2550527Y1946133D01*
X2547124Y1933433D01*
X2380476D01*
X2377073Y1946133D01*
X2394824Y1956381D01*
X2412419Y1973976D01*
X2424860Y1995524D01*
X2431300Y2019559D01*
Y2044441D01*
X2424860Y2068476D01*
X2412419Y2090024D01*
X2394824Y2107619D01*
X2373276Y2120060D01*
X2349241Y2126500D01*
X2324359D01*
X2300324Y2120060D01*
X2278776Y2107619D01*
X2261181Y2090024D01*
X2248740Y2068476D01*
X2242300Y2044441D01*
Y2019559D01*
X2248740Y1995524D01*
X2261181Y1973976D01*
X2278776Y1956381D01*
X2296527Y1946133D01*
X2293124Y1933433D01*
X2126476D01*
X2123073Y1946133D01*
X2140824Y1956381D01*
X2158419Y1973976D01*
X2170860Y1995524D01*
X2177300Y2019559D01*
Y2044441D01*
X2170860Y2068476D01*
X2158419Y2090024D01*
X2140824Y2107619D01*
X2119276Y2120060D01*
X2095241Y2126500D01*
X2070359D01*
X2046324Y2120060D01*
X2024776Y2107619D01*
X2007181Y2090024D01*
X1994740Y2068476D01*
X1988300Y2044441D01*
Y2019559D01*
X1994740Y1995524D01*
X2007181Y1973976D01*
X2024776Y1956381D01*
X2042527Y1946133D01*
X2039124Y1933433D01*
X1872476D01*
X1869073Y1946133D01*
X1886824Y1956381D01*
X1904419Y1973976D01*
X1916860Y1995524D01*
X1923300Y2019559D01*
Y2044441D01*
X1916860Y2068476D01*
X1904419Y2090024D01*
X1886824Y2107619D01*
X1865276Y2120060D01*
X1841241Y2126500D01*
X1816359D01*
X1792324Y2120060D01*
X1770776Y2107619D01*
X1753181Y2090024D01*
X1740740Y2068476D01*
X1734300Y2044441D01*
Y2019559D01*
X1740740Y1995524D01*
X1753181Y1973976D01*
X1770776Y1956381D01*
X1788527Y1946133D01*
X1785124Y1933433D01*
X1618476D01*
X1615073Y1946133D01*
X1632824Y1956381D01*
X1650419Y1973976D01*
X1662860Y1995524D01*
X1669300Y2019559D01*
Y2044441D01*
X1662860Y2068476D01*
X1650419Y2090024D01*
X1632824Y2107619D01*
X1611276Y2120060D01*
X1587241Y2126500D01*
X1562359D01*
X1538324Y2120060D01*
X1516776Y2107619D01*
X1499181Y2090024D01*
X1486740Y2068476D01*
X1480300Y2044441D01*
Y2019559D01*
X1486740Y1995524D01*
X1499181Y1973976D01*
X1516776Y1956381D01*
X1534527Y1946133D01*
X1531124Y1933433D01*
X1364476D01*
X1361073Y1946133D01*
X1378824Y1956381D01*
X1396419Y1973976D01*
X1408860Y1995524D01*
X1415300Y2019559D01*
Y2044441D01*
X1408860Y2068476D01*
X1396419Y2090024D01*
X1378824Y2107619D01*
X1357276Y2120060D01*
X1333241Y2126500D01*
X1308359D01*
X1284324Y2120060D01*
X1262776Y2107619D01*
X1245181Y2090024D01*
X1232740Y2068476D01*
X1226300Y2044441D01*
Y2019559D01*
X1232740Y1995524D01*
X1245181Y1973976D01*
X1262776Y1956381D01*
X1280527Y1946133D01*
X1277124Y1933433D01*
X1172315D01*
X1161300Y1937500D01*
X1161300Y1946133D01*
Y2126500D01*
X972300D01*
Y1937500D01*
X972613D01*
X976465Y1924800D01*
X974167Y1923264D01*
X619450Y1568547D01*
X606750Y1573808D01*
Y1579299D01*
X599633Y1596482D01*
X594717Y1601397D01*
Y1897862D01*
X1853349Y3156494D01*
X1860874Y3167756D01*
X1863517Y3181042D01*
Y3354141D01*
X1864659Y3355283D01*
X5518603D01*
X5523518Y3350367D01*
D02*
G37*
G36*
X3013518Y2310367D02*
X3030701Y2303250D01*
X3048992D01*
X3049838Y2302362D01*
X3055970Y2292267D01*
X2882852Y2119149D01*
X2881276Y2120060D01*
X2857241Y2126500D01*
X2832359D01*
X2808324Y2120060D01*
X2786776Y2107619D01*
X2769181Y2090024D01*
X2756740Y2068476D01*
X2750300Y2044441D01*
Y2019559D01*
X2756740Y1995524D01*
X2769181Y1973976D01*
X2786776Y1956381D01*
X2804527Y1946133D01*
X2801124Y1933433D01*
X2634476D01*
X2631073Y1946133D01*
X2648824Y1956381D01*
X2666419Y1973976D01*
X2678860Y1995524D01*
X2685300Y2019559D01*
Y2044441D01*
X2678860Y2068476D01*
X2677949Y2070052D01*
X2923180Y2315283D01*
X3008603D01*
X3013518Y2310367D01*
D02*
G37*
G36*
X5779553Y2727583D02*
X5774176Y2719536D01*
X5771533Y2706250D01*
Y2639721D01*
X5620300D01*
Y2474721D01*
X5705433D01*
Y2451547D01*
X5700367Y2446482D01*
X5693250Y2429299D01*
Y2410701D01*
X5700367Y2393518D01*
X5713518Y2380367D01*
X5730701Y2373250D01*
X5749299D01*
X5766482Y2380367D01*
X5779633Y2393518D01*
X5786750Y2410701D01*
Y2429299D01*
X5779633Y2446482D01*
X5774867Y2451248D01*
Y2474721D01*
X5835583D01*
Y2074680D01*
X5694335Y1933433D01*
X4666476D01*
X4663073Y1946133D01*
X4680824Y1956381D01*
X4698419Y1973976D01*
X4710860Y1995524D01*
X4717300Y2019559D01*
Y2044441D01*
X4710860Y2068476D01*
X4698419Y2090024D01*
X4680824Y2107619D01*
X4659276Y2120060D01*
X4635241Y2126500D01*
X4610359D01*
X4586324Y2120060D01*
X4564776Y2107619D01*
X4547181Y2090024D01*
X4534740Y2068476D01*
X4528300Y2044441D01*
Y2019559D01*
X4534740Y1995524D01*
X4547181Y1973976D01*
X4564776Y1956381D01*
X4582527Y1946133D01*
X4579124Y1933433D01*
X4412476D01*
X4409073Y1946133D01*
X4426824Y1956381D01*
X4444419Y1973976D01*
X4456860Y1995524D01*
X4463300Y2019559D01*
Y2044441D01*
X4456860Y2068476D01*
X4444419Y2090024D01*
X4426824Y2107619D01*
X4405276Y2120060D01*
X4381241Y2126500D01*
X4356359D01*
X4332324Y2120060D01*
X4310776Y2107619D01*
X4293181Y2090024D01*
X4280740Y2068476D01*
X4274300Y2044441D01*
Y2019559D01*
X4280740Y1995524D01*
X4293181Y1973976D01*
X4310776Y1956381D01*
X4328527Y1946133D01*
X4325124Y1933433D01*
X4158476D01*
X4155073Y1946133D01*
X4172824Y1956381D01*
X4190419Y1973976D01*
X4202860Y1995524D01*
X4209300Y2019559D01*
Y2044441D01*
X4202860Y2068476D01*
X4190419Y2090024D01*
X4172824Y2107619D01*
X4151276Y2120060D01*
X4127241Y2126500D01*
X4102359D01*
X4078324Y2120060D01*
X4056776Y2107619D01*
X4039181Y2090024D01*
X4026740Y2068476D01*
X4020300Y2044441D01*
Y2019559D01*
X4026740Y1995524D01*
X4039181Y1973976D01*
X4056776Y1956381D01*
X4074527Y1946133D01*
X4071124Y1933433D01*
X3904476D01*
X3901073Y1946133D01*
X3918824Y1956381D01*
X3936419Y1973976D01*
X3948860Y1995524D01*
X3955300Y2019559D01*
Y2044441D01*
X3948860Y2068476D01*
X3936419Y2090024D01*
X3918824Y2107619D01*
X3897276Y2120060D01*
X3873241Y2126500D01*
X3848359D01*
X3824324Y2120060D01*
X3802776Y2107619D01*
X3785181Y2090024D01*
X3772740Y2068476D01*
X3766300Y2044441D01*
Y2019559D01*
X3772740Y1995524D01*
X3785181Y1973976D01*
X3802776Y1956381D01*
X3820527Y1946133D01*
X3817124Y1933433D01*
X3650476D01*
X3647073Y1946133D01*
X3664824Y1956381D01*
X3682419Y1973976D01*
X3694860Y1995524D01*
X3701300Y2019559D01*
Y2044441D01*
X3694860Y2068476D01*
X3693949Y2070052D01*
X4364180Y2740283D01*
X5774776D01*
X5779553Y2727583D01*
D02*
G37*
G36*
X2791789Y1730334D02*
X2793486Y1722583D01*
X2677653Y1606750D01*
X2670701D01*
X2653518Y1599633D01*
X2640367Y1586482D01*
X2633250Y1569299D01*
Y1550701D01*
X2640367Y1533518D01*
X2653518Y1520367D01*
X2670701Y1513250D01*
X2689299D01*
X2706482Y1520367D01*
X2719633Y1533518D01*
X2726750Y1550701D01*
Y1557653D01*
X2834380Y1665283D01*
X4148657D01*
X4151789Y1660335D01*
X4153486Y1652583D01*
X3998483Y1497580D01*
X3995862Y1498278D01*
X3986750Y1503808D01*
Y1519299D01*
X3979633Y1536482D01*
X3966482Y1549633D01*
X3949299Y1556750D01*
X3930701D01*
X3913518Y1549633D01*
X3900367Y1536482D01*
X3893250Y1519299D01*
Y1512347D01*
X3845620Y1464717D01*
X2411398D01*
X2406482Y1469633D01*
X2389299Y1476750D01*
X2370701D01*
X2358933Y1471876D01*
X2351739Y1482642D01*
X2604380Y1735283D01*
X2788657D01*
X2791789Y1730334D01*
D02*
G37*
G36*
X4365652Y1582583D02*
X4360150Y1569299D01*
Y1550701D01*
X4367267Y1533518D01*
X4380418Y1520367D01*
X4397601Y1513250D01*
X4416199D01*
X4433382Y1520367D01*
X4438297Y1525283D01*
X5628115D01*
X5630641Y1512583D01*
X5623518Y1509632D01*
X5610367Y1496482D01*
X5603250Y1479299D01*
Y1477366D01*
X5600601Y1474717D01*
X4120000D01*
X4106714Y1472074D01*
X4095451Y1464549D01*
X4067653Y1436750D01*
X4060701D01*
X4048933Y1431876D01*
X4041739Y1442642D01*
X4194380Y1595283D01*
X4359475D01*
X4365652Y1582583D01*
D02*
G37*
D10*
X6580000Y2925000D02*
D03*
Y2775000D02*
D03*
D11*
X5665300Y3142219D02*
D03*
X6400300D02*
D03*
X5665300Y2557221D02*
D03*
X6400300D02*
D03*
D12*
X5805300D02*
D03*
X5870300D02*
D03*
X5935300D02*
D03*
X6000300D02*
D03*
X6065300D02*
D03*
X6130300D02*
D03*
X6195300D02*
D03*
X6260300D02*
D03*
X6325300D02*
D03*
Y3142219D02*
D03*
X6260300D02*
D03*
X6195300D02*
D03*
X6130300D02*
D03*
X6065300D02*
D03*
X6000300D02*
D03*
X5935300D02*
D03*
X5805300D02*
D03*
X5740300D02*
D03*
Y2557221D02*
D03*
X5870300Y3142219D02*
D03*
D13*
X1828800Y3368521D02*
X1850279Y3390000D01*
X5550000D01*
X1828800Y3368521D02*
Y3556000D01*
X5550000Y3140000D02*
X5663082D01*
X5665300Y3142219D01*
X5831660Y581660D02*
X6004560D01*
X5690000Y530000D02*
X5780000D01*
X5831660Y581660D01*
X5638340D02*
X5690000Y530000D01*
X4859805Y581660D02*
X5638340D01*
X4768145Y490000D02*
X4859805Y581660D01*
X4120000Y550000D02*
X4149120Y579120D01*
X3950000Y550000D02*
X4120000D01*
X3820000Y680000D02*
X3950000Y550000D01*
X3820000Y680000D02*
Y1040000D01*
X3920000Y490000D02*
X4768145D01*
X3760000Y650000D02*
X3920000Y490000D01*
X3760000Y650000D02*
Y1010000D01*
X3520000Y1250000D02*
X3760000Y1010000D01*
X3520000Y1340000D02*
X3820000Y1040000D01*
X3350000Y1250000D02*
X3520000D01*
X4149120Y579120D02*
X4264660D01*
X3090000Y1340000D02*
X3520000D01*
X2908800Y2350000D02*
X3040000D01*
X3140000Y2327200D02*
Y2390000D01*
X2844800Y2032000D02*
X3140000Y2327200D01*
Y2390000D02*
X4050000Y3300000D01*
X5760000D01*
X2590800Y2032000D02*
X2908800Y2350000D01*
X3250000D02*
X4143768Y3243768D01*
X6400150Y2557071D02*
X6400300Y2557221D01*
X6400150Y2410150D02*
Y2557071D01*
X6400000Y2410000D02*
X6400150Y2410150D01*
X5740000Y2420000D02*
X5740150Y2420150D01*
Y2557071D01*
X5740300Y2557221D01*
X5665300D02*
X5740300D01*
X5870000Y3320000D02*
X5870150Y3319850D01*
Y3142369D02*
Y3319850D01*
Y3142369D02*
X5870300Y3142219D01*
X4143768Y3243768D02*
X5709404D01*
X5739350Y3213822D01*
Y3143168D02*
Y3213822D01*
Y3143168D02*
X5740300Y3142219D01*
X4349800Y2775000D02*
X6580000D01*
X5804350Y3143168D02*
Y3255650D01*
X5760000Y3300000D02*
X5804350Y3255650D01*
Y3143168D02*
X5805300Y3142219D01*
X3606800Y2032000D02*
X4349800Y2775000D01*
X5745000Y2925000D02*
X6580000D01*
X5665300Y3004700D02*
X5745000Y2925000D01*
X4120000Y1440000D02*
X5614982D01*
X5644982Y1470000D01*
X4070000Y1390000D02*
X4120000Y1440000D01*
X5644982Y1470000D02*
X5650000D01*
X3860000Y1430000D02*
X3940000Y1510000D01*
X2380000Y1430000D02*
X3860000D01*
X630000Y1390000D02*
X680000Y1440000D01*
X1069885D02*
X1269885Y1240000D01*
X680000Y1440000D02*
X1069885D01*
X1750000Y1240000D02*
X1895238Y1385238D01*
X1269885Y1240000D02*
X1750000D01*
X1895238Y1425238D02*
X1900000Y1430000D01*
X1895238Y1385238D02*
Y1425238D01*
X5665300Y3004700D02*
Y3142219D01*
X1828800Y3181042D02*
Y3368521D01*
X560000Y1912242D02*
X1828800Y3181042D01*
X560000Y1570000D02*
Y1912242D01*
X2070000Y640000D02*
X2220000Y490000D01*
X2070000Y1380000D02*
X2340000Y1650000D01*
X2070000Y640000D02*
Y1380000D01*
X2340000Y1650000D02*
Y1730000D01*
X2443260Y490000D02*
X2534920Y581660D01*
X2220000Y490000D02*
X2443260D01*
X1990000Y1640000D02*
X2080000Y1730000D01*
X1990000Y1200000D02*
Y1640000D01*
X1290000Y500000D02*
X1990000Y1200000D01*
X884300Y500000D02*
X1290000D01*
X805180Y579120D02*
X884300Y500000D01*
X998716Y1898716D02*
X5708716D01*
X5870300Y2060300D01*
Y2557221D01*
X460000Y1360000D02*
X998716Y1898716D01*
X5934350Y2034350D02*
Y2556271D01*
X1220000Y1830000D02*
X5730000D01*
X5934350Y2034350D01*
X2590000Y1770000D02*
X5760000D01*
X5999350Y2009350D01*
Y2556271D01*
X950000Y1560000D02*
X1220000Y1830000D01*
X5934350Y2556271D02*
X5935300Y2557221D01*
X2180000Y1360000D02*
X2590000Y1770000D01*
X5999350Y2556271D02*
X6000300Y2557221D01*
X6064350Y1984350D02*
Y2556271D01*
X2820000Y1700000D02*
X5780000D01*
X6064350Y1984350D01*
X5800000Y1630000D02*
X6130300Y1960300D01*
Y2557221D01*
X4180000Y1630000D02*
X5800000D01*
X2680000Y1560000D02*
X2820000Y1700000D01*
X6064350Y2556271D02*
X6065300Y2557221D01*
X3910000Y1360000D02*
X4180000Y1630000D01*
X6145000Y1560000D02*
Y1685000D01*
X6325300Y1865300D02*
Y2557221D01*
X6145000Y1685000D02*
X6325300Y1865300D01*
X4406900Y1560000D02*
X5830000D01*
X6194350Y1924350D02*
Y2556271D01*
X5830000Y1560000D02*
X6194350Y1924350D01*
X5650000Y1360000D02*
X5730000D01*
X6260300Y1890300D02*
Y2557221D01*
X5730000Y1360000D02*
X6260300Y1890300D01*
X6194350Y2556271D02*
X6195300Y2557221D01*
X5806250Y2558171D02*
Y2706250D01*
X5875000Y2775000D01*
X5805300Y2557221D02*
X5806250Y2558171D01*
D14*
X1828800Y3556000D02*
D03*
X3606800Y2032000D02*
D03*
X1828800D02*
D03*
X1320800Y3556000D02*
D03*
X2844800Y2032000D02*
D03*
X2590800D02*
D03*
X1320800D02*
D03*
X1574800D02*
D03*
X2336800D02*
D03*
X3098800D02*
D03*
X3860800D02*
D03*
X4114800D02*
D03*
X4368800D02*
D03*
X4622800D02*
D03*
X2082800D02*
D03*
X3352800D02*
D03*
X4622800Y3556000D02*
D03*
X4368800D02*
D03*
X4114800D02*
D03*
X3860800D02*
D03*
X3606800D02*
D03*
X3352800D02*
D03*
X3098800D02*
D03*
X2844800D02*
D03*
X2590800D02*
D03*
X2336800D02*
D03*
X2082800D02*
D03*
X1574800D02*
D03*
D15*
X6600000Y1900000D02*
D03*
X1630000Y1500000D02*
D03*
D16*
X4665000Y909000D02*
D03*
X6405000D02*
D03*
X3995000D02*
D03*
X5735000Y660000D02*
D03*
X3995000D02*
D03*
X2265000D02*
D03*
X535000D02*
D03*
X1205000Y909000D02*
D03*
X5735000D02*
D03*
X535000D02*
D03*
X2935000D02*
D03*
X2265000D02*
D03*
D17*
X6746000Y360000D02*
D03*
X5394000D02*
D03*
X6070000Y279000D02*
D03*
X4330000D02*
D03*
X3654000Y360000D02*
D03*
X5006000D02*
D03*
X3276000D02*
D03*
X1924000D02*
D03*
X2600000Y279000D02*
D03*
X870000D02*
D03*
X194000Y360000D02*
D03*
X1546000D02*
D03*
D18*
X1066800Y2032000D02*
D03*
Y3556000D02*
D03*
D19*
X1205000Y660000D02*
D03*
X2935000D02*
D03*
X4665000D02*
D03*
X6405000D02*
D03*
D20*
X5550000Y3390000D02*
D03*
Y3140000D02*
D03*
X3350000Y1250000D02*
D03*
X3090000Y1340000D02*
D03*
X3040000Y2350000D02*
D03*
X3250000D02*
D03*
X6400000Y2410000D02*
D03*
X5740000Y2420000D02*
D03*
X5870000Y3320000D02*
D03*
X1900000Y1430000D02*
D03*
X2380000D02*
D03*
X3940000Y1510000D02*
D03*
X4070000Y1390000D02*
D03*
X5650000Y1470000D02*
D03*
X560000Y1570000D02*
D03*
X630000Y1390000D02*
D03*
X2340000Y1730000D02*
D03*
X2080000D02*
D03*
X4406900Y1560000D02*
D03*
X6145000D02*
D03*
X3910000Y1360000D02*
D03*
X950000Y1560000D02*
D03*
X5650000Y1360000D02*
D03*
X460000D02*
D03*
X2680000Y1560000D02*
D03*
X2180000Y1360000D02*
D03*
X6004560Y581660D02*
D03*
X4264660Y579120D02*
D03*
X2534920Y581660D02*
D03*
X805180Y579120D02*
D03*
%TF.MD5,f4690035d4e6fcf2374976b7a86129f1*%
M02*
