%TF.GenerationSoftware,Altium Limited,Altium Designer,25.6.2 (33)*%
G04 Layer_Color=32896*
%FSLAX45Y45*%
%MOMM*%
%TF.SameCoordinates,85768DE1-254B-4F2A-BBB9-FB77CA5A1332*%
%TF.FilePolarity,Positive*%
%TF.FileFunction,Legend,Bot*%
%TF.Part,Single*%
G01*
G75*
%TA.AperFunction,NonConductor*%
%ADD27C,0.25000*%
%ADD28C,0.20000*%
%ADD31C,0.40000*%
D27*
X1079300Y2207000D02*
G03*
X1079300Y2207000I-12500J0D01*
G01*
X6147500Y554792D02*
G03*
X6147500Y554792I-12500J0D01*
G01*
X2677500D02*
G03*
X2677500Y554792I-12500J0D01*
G01*
X4407500D02*
G03*
X4407500Y554792I-12500J0D01*
G01*
X947500Y574792D02*
G03*
X947500Y574792I-12500J0D01*
G01*
X1079300Y3731000D02*
G03*
X1079300Y3731000I-12500J0D01*
G01*
D28*
X901800Y1905000D02*
X4787800D01*
Y2159000D01*
X901800D02*
X4787800D01*
X901800Y1905000D02*
Y2159000D01*
X1193800Y1905000D02*
Y2159000D01*
X6196250Y655000D02*
Y865000D01*
X5943750Y655000D02*
Y865000D01*
X2726250Y655000D02*
Y865000D01*
X2473750Y655000D02*
Y865000D01*
X4456250Y655000D02*
Y865000D01*
X4203750Y655000D02*
Y865000D01*
X743750Y675000D02*
Y885000D01*
X996250Y675000D02*
Y885000D01*
X1193800Y3429000D02*
Y3683000D01*
X901800Y3429000D02*
Y3683000D01*
X4787800D01*
Y3429000D02*
Y3683000D01*
X901800Y3429000D02*
X4787800D01*
X6153306Y1059984D02*
Y976677D01*
X6136645Y960016D01*
X6103323D01*
X6086661Y976677D01*
Y1059984D01*
X5986694D02*
X6053339D01*
Y1010000D01*
X6020016Y1026661D01*
X6003355D01*
X5986694Y1010000D01*
Y976677D01*
X6003355Y960016D01*
X6036677D01*
X6053339Y976677D01*
X4413306Y1059984D02*
Y976677D01*
X4396645Y960016D01*
X4363322D01*
X4346661Y976677D01*
Y1059984D01*
X4263355Y960016D02*
Y1059984D01*
X4313339Y1010000D01*
X4246694D01*
X2673306Y1049984D02*
Y966678D01*
X2656645Y950016D01*
X2623322D01*
X2606661Y966678D01*
Y1049984D01*
X2573339Y1033323D02*
X2556677Y1049984D01*
X2523355D01*
X2506693Y1033323D01*
Y1016661D01*
X2523355Y1000000D01*
X2540016D01*
X2523355D01*
X2506693Y983339D01*
Y966678D01*
X2523355Y950016D01*
X2556677D01*
X2573339Y966678D01*
X6446645Y1263323D02*
X6463306Y1279984D01*
X6496629D01*
X6513290Y1263323D01*
Y1246661D01*
X6496629Y1230000D01*
X6463306D01*
X6446645Y1213339D01*
Y1196678D01*
X6463306Y1180016D01*
X6496629D01*
X6513290Y1196678D01*
X6413322Y1279984D02*
Y1180016D01*
X6363339D01*
X6346677Y1196678D01*
Y1213339D01*
X6363339Y1230000D01*
X6413322D01*
X6363339D01*
X6346677Y1246661D01*
Y1263323D01*
X6363339Y1279984D01*
X6413322D01*
X6263371Y1180016D02*
Y1279984D01*
X6313355Y1230000D01*
X6246710D01*
X4706645Y1263323D02*
X4723307Y1279984D01*
X4756629D01*
X4773290Y1263323D01*
Y1246661D01*
X4756629Y1230000D01*
X4723307D01*
X4706645Y1213339D01*
Y1196678D01*
X4723307Y1180016D01*
X4756629D01*
X4773290Y1196678D01*
X4673323Y1279984D02*
Y1180016D01*
X4623339D01*
X4606678Y1196678D01*
Y1213339D01*
X4623339Y1230000D01*
X4673323D01*
X4623339D01*
X4606678Y1246661D01*
Y1263323D01*
X4623339Y1279984D01*
X4673323D01*
X4573355Y1263323D02*
X4556693Y1279984D01*
X4523371D01*
X4506710Y1263323D01*
Y1246661D01*
X4523371Y1230000D01*
X4540032D01*
X4523371D01*
X4506710Y1213339D01*
Y1196678D01*
X4523371Y1180016D01*
X4556693D01*
X4573355Y1196678D01*
X2976645Y1263323D02*
X2993306Y1279984D01*
X3026629D01*
X3043290Y1263323D01*
Y1246661D01*
X3026629Y1230000D01*
X2993306D01*
X2976645Y1213339D01*
Y1196678D01*
X2993306Y1180016D01*
X3026629D01*
X3043290Y1196678D01*
X2943323Y1279984D02*
Y1180016D01*
X2893339D01*
X2876678Y1196678D01*
Y1213339D01*
X2893339Y1230000D01*
X2943323D01*
X2893339D01*
X2876678Y1246661D01*
Y1263323D01*
X2893339Y1279984D01*
X2943323D01*
X2776710Y1180016D02*
X2843355D01*
X2776710Y1246661D01*
Y1263323D01*
X2793371Y1279984D01*
X2826693D01*
X2843355Y1263323D01*
X1219984D02*
X1236645Y1279984D01*
X1269967D01*
X1286629Y1263323D01*
Y1246661D01*
X1269967Y1230000D01*
X1236645D01*
X1219984Y1213339D01*
Y1196678D01*
X1236645Y1180016D01*
X1269967D01*
X1286629Y1196678D01*
X1186661Y1279984D02*
Y1180016D01*
X1136677D01*
X1120016Y1196678D01*
Y1213339D01*
X1136677Y1230000D01*
X1186661D01*
X1136677D01*
X1120016Y1246661D01*
Y1263323D01*
X1136677Y1279984D01*
X1186661D01*
X1086693Y1180016D02*
X1053371D01*
X1070032D01*
Y1279984D01*
X1086693Y1263323D01*
X6423306Y1390016D02*
Y1489984D01*
X6373323D01*
X6356661Y1473322D01*
Y1440000D01*
X6373323Y1423339D01*
X6423306D01*
X6389984D02*
X6356661Y1390016D01*
X6323339Y1473322D02*
X6306677Y1489984D01*
X6273355D01*
X6256694Y1473322D01*
Y1456661D01*
X6273355Y1440000D01*
X6256694Y1423339D01*
Y1406677D01*
X6273355Y1390016D01*
X6306677D01*
X6323339Y1406677D01*
Y1423339D01*
X6306677Y1440000D01*
X6323339Y1456661D01*
Y1473322D01*
X6306677Y1440000D02*
X6273355D01*
X5563306Y1180016D02*
Y1279984D01*
X5513322D01*
X5496661Y1263323D01*
Y1230000D01*
X5513322Y1213339D01*
X5563306D01*
X5529984D02*
X5496661Y1180016D01*
X5463339Y1279984D02*
X5396694D01*
Y1263323D01*
X5463339Y1196678D01*
Y1180016D01*
X4683306Y1390016D02*
Y1489984D01*
X4633322D01*
X4616661Y1473322D01*
Y1440000D01*
X4633322Y1423339D01*
X4683306D01*
X4649984D02*
X4616661Y1390016D01*
X4516694Y1489984D02*
X4550016Y1473322D01*
X4583339Y1440000D01*
Y1406677D01*
X4566677Y1390016D01*
X4533355D01*
X4516694Y1406677D01*
Y1423339D01*
X4533355Y1440000D01*
X4583339D01*
X3803306Y1180016D02*
Y1279984D01*
X3753322D01*
X3736661Y1263323D01*
Y1230000D01*
X3753322Y1213339D01*
X3803306D01*
X3769984D02*
X3736661Y1180016D01*
X3636694Y1279984D02*
X3703339D01*
Y1230000D01*
X3670016Y1246661D01*
X3653355D01*
X3636694Y1230000D01*
Y1196678D01*
X3653355Y1180016D01*
X3686677D01*
X3703339Y1196678D01*
X2963306Y1390016D02*
Y1489984D01*
X2913323D01*
X2896661Y1473322D01*
Y1440000D01*
X2913323Y1423339D01*
X2963306D01*
X2929984D02*
X2896661Y1390016D01*
X2813355D02*
Y1489984D01*
X2863339Y1440000D01*
X2796694D01*
X2073306Y1180016D02*
Y1279984D01*
X2023323D01*
X2006661Y1263323D01*
Y1230000D01*
X2023323Y1213339D01*
X2073306D01*
X2039984D02*
X2006661Y1180016D01*
X1973339Y1263323D02*
X1956677Y1279984D01*
X1923355D01*
X1906694Y1263323D01*
Y1246661D01*
X1923355Y1230000D01*
X1940016D01*
X1923355D01*
X1906694Y1213339D01*
Y1196678D01*
X1923355Y1180016D01*
X1956677D01*
X1973339Y1196678D01*
X863306Y1530016D02*
Y1629984D01*
X813322D01*
X796661Y1613322D01*
Y1580000D01*
X813322Y1563339D01*
X863306D01*
X829984D02*
X796661Y1530016D01*
X696694D02*
X763339D01*
X696694Y1596661D01*
Y1613322D01*
X713355Y1629984D01*
X746677D01*
X763339Y1613322D01*
X356645Y1180016D02*
Y1279984D01*
X306661D01*
X290000Y1263323D01*
Y1230000D01*
X306661Y1213339D01*
X356645D01*
X323322D02*
X290000Y1180016D01*
X256677D02*
X223355D01*
X240016D01*
Y1279984D01*
X256677Y1263323D01*
X953306Y1059984D02*
Y976677D01*
X936645Y960016D01*
X903323D01*
X886661Y976677D01*
Y1059984D01*
X786694Y960016D02*
X853339D01*
X786694Y1026661D01*
Y1043323D01*
X803355Y1059984D01*
X836677D01*
X853339Y1043323D01*
D31*
X4750000Y2899951D02*
Y2799984D01*
X4700016Y2750000D01*
X4650033Y2799984D01*
Y2899951D01*
X4525073Y2750000D02*
X4575057D01*
X4600049Y2774992D01*
Y2824976D01*
X4575057Y2849967D01*
X4525073D01*
X4500081Y2824976D01*
Y2799984D01*
X4600049D01*
X4450097Y2849967D02*
Y2750000D01*
Y2799984D01*
X4425105Y2824976D01*
X4400113Y2849967D01*
X4375122D01*
X4300146Y2750000D02*
X4225170D01*
X4200178Y2774992D01*
X4225170Y2799984D01*
X4275154D01*
X4300146Y2824976D01*
X4275154Y2849967D01*
X4200178D01*
X4150194Y2750000D02*
X4100210D01*
X4125203D01*
Y2849967D01*
X4150194D01*
X4000243Y2750000D02*
X3950259D01*
X3925267Y2774992D01*
Y2824976D01*
X3950259Y2849967D01*
X4000243D01*
X4025235Y2824976D01*
Y2774992D01*
X4000243Y2750000D01*
X3875283D02*
Y2849967D01*
X3800308D01*
X3775316Y2824976D01*
Y2750000D01*
X3575380Y2874959D02*
X3550389Y2899951D01*
X3500405D01*
X3475413Y2874959D01*
Y2774992D01*
X3500405Y2750000D01*
X3550389D01*
X3575380Y2774992D01*
Y2874959D01*
X3425429Y2750000D02*
Y2774992D01*
X3400437D01*
Y2750000D01*
X3425429D01*
X3200502D02*
X3300469D01*
X3200502Y2849967D01*
Y2874959D01*
X3225494Y2899951D01*
X3275478D01*
X3300469Y2874959D01*
X4740000Y2649935D02*
Y2499984D01*
X4665024D01*
X4640033Y2524976D01*
Y2624943D01*
X4665024Y2649935D01*
X4740000D01*
X4515073Y2499984D02*
X4565057D01*
X4590049Y2524976D01*
Y2574960D01*
X4565057Y2599951D01*
X4515073D01*
X4490081Y2574960D01*
Y2549968D01*
X4590049D01*
X4440097Y2499984D02*
X4365122D01*
X4340130Y2524976D01*
X4365122Y2549968D01*
X4415105D01*
X4440097Y2574960D01*
X4415105Y2599951D01*
X4340130D01*
X4290146Y2499984D02*
X4240162D01*
X4265154D01*
Y2599951D01*
X4290146D01*
X4115202Y2450000D02*
X4090211D01*
X4065219Y2474992D01*
Y2599951D01*
X4140194D01*
X4165186Y2574960D01*
Y2524976D01*
X4140194Y2499984D01*
X4065219D01*
X4015235D02*
Y2599951D01*
X3940259D01*
X3915267Y2574960D01*
Y2499984D01*
X3790308D02*
X3840292D01*
X3865283Y2524976D01*
Y2574960D01*
X3840292Y2599951D01*
X3790308D01*
X3765316Y2574960D01*
Y2549968D01*
X3865283D01*
X3715332Y2599951D02*
Y2499984D01*
Y2549968D01*
X3690340Y2574960D01*
X3665348Y2599951D01*
X3640356D01*
X3565380D02*
X3540389D01*
Y2574960D01*
X3565380D01*
Y2599951D01*
Y2524976D02*
X3540389D01*
Y2499984D01*
X3565380D01*
Y2524976D01*
X3290469Y2499984D02*
Y2599951D01*
X3240486Y2649935D01*
X3190502Y2599951D01*
Y2499984D01*
Y2574960D01*
X3290469D01*
X3140518Y2499984D02*
Y2599951D01*
X3065542D01*
X3040550Y2574960D01*
Y2499984D01*
X2890599Y2649935D02*
Y2499984D01*
X2965575D01*
X2990567Y2524976D01*
Y2574960D01*
X2965575Y2599951D01*
X2890599D01*
X2765639Y2499984D02*
X2815623D01*
X2840615Y2524976D01*
Y2574960D01*
X2815623Y2599951D01*
X2765639D01*
X2740648Y2574960D01*
Y2549968D01*
X2840615D01*
X2690664Y2599951D02*
Y2499984D01*
Y2549968D01*
X2665672Y2574960D01*
X2640680Y2599951D01*
X2615688D01*
X2540712Y2499984D02*
X2465736D01*
X2440745Y2524976D01*
X2465736Y2549968D01*
X2515720D01*
X2540712Y2574960D01*
X2515720Y2599951D01*
X2440745D01*
X2140842Y2649935D02*
X2240809D01*
Y2499984D01*
X2140842D01*
X2240809Y2574960D02*
X2190825D01*
X2090858Y2599951D02*
Y2499984D01*
Y2549968D01*
X2065866Y2574960D01*
X2040874Y2599951D01*
X2015882D01*
X1940906Y2499984D02*
X1890923D01*
X1915915D01*
Y2599951D01*
X1940906D01*
X1815947Y2499984D02*
Y2649935D01*
Y2549968D02*
X1740971Y2599951D01*
X1815947Y2549968D02*
X1740971Y2499984D01*
X1665995D02*
X1591020D01*
X1566028Y2524976D01*
X1591020Y2549968D01*
X1641004D01*
X1665995Y2574960D01*
X1641004Y2599951D01*
X1566028D01*
X1441068Y2499984D02*
X1491052D01*
X1516044Y2524976D01*
Y2574960D01*
X1491052Y2599951D01*
X1441068D01*
X1416076Y2574960D01*
Y2549968D01*
X1516044D01*
X1366093Y2499984D02*
Y2599951D01*
X1291117D01*
X1266125Y2574960D01*
Y2499984D01*
X4750000Y3000000D02*
Y3149951D01*
X4675024D01*
X4650033Y3124959D01*
Y3074976D01*
X4675024Y3049984D01*
X4750000D01*
X4700016D02*
X4650033Y3000000D01*
X4600049Y3149951D02*
Y3000000D01*
Y3074976D01*
X4500081D01*
Y3149951D01*
Y3000000D01*
X4200178Y3124959D02*
X4225170Y3149951D01*
X4275154D01*
X4300146Y3124959D01*
Y3099967D01*
X4275154Y3074976D01*
X4225170D01*
X4200178Y3049984D01*
Y3024992D01*
X4225170Y3000000D01*
X4275154D01*
X4300146Y3024992D01*
X4075219Y3000000D02*
X4125203D01*
X4150194Y3024992D01*
Y3074976D01*
X4125203Y3099967D01*
X4075219D01*
X4050227Y3074976D01*
Y3049984D01*
X4150194D01*
X4000243Y3000000D02*
Y3099967D01*
X3925267D01*
X3900275Y3074976D01*
Y3000000D01*
X3850292D02*
X3775316D01*
X3750324Y3024992D01*
X3775316Y3049984D01*
X3825300D01*
X3850292Y3074976D01*
X3825300Y3099967D01*
X3750324D01*
X3675348Y3000000D02*
X3625364D01*
X3600373Y3024992D01*
Y3074976D01*
X3625364Y3099967D01*
X3675348D01*
X3700340Y3074976D01*
Y3024992D01*
X3675348Y3000000D01*
X3550389Y3099967D02*
Y3000000D01*
Y3049984D01*
X3525397Y3074976D01*
X3500405Y3099967D01*
X3475413D01*
X3250486Y3000000D02*
Y3149951D01*
X3175510D01*
X3150518Y3124959D01*
Y3074976D01*
X3175510Y3049984D01*
X3250486D01*
X3200502D02*
X3150518Y3000000D01*
X3025559D02*
X3075542D01*
X3100534Y3024992D01*
Y3074976D01*
X3075542Y3099967D01*
X3025559D01*
X3000567Y3074976D01*
Y3049984D01*
X3100534D01*
X2850615Y3099967D02*
X2925591D01*
X2950583Y3074976D01*
Y3024992D01*
X2925591Y3000000D01*
X2850615D01*
X2725656D02*
X2775640D01*
X2800631Y3024992D01*
Y3074976D01*
X2775640Y3099967D01*
X2725656D01*
X2700664Y3074976D01*
Y3049984D01*
X2800631D01*
X2650680Y3000000D02*
X2600696D01*
X2625688D01*
Y3099967D01*
X2650680D01*
X2525720D02*
X2475736Y3000000D01*
X2425753Y3099967D01*
X2300793Y3000000D02*
X2350777D01*
X2375769Y3024992D01*
Y3074976D01*
X2350777Y3099967D01*
X2300793D01*
X2275801Y3074976D01*
Y3049984D01*
X2375769D01*
X2225817Y3099967D02*
Y3000000D01*
Y3049984D01*
X2200826Y3074976D01*
X2175834Y3099967D01*
X2150842D01*
X1925915Y3000000D02*
Y3149951D01*
X1875931Y3099967D01*
X1825947Y3149951D01*
Y3000000D01*
X1750971D02*
X1700987D01*
X1675996Y3024992D01*
Y3074976D01*
X1700987Y3099967D01*
X1750971D01*
X1775963Y3074976D01*
Y3024992D01*
X1750971Y3000000D01*
X1526044Y3149951D02*
Y3000000D01*
X1601020D01*
X1626012Y3024992D01*
Y3074976D01*
X1601020Y3099967D01*
X1526044D01*
X1476060D02*
Y3024992D01*
X1451068Y3000000D01*
X1376093D01*
Y3099967D01*
X1326109Y3000000D02*
X1276125D01*
X1301117D01*
Y3149951D01*
X1326109D01*
X1126174Y3000000D02*
X1176157D01*
X1201149Y3024992D01*
Y3074976D01*
X1176157Y3099967D01*
X1126174D01*
X1101182Y3074976D01*
Y3049984D01*
X1201149D01*
%TF.MD5,af61d26df4df1d7bb25ac59d0e5f4ef7*%
M02*
