%TF.GenerationSoftware,Altium Limited,Altium Designer,25.6.2 (33)*%
G04 Layer_Physical_Order=2*
G04 Layer_Color=16711680*
%FSLAX45Y45*%
%MOMM*%
%TF.SameCoordinates,85768DE1-254B-4F2A-BBB9-FB77CA5A1332*%
%TF.FilePolarity,Positive*%
%TF.FileFunction,Copper,L2,Bot,Signal*%
%TF.Part,Single*%
G01*
G75*
%TA.AperFunction,Conductor*%
%ADD13C,0.38100*%
%TA.AperFunction,ComponentPad*%
%ADD14C,1.59000*%
%TA.AperFunction,ViaPad*%
%ADD15C,4.00000*%
%TA.AperFunction,ComponentPad*%
%ADD16C,1.39800*%
%ADD17C,3.30600*%
%ADD18R,1.59000X1.59000*%
%ADD19R,1.39800X1.39800*%
%TA.AperFunction,ViaPad*%
%ADD20C,0.63500*%
%TA.AperFunction,SMDPad,CuDef*%
%ADD21R,0.80000X1.00000*%
G04:AMPARAMS|DCode=22|XSize=1.46387mm|YSize=0.37583mm|CornerRadius=0.18791mm|HoleSize=0mm|Usage=FLASHONLY|Rotation=90.000|XOffset=0mm|YOffset=0mm|HoleType=Round|Shape=RoundedRectangle|*
%AMROUNDEDRECTD22*
21,1,1.46387,0.00000,0,0,90.0*
21,1,1.08804,0.37583,0,0,90.0*
1,1,0.37583,0.00000,0.54402*
1,1,0.37583,0.00000,-0.54402*
1,1,0.37583,0.00000,-0.54402*
1,1,0.37583,0.00000,0.54402*
%
%ADD22ROUNDEDRECTD22*%
G04:AMPARAMS|DCode=23|XSize=1.2mm|YSize=0.37583mm|CornerRadius=0.18791mm|HoleSize=0mm|Usage=FLASHONLY|Rotation=90.000|XOffset=0mm|YOffset=0mm|HoleType=Round|Shape=RoundedRectangle|*
%AMROUNDEDRECTD23*
21,1,1.20000,0.00000,0,0,90.0*
21,1,0.82417,0.37583,0,0,90.0*
1,1,0.37583,0.00000,0.41209*
1,1,0.37583,0.00000,-0.41209*
1,1,0.37583,0.00000,-0.41209*
1,1,0.37583,0.00000,0.41209*
%
%ADD23ROUNDEDRECTD23*%
%ADD24R,0.37583X1.46387*%
G04:AMPARAMS|DCode=25|XSize=1.2mm|YSize=0.37mm|CornerRadius=0.185mm|HoleSize=0mm|Usage=FLASHONLY|Rotation=90.000|XOffset=0mm|YOffset=0mm|HoleType=Round|Shape=RoundedRectangle|*
%AMROUNDEDRECTD25*
21,1,1.20000,0.00000,0,0,90.0*
21,1,0.83000,0.37000,0,0,90.0*
1,1,0.37000,0.00000,0.41500*
1,1,0.37000,0.00000,-0.41500*
1,1,0.37000,0.00000,-0.41500*
1,1,0.37000,0.00000,0.41500*
%
%ADD25ROUNDEDRECTD25*%
%ADD26R,0.37583X1.20000*%
G36*
X6858000Y3784103D02*
X6867958D01*
X6887491Y3780218D01*
X6905891Y3772596D01*
X6922449Y3761532D01*
X6936532Y3747449D01*
X6947596Y3730890D01*
X6955218Y3712491D01*
X6959103Y3692957D01*
X6959103Y3683000D01*
X6959103Y127000D01*
X6959103Y117042D01*
X6955218Y97510D01*
X6947596Y79109D01*
X6936532Y62550D01*
X6922449Y48467D01*
X6905891Y37403D01*
X6887491Y29782D01*
X6867958Y25896D01*
X117042D01*
X97509Y29782D01*
X79109Y37403D01*
X62550Y48468D01*
X48467Y62550D01*
X37403Y79109D01*
X29781Y97509D01*
X25896Y117042D01*
Y246459D01*
X38049Y250146D01*
X45874Y238436D01*
X72436Y211874D01*
X103670Y191004D01*
X138375Y176629D01*
X175218Y169300D01*
X181300D01*
Y360000D01*
Y550700D01*
X175218D01*
X138375Y543372D01*
X103670Y528996D01*
X72436Y508126D01*
X45874Y481564D01*
X38049Y469854D01*
X25896Y473541D01*
X25896Y1651000D01*
X25892Y3682995D01*
X25892Y3692953D01*
X29777Y3712487D01*
X37399Y3730887D01*
X48464Y3747448D01*
X62547Y3761531D01*
X79108Y3772596D01*
X97507Y3780218D01*
X117042Y3784103D01*
X127001Y3784104D01*
X6858000Y3784103D01*
D02*
G37*
%LPC*%
G36*
X1334610Y3660900D02*
X1333500D01*
Y3568700D01*
X1425700D01*
Y3569810D01*
X1418551Y3596490D01*
X1404741Y3620410D01*
X1385210Y3639941D01*
X1361290Y3653751D01*
X1334610Y3660900D01*
D02*
G37*
G36*
X1308100D02*
X1306990D01*
X1280310Y3653751D01*
X1256390Y3639941D01*
X1236859Y3620410D01*
X1223049Y3596490D01*
X1215900Y3569810D01*
Y3568700D01*
X1308100D01*
Y3660900D01*
D02*
G37*
G36*
X4635241Y3650500D02*
X4610359D01*
X4586324Y3644060D01*
X4564776Y3631619D01*
X4547181Y3614024D01*
X4534740Y3592476D01*
X4528300Y3568441D01*
Y3543559D01*
X4534740Y3519524D01*
X4547181Y3497976D01*
X4564776Y3480381D01*
X4586324Y3467940D01*
X4610359Y3461500D01*
X4635241D01*
X4659276Y3467940D01*
X4680824Y3480381D01*
X4698419Y3497976D01*
X4710860Y3519524D01*
X4717300Y3543559D01*
Y3568441D01*
X4710860Y3592476D01*
X4698419Y3614024D01*
X4680824Y3631619D01*
X4659276Y3644060D01*
X4635241Y3650500D01*
D02*
G37*
G36*
X4381241D02*
X4356359D01*
X4332324Y3644060D01*
X4310776Y3631619D01*
X4293181Y3614024D01*
X4280740Y3592476D01*
X4274300Y3568441D01*
Y3543559D01*
X4280740Y3519524D01*
X4293181Y3497976D01*
X4310776Y3480381D01*
X4332324Y3467940D01*
X4356359Y3461500D01*
X4381241D01*
X4405276Y3467940D01*
X4426824Y3480381D01*
X4444419Y3497976D01*
X4456860Y3519524D01*
X4463300Y3543559D01*
Y3568441D01*
X4456860Y3592476D01*
X4444419Y3614024D01*
X4426824Y3631619D01*
X4405276Y3644060D01*
X4381241Y3650500D01*
D02*
G37*
G36*
X4127241D02*
X4102359D01*
X4078324Y3644060D01*
X4056776Y3631619D01*
X4039181Y3614024D01*
X4026740Y3592476D01*
X4020300Y3568441D01*
Y3543559D01*
X4026740Y3519524D01*
X4039181Y3497976D01*
X4056776Y3480381D01*
X4078324Y3467940D01*
X4102359Y3461500D01*
X4127241D01*
X4151276Y3467940D01*
X4172824Y3480381D01*
X4190419Y3497976D01*
X4202860Y3519524D01*
X4209300Y3543559D01*
Y3568441D01*
X4202860Y3592476D01*
X4190419Y3614024D01*
X4172824Y3631619D01*
X4151276Y3644060D01*
X4127241Y3650500D01*
D02*
G37*
G36*
X3873241D02*
X3848359D01*
X3824324Y3644060D01*
X3802776Y3631619D01*
X3785181Y3614024D01*
X3772740Y3592476D01*
X3766300Y3568441D01*
Y3543559D01*
X3772740Y3519524D01*
X3785181Y3497976D01*
X3802776Y3480381D01*
X3824324Y3467940D01*
X3848359Y3461500D01*
X3873241D01*
X3897276Y3467940D01*
X3918824Y3480381D01*
X3936419Y3497976D01*
X3948860Y3519524D01*
X3955300Y3543559D01*
Y3568441D01*
X3948860Y3592476D01*
X3936419Y3614024D01*
X3918824Y3631619D01*
X3897276Y3644060D01*
X3873241Y3650500D01*
D02*
G37*
G36*
X3619241D02*
X3594359D01*
X3570324Y3644060D01*
X3548776Y3631619D01*
X3531181Y3614024D01*
X3518740Y3592476D01*
X3512300Y3568441D01*
Y3543559D01*
X3518740Y3519524D01*
X3531181Y3497976D01*
X3548776Y3480381D01*
X3570324Y3467940D01*
X3594359Y3461500D01*
X3619241D01*
X3643276Y3467940D01*
X3664824Y3480381D01*
X3682419Y3497976D01*
X3694860Y3519524D01*
X3701300Y3543559D01*
Y3568441D01*
X3694860Y3592476D01*
X3682419Y3614024D01*
X3664824Y3631619D01*
X3643276Y3644060D01*
X3619241Y3650500D01*
D02*
G37*
G36*
X3365241D02*
X3340359D01*
X3316324Y3644060D01*
X3294776Y3631619D01*
X3277181Y3614024D01*
X3264740Y3592476D01*
X3258300Y3568441D01*
Y3543559D01*
X3264740Y3519524D01*
X3277181Y3497976D01*
X3294776Y3480381D01*
X3316324Y3467940D01*
X3340359Y3461500D01*
X3365241D01*
X3389276Y3467940D01*
X3410824Y3480381D01*
X3428419Y3497976D01*
X3440860Y3519524D01*
X3447300Y3543559D01*
Y3568441D01*
X3440860Y3592476D01*
X3428419Y3614024D01*
X3410824Y3631619D01*
X3389276Y3644060D01*
X3365241Y3650500D01*
D02*
G37*
G36*
X3111241D02*
X3086359D01*
X3062324Y3644060D01*
X3040776Y3631619D01*
X3023181Y3614024D01*
X3010740Y3592476D01*
X3004300Y3568441D01*
Y3543559D01*
X3010740Y3519524D01*
X3023181Y3497976D01*
X3040776Y3480381D01*
X3062324Y3467940D01*
X3086359Y3461500D01*
X3111241D01*
X3135276Y3467940D01*
X3156824Y3480381D01*
X3174419Y3497976D01*
X3186860Y3519524D01*
X3193300Y3543559D01*
Y3568441D01*
X3186860Y3592476D01*
X3174419Y3614024D01*
X3156824Y3631619D01*
X3135276Y3644060D01*
X3111241Y3650500D01*
D02*
G37*
G36*
X2857241D02*
X2832359D01*
X2808324Y3644060D01*
X2786776Y3631619D01*
X2769181Y3614024D01*
X2756740Y3592476D01*
X2750300Y3568441D01*
Y3543559D01*
X2756740Y3519524D01*
X2769181Y3497976D01*
X2786776Y3480381D01*
X2808324Y3467940D01*
X2832359Y3461500D01*
X2857241D01*
X2881276Y3467940D01*
X2902824Y3480381D01*
X2920419Y3497976D01*
X2932860Y3519524D01*
X2939300Y3543559D01*
Y3568441D01*
X2932860Y3592476D01*
X2920419Y3614024D01*
X2902824Y3631619D01*
X2881276Y3644060D01*
X2857241Y3650500D01*
D02*
G37*
G36*
X2603241D02*
X2578359D01*
X2554324Y3644060D01*
X2532776Y3631619D01*
X2515181Y3614024D01*
X2502740Y3592476D01*
X2496300Y3568441D01*
Y3543559D01*
X2502740Y3519524D01*
X2515181Y3497976D01*
X2532776Y3480381D01*
X2554324Y3467940D01*
X2578359Y3461500D01*
X2603241D01*
X2627276Y3467940D01*
X2648824Y3480381D01*
X2666419Y3497976D01*
X2678860Y3519524D01*
X2685300Y3543559D01*
Y3568441D01*
X2678860Y3592476D01*
X2666419Y3614024D01*
X2648824Y3631619D01*
X2627276Y3644060D01*
X2603241Y3650500D01*
D02*
G37*
G36*
X2349241D02*
X2324359D01*
X2300324Y3644060D01*
X2278776Y3631619D01*
X2261181Y3614024D01*
X2248740Y3592476D01*
X2242300Y3568441D01*
Y3543559D01*
X2248740Y3519524D01*
X2261181Y3497976D01*
X2278776Y3480381D01*
X2300324Y3467940D01*
X2324359Y3461500D01*
X2349241D01*
X2373276Y3467940D01*
X2394824Y3480381D01*
X2412419Y3497976D01*
X2424860Y3519524D01*
X2431300Y3543559D01*
Y3568441D01*
X2424860Y3592476D01*
X2412419Y3614024D01*
X2394824Y3631619D01*
X2373276Y3644060D01*
X2349241Y3650500D01*
D02*
G37*
G36*
X2095241D02*
X2070359D01*
X2046324Y3644060D01*
X2024776Y3631619D01*
X2007181Y3614024D01*
X1994740Y3592476D01*
X1988300Y3568441D01*
Y3543559D01*
X1994740Y3519524D01*
X2007181Y3497976D01*
X2024776Y3480381D01*
X2046324Y3467940D01*
X2070359Y3461500D01*
X2095241D01*
X2119276Y3467940D01*
X2140824Y3480381D01*
X2158419Y3497976D01*
X2170860Y3519524D01*
X2177300Y3543559D01*
Y3568441D01*
X2170860Y3592476D01*
X2158419Y3614024D01*
X2140824Y3631619D01*
X2119276Y3644060D01*
X2095241Y3650500D01*
D02*
G37*
G36*
X1841241D02*
X1816359D01*
X1792324Y3644060D01*
X1770776Y3631619D01*
X1753181Y3614024D01*
X1740740Y3592476D01*
X1734300Y3568441D01*
Y3543559D01*
X1740740Y3519524D01*
X1753181Y3497976D01*
X1770776Y3480381D01*
X1792324Y3467940D01*
X1816359Y3461500D01*
X1841241D01*
X1865276Y3467940D01*
X1886824Y3480381D01*
X1904419Y3497976D01*
X1916860Y3519524D01*
X1923300Y3543559D01*
Y3568441D01*
X1916860Y3592476D01*
X1904419Y3614024D01*
X1886824Y3631619D01*
X1865276Y3644060D01*
X1841241Y3650500D01*
D02*
G37*
G36*
X1587241D02*
X1562359D01*
X1538324Y3644060D01*
X1516776Y3631619D01*
X1499181Y3614024D01*
X1486740Y3592476D01*
X1480300Y3568441D01*
Y3543559D01*
X1486740Y3519524D01*
X1499181Y3497976D01*
X1516776Y3480381D01*
X1538324Y3467940D01*
X1562359Y3461500D01*
X1587241D01*
X1611276Y3467940D01*
X1632824Y3480381D01*
X1650419Y3497976D01*
X1662860Y3519524D01*
X1669300Y3543559D01*
Y3568441D01*
X1662860Y3592476D01*
X1650419Y3614024D01*
X1632824Y3631619D01*
X1611276Y3644060D01*
X1587241Y3650500D01*
D02*
G37*
G36*
X1161300D02*
X972300D01*
Y3461500D01*
X1161300D01*
Y3650500D01*
D02*
G37*
G36*
X1425700Y3543300D02*
X1333500D01*
Y3451100D01*
X1334610D01*
X1361290Y3458249D01*
X1385210Y3472059D01*
X1404741Y3491590D01*
X1418551Y3515510D01*
X1425700Y3542190D01*
Y3543300D01*
D02*
G37*
G36*
X1308100D02*
X1215900D01*
Y3542190D01*
X1223049Y3515510D01*
X1236859Y3491590D01*
X1256390Y3472059D01*
X1280310Y3458249D01*
X1306990Y3451100D01*
X1308100D01*
Y3543300D01*
D02*
G37*
G36*
X5882700Y3376598D02*
Y3332700D01*
X5926598D01*
X5918449Y3352373D01*
X5902373Y3368449D01*
X5882700Y3376598D01*
D02*
G37*
G36*
X5857300D02*
X5837627Y3368449D01*
X5821550Y3352373D01*
X5813402Y3332700D01*
X5857300D01*
Y3376598D01*
D02*
G37*
G36*
X5926598Y3307300D02*
X5882700D01*
Y3263402D01*
X5902373Y3271550D01*
X5918449Y3287627D01*
X5926598Y3307300D01*
D02*
G37*
G36*
X5857300D02*
X5813402D01*
X5821550Y3287627D01*
X5837627Y3271550D01*
X5857300Y3263402D01*
Y3307300D01*
D02*
G37*
G36*
X5559299Y3436750D02*
X5540701D01*
X5523518Y3429633D01*
X5510367Y3416482D01*
X5503250Y3399299D01*
Y3380701D01*
X5510367Y3363518D01*
X5515283Y3358603D01*
Y3171398D01*
X5510367Y3166482D01*
X5503250Y3149299D01*
Y3130701D01*
X5510367Y3113518D01*
X5523518Y3100367D01*
X5540701Y3093250D01*
X5559299D01*
X5576482Y3100367D01*
X5589633Y3113518D01*
X5596750Y3130701D01*
Y3149299D01*
X5589633Y3166482D01*
X5584717Y3171398D01*
Y3358603D01*
X5589633Y3363518D01*
X5596750Y3380701D01*
Y3399299D01*
X5589633Y3416482D01*
X5576482Y3429633D01*
X5559299Y3436750D01*
D02*
G37*
G36*
X5752700Y2476598D02*
Y2432700D01*
X5796598D01*
X5788449Y2452373D01*
X5772373Y2468449D01*
X5752700Y2476598D01*
D02*
G37*
G36*
X5727300D02*
X5707627Y2468449D01*
X5691550Y2452373D01*
X5683402Y2432700D01*
X5727300D01*
Y2476598D01*
D02*
G37*
G36*
X6412700Y2466598D02*
Y2422700D01*
X6456598D01*
X6448449Y2442373D01*
X6432373Y2458449D01*
X6412700Y2466598D01*
D02*
G37*
G36*
X6387300D02*
X6367627Y2458449D01*
X6351550Y2442373D01*
X6343402Y2422700D01*
X6387300D01*
Y2466598D01*
D02*
G37*
G36*
X3259299Y2396750D02*
X3240701D01*
X3223518Y2389633D01*
X3218603Y2384717D01*
X3071397D01*
X3066482Y2389633D01*
X3049299Y2396750D01*
X3030701D01*
X3013518Y2389633D01*
X3000367Y2376482D01*
X2993250Y2359299D01*
Y2340701D01*
X3000367Y2323518D01*
X3013518Y2310367D01*
X3030701Y2303250D01*
X3049299D01*
X3066482Y2310367D01*
X3071397Y2315283D01*
X3218603D01*
X3223518Y2310367D01*
X3240701Y2303250D01*
X3259299D01*
X3276482Y2310367D01*
X3289633Y2323518D01*
X3296750Y2340701D01*
Y2359299D01*
X3289633Y2376482D01*
X3276482Y2389633D01*
X3259299Y2396750D01*
D02*
G37*
G36*
X5796598Y2407300D02*
X5752700D01*
Y2363402D01*
X5772373Y2371551D01*
X5788449Y2387627D01*
X5796598Y2407300D01*
D02*
G37*
G36*
X5727300D02*
X5683402D01*
X5691550Y2387627D01*
X5707627Y2371551D01*
X5727300Y2363402D01*
Y2407300D01*
D02*
G37*
G36*
X6456598Y2397300D02*
X6412700D01*
Y2353402D01*
X6432373Y2361551D01*
X6448449Y2377627D01*
X6456598Y2397300D01*
D02*
G37*
G36*
X6387300D02*
X6343402D01*
X6351550Y2377627D01*
X6367627Y2361551D01*
X6387300Y2353402D01*
Y2397300D01*
D02*
G37*
G36*
X1842610Y2136900D02*
X1841500D01*
Y2044700D01*
X1933700D01*
Y2045810D01*
X1926551Y2072490D01*
X1912741Y2096410D01*
X1893210Y2115941D01*
X1869290Y2129751D01*
X1842610Y2136900D01*
D02*
G37*
G36*
X1816100D02*
X1814990D01*
X1788310Y2129751D01*
X1764390Y2115941D01*
X1744859Y2096410D01*
X1731049Y2072490D01*
X1723900Y2045810D01*
Y2044700D01*
X1816100D01*
Y2136900D01*
D02*
G37*
G36*
X4635241Y2126500D02*
X4610359D01*
X4586324Y2120060D01*
X4564776Y2107619D01*
X4547181Y2090024D01*
X4534740Y2068476D01*
X4528300Y2044441D01*
Y2019559D01*
X4534740Y1995524D01*
X4547181Y1973976D01*
X4564776Y1956381D01*
X4586324Y1943940D01*
X4610359Y1937500D01*
X4635241D01*
X4659276Y1943940D01*
X4680824Y1956381D01*
X4698419Y1973976D01*
X4710860Y1995524D01*
X4717300Y2019559D01*
Y2044441D01*
X4710860Y2068476D01*
X4698419Y2090024D01*
X4680824Y2107619D01*
X4659276Y2120060D01*
X4635241Y2126500D01*
D02*
G37*
G36*
X4381241D02*
X4356359D01*
X4332324Y2120060D01*
X4310776Y2107619D01*
X4293181Y2090024D01*
X4280740Y2068476D01*
X4274300Y2044441D01*
Y2019559D01*
X4280740Y1995524D01*
X4293181Y1973976D01*
X4310776Y1956381D01*
X4332324Y1943940D01*
X4356359Y1937500D01*
X4381241D01*
X4405276Y1943940D01*
X4426824Y1956381D01*
X4444419Y1973976D01*
X4456860Y1995524D01*
X4463300Y2019559D01*
Y2044441D01*
X4456860Y2068476D01*
X4444419Y2090024D01*
X4426824Y2107619D01*
X4405276Y2120060D01*
X4381241Y2126500D01*
D02*
G37*
G36*
X4127241D02*
X4102359D01*
X4078324Y2120060D01*
X4056776Y2107619D01*
X4039181Y2090024D01*
X4026740Y2068476D01*
X4020300Y2044441D01*
Y2019559D01*
X4026740Y1995524D01*
X4039181Y1973976D01*
X4056776Y1956381D01*
X4078324Y1943940D01*
X4102359Y1937500D01*
X4127241D01*
X4151276Y1943940D01*
X4172824Y1956381D01*
X4190419Y1973976D01*
X4202860Y1995524D01*
X4209300Y2019559D01*
Y2044441D01*
X4202860Y2068476D01*
X4190419Y2090024D01*
X4172824Y2107619D01*
X4151276Y2120060D01*
X4127241Y2126500D01*
D02*
G37*
G36*
X3873241D02*
X3848359D01*
X3824324Y2120060D01*
X3802776Y2107619D01*
X3785181Y2090024D01*
X3772740Y2068476D01*
X3766300Y2044441D01*
Y2019559D01*
X3772740Y1995524D01*
X3785181Y1973976D01*
X3802776Y1956381D01*
X3824324Y1943940D01*
X3848359Y1937500D01*
X3873241D01*
X3897276Y1943940D01*
X3918824Y1956381D01*
X3936419Y1973976D01*
X3948860Y1995524D01*
X3955300Y2019559D01*
Y2044441D01*
X3948860Y2068476D01*
X3936419Y2090024D01*
X3918824Y2107619D01*
X3897276Y2120060D01*
X3873241Y2126500D01*
D02*
G37*
G36*
X3619241D02*
X3594359D01*
X3570324Y2120060D01*
X3548776Y2107619D01*
X3531181Y2090024D01*
X3518740Y2068476D01*
X3512300Y2044441D01*
Y2019559D01*
X3518740Y1995524D01*
X3531181Y1973976D01*
X3548776Y1956381D01*
X3570324Y1943940D01*
X3594359Y1937500D01*
X3619241D01*
X3643276Y1943940D01*
X3664824Y1956381D01*
X3682419Y1973976D01*
X3694860Y1995524D01*
X3701300Y2019559D01*
Y2044441D01*
X3694860Y2068476D01*
X3682419Y2090024D01*
X3664824Y2107619D01*
X3643276Y2120060D01*
X3619241Y2126500D01*
D02*
G37*
G36*
X2857241D02*
X2832359D01*
X2808324Y2120060D01*
X2786776Y2107619D01*
X2769181Y2090024D01*
X2756740Y2068476D01*
X2750300Y2044441D01*
Y2019559D01*
X2756740Y1995524D01*
X2769181Y1973976D01*
X2786776Y1956381D01*
X2808324Y1943940D01*
X2832359Y1937500D01*
X2857241D01*
X2881276Y1943940D01*
X2902824Y1956381D01*
X2920419Y1973976D01*
X2932860Y1995524D01*
X2939300Y2019559D01*
Y2044441D01*
X2932860Y2068476D01*
X2920419Y2090024D01*
X2902824Y2107619D01*
X2881276Y2120060D01*
X2857241Y2126500D01*
D02*
G37*
G36*
X2603241D02*
X2578359D01*
X2554324Y2120060D01*
X2532776Y2107619D01*
X2515181Y2090024D01*
X2502740Y2068476D01*
X2496300Y2044441D01*
Y2019559D01*
X2502740Y1995524D01*
X2515181Y1973976D01*
X2532776Y1956381D01*
X2554324Y1943940D01*
X2578359Y1937500D01*
X2603241D01*
X2627276Y1943940D01*
X2648824Y1956381D01*
X2666419Y1973976D01*
X2678860Y1995524D01*
X2685300Y2019559D01*
Y2044441D01*
X2678860Y2068476D01*
X2666419Y2090024D01*
X2648824Y2107619D01*
X2627276Y2120060D01*
X2603241Y2126500D01*
D02*
G37*
G36*
X1587241D02*
X1562359D01*
X1538324Y2120060D01*
X1516776Y2107619D01*
X1499181Y2090024D01*
X1486740Y2068476D01*
X1480300Y2044441D01*
Y2019559D01*
X1486740Y1995524D01*
X1499181Y1973976D01*
X1516776Y1956381D01*
X1538324Y1943940D01*
X1562359Y1937500D01*
X1587241D01*
X1611276Y1943940D01*
X1632824Y1956381D01*
X1650419Y1973976D01*
X1662860Y1995524D01*
X1669300Y2019559D01*
Y2044441D01*
X1662860Y2068476D01*
X1650419Y2090024D01*
X1632824Y2107619D01*
X1611276Y2120060D01*
X1587241Y2126500D01*
D02*
G37*
G36*
X1333241D02*
X1308359D01*
X1284324Y2120060D01*
X1262776Y2107619D01*
X1245181Y2090024D01*
X1232740Y2068476D01*
X1226300Y2044441D01*
Y2019559D01*
X1232740Y1995524D01*
X1245181Y1973976D01*
X1262776Y1956381D01*
X1284324Y1943940D01*
X1308359Y1937500D01*
X1333241D01*
X1357276Y1943940D01*
X1378824Y1956381D01*
X1396419Y1973976D01*
X1408860Y1995524D01*
X1415300Y2019559D01*
Y2044441D01*
X1408860Y2068476D01*
X1396419Y2090024D01*
X1378824Y2107619D01*
X1357276Y2120060D01*
X1333241Y2126500D01*
D02*
G37*
G36*
X1161300D02*
X972300D01*
Y1937500D01*
X1161300D01*
Y2126500D01*
D02*
G37*
G36*
X1933700Y2019300D02*
X1841500D01*
Y1927100D01*
X1842610D01*
X1869290Y1934249D01*
X1893210Y1948059D01*
X1912741Y1967590D01*
X1926551Y1991510D01*
X1933700Y2018190D01*
Y2019300D01*
D02*
G37*
G36*
X1816100D02*
X1723900D01*
Y2018190D01*
X1731049Y1991510D01*
X1744859Y1967590D01*
X1764390Y1948059D01*
X1788310Y1934249D01*
X1814990Y1927100D01*
X1816100D01*
Y2019300D01*
D02*
G37*
G36*
X6622200Y2125400D02*
X6612700D01*
Y1912700D01*
X6825400D01*
Y1922200D01*
X6816738Y1965747D01*
X6799747Y2006767D01*
X6775080Y2043684D01*
X6743684Y2075080D01*
X6706767Y2099747D01*
X6665747Y2116738D01*
X6622200Y2125400D01*
D02*
G37*
G36*
X6587300D02*
X6577800D01*
X6534253Y2116738D01*
X6493233Y2099747D01*
X6456316Y2075080D01*
X6424920Y2043684D01*
X6400253Y2006767D01*
X6383262Y1965747D01*
X6374600Y1922200D01*
Y1912700D01*
X6587300D01*
Y2125400D01*
D02*
G37*
G36*
X2349241Y2126500D02*
X2324359D01*
X2300324Y2120060D01*
X2278776Y2107619D01*
X2261181Y2090024D01*
X2248740Y2068476D01*
X2242300Y2044441D01*
Y2019559D01*
X2248740Y1995524D01*
X2261181Y1973976D01*
X2278776Y1956381D01*
X2300324Y1943940D01*
X2303683Y1943040D01*
Y1759798D01*
X2300367Y1756482D01*
X2293250Y1739299D01*
Y1720701D01*
X2300367Y1703518D01*
X2313518Y1690367D01*
X2330701Y1683250D01*
X2349299D01*
X2366482Y1690367D01*
X2379633Y1703518D01*
X2386750Y1720701D01*
Y1739299D01*
X2379633Y1756482D01*
X2373117Y1762997D01*
Y1943898D01*
X2373276Y1943940D01*
X2394824Y1956381D01*
X2412419Y1973976D01*
X2424860Y1995524D01*
X2431300Y2019559D01*
Y2044441D01*
X2424860Y2068476D01*
X2412419Y2090024D01*
X2394824Y2107619D01*
X2373276Y2120060D01*
X2349241Y2126500D01*
D02*
G37*
G36*
X2095241D02*
X2070359D01*
X2046324Y2120060D01*
X2024776Y2107619D01*
X2007181Y2090024D01*
X1994740Y2068476D01*
X1988300Y2044441D01*
Y2019559D01*
X1994740Y1995524D01*
X2007181Y1973976D01*
X2024776Y1956381D01*
X2046324Y1943940D01*
X2046683Y1943844D01*
Y1762798D01*
X2040367Y1756482D01*
X2033250Y1739299D01*
Y1720701D01*
X2040367Y1703518D01*
X2053518Y1690367D01*
X2070701Y1683250D01*
X2089299D01*
X2106482Y1690367D01*
X2119633Y1703518D01*
X2126750Y1720701D01*
Y1739299D01*
X2119633Y1756482D01*
X2116117Y1759997D01*
Y1943094D01*
X2119276Y1943940D01*
X2140824Y1956381D01*
X2158419Y1973976D01*
X2170860Y1995524D01*
X2177300Y2019559D01*
Y2044441D01*
X2170860Y2068476D01*
X2158419Y2090024D01*
X2140824Y2107619D01*
X2119276Y2120060D01*
X2095241Y2126500D01*
D02*
G37*
G36*
X6825400Y1887300D02*
X6612700D01*
Y1674600D01*
X6622200D01*
X6665747Y1683262D01*
X6706767Y1700253D01*
X6743684Y1724920D01*
X6775080Y1756316D01*
X6799747Y1793233D01*
X6816738Y1834253D01*
X6825400Y1877800D01*
Y1887300D01*
D02*
G37*
G36*
X6587300D02*
X6374600D01*
Y1877800D01*
X6383262Y1834253D01*
X6400253Y1793233D01*
X6424920Y1756316D01*
X6456316Y1724920D01*
X6493233Y1700253D01*
X6534253Y1683262D01*
X6577800Y1674600D01*
X6587300D01*
Y1887300D01*
D02*
G37*
G36*
X1652200Y1725400D02*
X1642700D01*
Y1512700D01*
X1855400D01*
Y1522200D01*
X1846738Y1565747D01*
X1829747Y1606767D01*
X1805080Y1643684D01*
X1773684Y1675080D01*
X1736767Y1699747D01*
X1695747Y1716738D01*
X1652200Y1725400D01*
D02*
G37*
G36*
X1617300D02*
X1607800D01*
X1564253Y1716738D01*
X1523233Y1699747D01*
X1486316Y1675080D01*
X1454920Y1643684D01*
X1430253Y1606767D01*
X1413262Y1565747D01*
X1404600Y1522200D01*
Y1512700D01*
X1617300D01*
Y1725400D01*
D02*
G37*
G36*
X3111241Y2126500D02*
X3086359D01*
X3062324Y2120060D01*
X3040776Y2107619D01*
X3023181Y2090024D01*
X3010740Y2068476D01*
X3004300Y2044441D01*
Y2019559D01*
X3010740Y1995524D01*
X3023181Y1973976D01*
X3040776Y1956381D01*
X3062324Y1943940D01*
X3064083Y1943469D01*
Y1379867D01*
X3063518Y1379633D01*
X3050367Y1366482D01*
X3043250Y1349299D01*
Y1330701D01*
X3050367Y1313518D01*
X3063518Y1300367D01*
X3080701Y1293250D01*
X3099299D01*
X3116482Y1300367D01*
X3129633Y1313518D01*
X3136750Y1330701D01*
Y1349299D01*
X3133517Y1357104D01*
Y1943469D01*
X3135276Y1943940D01*
X3156824Y1956381D01*
X3174419Y1973976D01*
X3186860Y1995524D01*
X3193300Y2019559D01*
Y2044441D01*
X3186860Y2068476D01*
X3174419Y2090024D01*
X3156824Y2107619D01*
X3135276Y2120060D01*
X3111241Y2126500D01*
D02*
G37*
G36*
X1617300Y1487300D02*
X1404600D01*
Y1477800D01*
X1413262Y1434253D01*
X1430253Y1393233D01*
X1454920Y1356316D01*
X1486316Y1324920D01*
X1523233Y1300253D01*
X1564253Y1283262D01*
X1607800Y1274600D01*
X1617300D01*
Y1487300D01*
D02*
G37*
G36*
X3365241Y2126500D02*
X3340359D01*
X3316324Y2120060D01*
X3294776Y2107619D01*
X3277181Y2090024D01*
X3264740Y2068476D01*
X3258300Y2044441D01*
Y2019559D01*
X3264740Y1995524D01*
X3277181Y1973976D01*
X3294776Y1956381D01*
X3316324Y1943940D01*
X3316683Y1943844D01*
Y1282798D01*
X3310367Y1276482D01*
X3303250Y1259299D01*
Y1240701D01*
X3310367Y1223518D01*
X3323518Y1210367D01*
X3340701Y1203250D01*
X3359299D01*
X3376482Y1210367D01*
X3389633Y1223518D01*
X3396750Y1240701D01*
Y1259299D01*
X3389633Y1276482D01*
X3386117Y1279997D01*
Y1943094D01*
X3389276Y1943940D01*
X3410824Y1956381D01*
X3428419Y1973976D01*
X3440860Y1995524D01*
X3447300Y2019559D01*
Y2044441D01*
X3440860Y2068476D01*
X3428419Y2090024D01*
X3410824Y2107619D01*
X3389276Y2120060D01*
X3365241Y2126500D01*
D02*
G37*
G36*
X5659299Y1406750D02*
X5640701D01*
X5623518Y1399633D01*
X5610367Y1386482D01*
X5603250Y1369299D01*
Y1350701D01*
X5610367Y1333518D01*
X5617783Y1326103D01*
Y1295000D01*
X5600000D01*
Y1165000D01*
X5619663D01*
Y1011215D01*
X5622305Y997930D01*
X5629831Y986667D01*
X5662782Y953716D01*
X5655886Y941770D01*
X5650100Y920177D01*
Y897823D01*
X5655886Y876230D01*
X5667063Y856870D01*
X5682870Y841063D01*
X5702230Y829886D01*
X5723823Y824100D01*
X5746177D01*
X5767770Y829886D01*
X5787130Y841063D01*
X5802937Y856870D01*
X5814114Y876230D01*
X5819900Y897823D01*
Y920177D01*
X5814114Y941770D01*
X5802937Y961130D01*
X5787130Y976937D01*
X5767770Y988114D01*
X5746177Y993900D01*
X5723823D01*
X5721433Y993260D01*
X5689097Y1025596D01*
Y1165000D01*
X5710000D01*
Y1295000D01*
X5687217D01*
Y1331102D01*
X5689633Y1333518D01*
X5696750Y1350701D01*
Y1369299D01*
X5689633Y1386482D01*
X5676482Y1399633D01*
X5659299Y1406750D01*
D02*
G37*
G36*
X3919299D02*
X3900701D01*
X3883518Y1399633D01*
X3870367Y1386482D01*
X3863250Y1369299D01*
Y1350701D01*
X3870367Y1333518D01*
X3877783Y1326103D01*
Y1295000D01*
X3860000D01*
Y1165000D01*
X3879763D01*
Y1008675D01*
X3882405Y995390D01*
X3889931Y984127D01*
X3921889Y952169D01*
X3915886Y941770D01*
X3910100Y920177D01*
Y897823D01*
X3915886Y876230D01*
X3927063Y856870D01*
X3942870Y841063D01*
X3962230Y829886D01*
X3983823Y824100D01*
X4006177D01*
X4027770Y829886D01*
X4047130Y841063D01*
X4062937Y856870D01*
X4074114Y876230D01*
X4079900Y897823D01*
Y920177D01*
X4074114Y941770D01*
X4062937Y961130D01*
X4047130Y976937D01*
X4027770Y988114D01*
X4006177Y993900D01*
X3983823D01*
X3979508Y992744D01*
X3949197Y1023056D01*
Y1165000D01*
X3970000D01*
Y1295000D01*
X3947217D01*
Y1331102D01*
X3949633Y1333518D01*
X3956750Y1350701D01*
Y1369299D01*
X3949633Y1386482D01*
X3936482Y1399633D01*
X3919299Y1406750D01*
D02*
G37*
G36*
X569299Y1616750D02*
X550701D01*
X533518Y1609633D01*
X520367Y1596482D01*
X513250Y1579299D01*
Y1560701D01*
X520367Y1543518D01*
X533518Y1530367D01*
X550701Y1523250D01*
X557653D01*
X595283Y1485620D01*
Y1421397D01*
X590367Y1416482D01*
X583250Y1399299D01*
Y1385474D01*
X580451Y1382675D01*
X572925Y1371412D01*
X570283Y1358127D01*
Y1295000D01*
X550000D01*
Y1165000D01*
X660000D01*
Y1195283D01*
X740000D01*
Y1165000D01*
X770025D01*
Y870798D01*
X770547Y868174D01*
Y829332D01*
X773169Y816147D01*
X780638Y804969D01*
X791815Y797501D01*
X805000Y794878D01*
X818185Y797501D01*
X829362Y804969D01*
X837793Y797862D01*
X838139Y797473D01*
X838140Y797471D01*
X848430Y790596D01*
X848565Y790244D01*
Y776836D01*
X848430Y776484D01*
X838140Y769609D01*
X838139Y769607D01*
X837793Y769218D01*
X829362Y762110D01*
X818185Y769579D01*
X805000Y772202D01*
X791815Y769579D01*
X780638Y762110D01*
X773169Y750933D01*
X770547Y737748D01*
Y697866D01*
X770283Y696540D01*
Y610337D01*
X765547Y605602D01*
X758430Y588419D01*
Y569821D01*
X765547Y552638D01*
X778698Y539487D01*
X795881Y532370D01*
X814479D01*
X831662Y539487D01*
X844813Y552638D01*
X851930Y569821D01*
Y588419D01*
X845842Y603116D01*
X850554Y610329D01*
X854283Y613401D01*
X857300Y612800D01*
Y696540D01*
X882700D01*
Y612800D01*
X887243Y613704D01*
X889341Y615106D01*
X900541Y609119D01*
Y603982D01*
X903184Y590696D01*
X910710Y579433D01*
X933031Y557111D01*
X944295Y549585D01*
X957580Y546943D01*
X1042120D01*
X1055406Y549586D01*
X1066669Y557111D01*
X1083990Y574433D01*
X1154150D01*
X1157503Y575100D01*
X1289900D01*
Y744900D01*
X1120100D01*
Y643867D01*
X1104327D01*
Y880390D01*
X1101684Y893676D01*
X1094159Y904939D01*
X979717Y1019380D01*
Y1165000D01*
X999063D01*
X1000000Y1165000D01*
X1011763Y1162738D01*
Y1067520D01*
X1014406Y1054234D01*
X1021931Y1042971D01*
X1125304Y939599D01*
X1120100Y920177D01*
Y897823D01*
X1125886Y876230D01*
X1137063Y856870D01*
X1152870Y841063D01*
X1172230Y829886D01*
X1193823Y824100D01*
X1216177D01*
X1237770Y829886D01*
X1257130Y841063D01*
X1272937Y856870D01*
X1284114Y876230D01*
X1289900Y897823D01*
Y920177D01*
X1284114Y941770D01*
X1272937Y961130D01*
X1257130Y976937D01*
X1237770Y988114D01*
X1216177Y993900D01*
X1193823D01*
X1174401Y988696D01*
X1081197Y1081900D01*
Y1328520D01*
X1078555Y1341806D01*
X1071029Y1353069D01*
X1000000Y1424097D01*
Y1505000D01*
X979717D01*
Y1523603D01*
X989633Y1533518D01*
X996750Y1550701D01*
Y1569299D01*
X989633Y1586482D01*
X976482Y1599633D01*
X959299Y1606750D01*
X940701D01*
X923518Y1599633D01*
X910367Y1586482D01*
X903250Y1569299D01*
Y1550701D01*
X910283Y1533721D01*
Y1505000D01*
X890000D01*
Y1375000D01*
X950903D01*
X1011763Y1314140D01*
Y1297262D01*
X1000000Y1295000D01*
X999063Y1295000D01*
X890000D01*
Y1165000D01*
X910283D01*
Y1005000D01*
X912926Y991714D01*
X920452Y980451D01*
X943436Y957467D01*
X937180Y945763D01*
X935000Y946196D01*
X921929Y943596D01*
X910848Y936192D01*
X902171Y943279D01*
X901861Y943607D01*
X901860Y943609D01*
X887243Y953376D01*
X882700Y954280D01*
Y870540D01*
X857300D01*
Y954280D01*
X852757Y953376D01*
X850659Y951974D01*
X839459Y957961D01*
Y1165000D01*
X850000D01*
Y1295000D01*
X740000D01*
Y1264717D01*
X660000D01*
Y1295000D01*
X639717D01*
Y1343423D01*
X656482Y1350367D01*
X669633Y1363518D01*
X676750Y1380701D01*
Y1380780D01*
X701253Y1405283D01*
X740000D01*
Y1375000D01*
X850000D01*
Y1505000D01*
X740000D01*
Y1474717D01*
X686873D01*
X677417Y1472836D01*
X664717Y1480259D01*
Y1500000D01*
X662075Y1513285D01*
X654549Y1524548D01*
X606750Y1572347D01*
Y1579299D01*
X599633Y1596482D01*
X586482Y1609633D01*
X569299Y1616750D01*
D02*
G37*
G36*
X469299Y1406750D02*
X450701D01*
X433518Y1399633D01*
X420367Y1386482D01*
X413250Y1369299D01*
Y1350701D01*
X420367Y1333518D01*
X422783Y1331103D01*
Y1295000D01*
X400000D01*
Y1165000D01*
X420283D01*
Y1008675D01*
X422925Y995390D01*
X430451Y984127D01*
X462080Y952498D01*
X455886Y941770D01*
X450100Y920177D01*
Y897823D01*
X455886Y876230D01*
X467063Y856870D01*
X482870Y841063D01*
X502230Y829886D01*
X523823Y824100D01*
X546177D01*
X567770Y829886D01*
X587130Y841063D01*
X602937Y856870D01*
X614114Y876230D01*
X619900Y897823D01*
Y920177D01*
X614114Y941770D01*
X602937Y961130D01*
X587130Y976937D01*
X567770Y988114D01*
X546177Y993900D01*
X523823D01*
X519919Y992854D01*
X489717Y1023056D01*
Y1165000D01*
X510000D01*
Y1295000D01*
X492217D01*
Y1326103D01*
X499633Y1333518D01*
X506750Y1350701D01*
Y1369299D01*
X499633Y1386482D01*
X486482Y1399633D01*
X469299Y1406750D01*
D02*
G37*
G36*
X547700Y755259D02*
Y672700D01*
X630259D01*
X623805Y696784D01*
X611259Y718516D01*
X593516Y736259D01*
X571784Y748805D01*
X547700Y755259D01*
D02*
G37*
G36*
X5747700D02*
Y672700D01*
X5830259D01*
X5823805Y696784D01*
X5811259Y718516D01*
X5793516Y736259D01*
X5771784Y748805D01*
X5747700Y755259D01*
D02*
G37*
G36*
X4007700D02*
Y672700D01*
X4090259D01*
X4083805Y696784D01*
X4071259Y718516D01*
X4053516Y736259D01*
X4031784Y748805D01*
X4007700Y755259D01*
D02*
G37*
G36*
X2277700D02*
Y672700D01*
X2360259D01*
X2353805Y696784D01*
X2341259Y718516D01*
X2323516Y736259D01*
X2301784Y748805D01*
X2277700Y755259D01*
D02*
G37*
G36*
X522300D02*
X498215Y748805D01*
X476484Y736259D01*
X458741Y718516D01*
X446194Y696784D01*
X439741Y672700D01*
X522300D01*
Y755259D01*
D02*
G37*
G36*
X5722300D02*
X5698215Y748805D01*
X5676484Y736259D01*
X5658741Y718516D01*
X5646194Y696784D01*
X5639741Y672700D01*
X5722300D01*
Y755259D01*
D02*
G37*
G36*
X3982300D02*
X3958215Y748805D01*
X3936484Y736259D01*
X3918741Y718516D01*
X3906194Y696784D01*
X3899741Y672700D01*
X3982300D01*
Y755259D01*
D02*
G37*
G36*
X2252300D02*
X2228215Y748805D01*
X2206484Y736259D01*
X2188741Y718516D01*
X2176194Y696784D01*
X2169741Y672700D01*
X2252300D01*
Y755259D01*
D02*
G37*
G36*
X6154299Y1606750D02*
X6135701D01*
X6118518Y1599633D01*
X6105368Y1586482D01*
X6098250Y1569299D01*
Y1550701D01*
X6105368Y1533518D01*
X6110283Y1528602D01*
Y1505000D01*
X6090000D01*
Y1375000D01*
X6152823D01*
X6211143Y1316680D01*
Y1298759D01*
X6200000Y1295000D01*
X6198443Y1295000D01*
X6090000D01*
Y1165000D01*
X6110283D01*
Y1045000D01*
X6112926Y1031714D01*
X6120452Y1020451D01*
X6234273Y906630D01*
Y626070D01*
X6227120Y618917D01*
X6171340D01*
X6169355Y620902D01*
Y698822D01*
X6168791Y701656D01*
Y766179D01*
X6168792Y766179D01*
X6167716Y778879D01*
X6169453Y787613D01*
Y896416D01*
X6166831Y909601D01*
X6159362Y920778D01*
X6148185Y928247D01*
X6135000Y930869D01*
X6121815Y928247D01*
X6110638Y920778D01*
X6102208Y927886D01*
X6101861Y928275D01*
X6101860Y928276D01*
X6087243Y938044D01*
X6082700Y938947D01*
Y842014D01*
X6057300D01*
Y938947D01*
X6052757Y938044D01*
X6050039Y936227D01*
X6038839Y942214D01*
Y1165000D01*
X6050000D01*
Y1295000D01*
X6029097D01*
Y1375000D01*
X6050000D01*
Y1505000D01*
X5940000D01*
Y1499857D01*
X5686257D01*
X5676482Y1509632D01*
X5659299Y1516750D01*
X5640701D01*
X5623518Y1509632D01*
X5610367Y1496482D01*
X5603250Y1479299D01*
Y1460701D01*
X5610367Y1443518D01*
X5623518Y1430367D01*
X5640701Y1423250D01*
X5659299D01*
X5676482Y1430367D01*
X5676538Y1430423D01*
X5940000D01*
Y1375000D01*
X5959663D01*
Y1295000D01*
X5940000D01*
Y1267257D01*
X5860000D01*
Y1295000D01*
X5750000D01*
Y1165000D01*
X5860000D01*
Y1197823D01*
X5940000D01*
Y1165000D01*
X5969405D01*
Y873338D01*
X5970547Y867597D01*
Y787613D01*
X5973169Y774428D01*
X5980638Y763251D01*
X5976585Y750684D01*
X5973169Y745572D01*
X5970547Y732387D01*
Y703523D01*
X5969663Y699080D01*
Y612877D01*
X5964927Y608142D01*
X5957810Y590959D01*
Y572361D01*
X5964927Y555178D01*
X5978078Y542027D01*
X5995261Y534910D01*
X6013859D01*
X6031042Y542027D01*
X6044193Y555178D01*
X6051310Y572361D01*
X6057300Y575831D01*
Y677986D01*
X6082700D01*
Y581053D01*
X6087243Y581956D01*
X6093613Y586213D01*
X6109593Y582717D01*
X6110090Y581973D01*
X6132411Y559651D01*
X6143675Y552125D01*
X6156960Y549483D01*
X6241500D01*
X6254786Y552126D01*
X6266049Y559651D01*
X6283370Y576973D01*
X6320100D01*
Y575100D01*
X6489900D01*
Y744900D01*
X6320100D01*
Y646407D01*
X6303707D01*
Y921010D01*
X6301064Y934296D01*
X6293539Y945558D01*
X6179717Y1059380D01*
Y1165000D01*
X6198443D01*
X6200000Y1165000D01*
X6211143Y1161241D01*
Y1070060D01*
X6213786Y1056774D01*
X6221311Y1045511D01*
X6325710Y941113D01*
X6320100Y920177D01*
Y897823D01*
X6325886Y876230D01*
X6337063Y856870D01*
X6352870Y841063D01*
X6372230Y829886D01*
X6393823Y824100D01*
X6416177D01*
X6437770Y829886D01*
X6457130Y841063D01*
X6472937Y856870D01*
X6484114Y876230D01*
X6489900Y897823D01*
Y920177D01*
X6484114Y941770D01*
X6472937Y961130D01*
X6457130Y976937D01*
X6437770Y988114D01*
X6416177Y993900D01*
X6393823D01*
X6375916Y989102D01*
X6280577Y1084440D01*
Y1331060D01*
X6277935Y1344346D01*
X6270409Y1355609D01*
X6200000Y1426017D01*
Y1505000D01*
X6179717D01*
Y1528602D01*
X6184633Y1533518D01*
X6191750Y1550701D01*
Y1569299D01*
X6184633Y1586482D01*
X6171482Y1599633D01*
X6154299Y1606750D01*
D02*
G37*
G36*
X2689299D02*
X2670701D01*
X2653518Y1599633D01*
X2640367Y1586482D01*
X2633250Y1569299D01*
Y1550701D01*
X2640283Y1533722D01*
Y1505000D01*
X2620000D01*
Y1375000D01*
X2683183D01*
X2741503Y1316680D01*
Y1297889D01*
X2730000Y1295000D01*
X2728803Y1295000D01*
X2620000D01*
Y1165000D01*
X2640283D01*
Y1025000D01*
X2642926Y1011715D01*
X2650451Y1000452D01*
X2764633Y886270D01*
Y626070D01*
X2757480Y618917D01*
X2701700D01*
X2699715Y620902D01*
Y698822D01*
X2698791Y703467D01*
Y766179D01*
X2698791Y766179D01*
X2697716Y778879D01*
X2699453Y787613D01*
Y896416D01*
X2696831Y909601D01*
X2689362Y920778D01*
X2678184Y928247D01*
X2665000Y930869D01*
X2651815Y928247D01*
X2640638Y920778D01*
X2632207Y927886D01*
X2631861Y928275D01*
X2631860Y928276D01*
X2617243Y938044D01*
X2612700Y938947D01*
Y842014D01*
X2587300D01*
Y938947D01*
X2582757Y938044D01*
X2580399Y936468D01*
X2569199Y942455D01*
Y1165000D01*
X2580000D01*
Y1295000D01*
X2559457D01*
Y1375000D01*
X2580000D01*
Y1505000D01*
X2470000D01*
Y1469577D01*
X2406538D01*
X2406482Y1469633D01*
X2389299Y1476750D01*
X2370701D01*
X2353518Y1469633D01*
X2348603Y1464717D01*
X1931397D01*
X1926482Y1469633D01*
X1909299Y1476750D01*
X1890701D01*
X1873518Y1469633D01*
X1865037Y1461152D01*
X1853333Y1467408D01*
X1855400Y1477800D01*
Y1487300D01*
X1642700D01*
Y1274600D01*
X1652200D01*
X1695747Y1283262D01*
X1736767Y1300253D01*
X1773684Y1324920D01*
X1805080Y1356316D01*
X1829747Y1393233D01*
X1840837Y1420007D01*
X1847095Y1420357D01*
X1854060Y1418744D01*
X1860367Y1403518D01*
X1873518Y1390367D01*
X1890701Y1383250D01*
X1909299D01*
X1926482Y1390367D01*
X1931397Y1395283D01*
X2132575D01*
X2138752Y1382583D01*
X2133250Y1369299D01*
Y1350701D01*
X2140367Y1333518D01*
X2147783Y1326103D01*
Y1295000D01*
X2130000D01*
Y1165000D01*
X2150023D01*
Y1011215D01*
X2152665Y997930D01*
X2160191Y986667D01*
X2192914Y953944D01*
X2185886Y941770D01*
X2180100Y920177D01*
Y897823D01*
X2185886Y876230D01*
X2197063Y856870D01*
X2212870Y841063D01*
X2232230Y829886D01*
X2253823Y824100D01*
X2276177D01*
X2297770Y829886D01*
X2317129Y841063D01*
X2332937Y856870D01*
X2344114Y876230D01*
X2349900Y897823D01*
Y920177D01*
X2344114Y941770D01*
X2332937Y961130D01*
X2317129Y976937D01*
X2297770Y988114D01*
X2276177Y993900D01*
X2253823D01*
X2251717Y993336D01*
X2219457Y1025596D01*
Y1165000D01*
X2240000D01*
Y1295000D01*
X2217217D01*
Y1331103D01*
X2219633Y1333518D01*
X2226750Y1350701D01*
Y1369299D01*
X2221248Y1382583D01*
X2227425Y1395283D01*
X2348603D01*
X2353518Y1390367D01*
X2370701Y1383250D01*
X2389299D01*
X2406482Y1390367D01*
X2416257Y1400143D01*
X2470000D01*
Y1375000D01*
X2490023D01*
Y1295000D01*
X2470000D01*
Y1267257D01*
X2390000D01*
Y1295000D01*
X2280000D01*
Y1165000D01*
X2390000D01*
Y1197823D01*
X2470000D01*
Y1165000D01*
X2499765D01*
Y873338D01*
X2500546Y869408D01*
Y787613D01*
X2503169Y774428D01*
X2510638Y763251D01*
Y756749D01*
X2503169Y745572D01*
X2500546Y732387D01*
Y701712D01*
X2500023Y699080D01*
Y612877D01*
X2495287Y608142D01*
X2488170Y590959D01*
Y572361D01*
X2495287Y555178D01*
X2508438Y542027D01*
X2525621Y534910D01*
X2544219D01*
X2561402Y542027D01*
X2574553Y555178D01*
X2581670Y572361D01*
X2587300Y575590D01*
Y677986D01*
X2612700D01*
Y581053D01*
X2617243Y581956D01*
X2623931Y586426D01*
X2639773Y582986D01*
X2640450Y581973D01*
X2662771Y559651D01*
X2674035Y552125D01*
X2687320Y549483D01*
X2771860D01*
X2785146Y552126D01*
X2796409Y559651D01*
X2813730Y576973D01*
X2850100D01*
Y575100D01*
X3019900D01*
Y744900D01*
X2850100D01*
Y646407D01*
X2834067D01*
Y900650D01*
X2831424Y913936D01*
X2823899Y925199D01*
X2709717Y1039380D01*
Y1165000D01*
X2728803D01*
X2730000Y1165000D01*
X2741503Y1162111D01*
Y1070060D01*
X2744146Y1056774D01*
X2751671Y1045511D01*
X2855786Y941397D01*
X2850100Y920177D01*
Y897823D01*
X2855886Y876230D01*
X2867063Y856870D01*
X2882870Y841063D01*
X2902230Y829886D01*
X2923823Y824100D01*
X2946177D01*
X2967770Y829886D01*
X2987130Y841063D01*
X3002937Y856870D01*
X3014114Y876230D01*
X3019900Y897823D01*
Y920177D01*
X3014114Y941770D01*
X3002937Y961130D01*
X2987130Y976937D01*
X2967770Y988114D01*
X2946177Y993900D01*
X2923823D01*
X2906199Y989178D01*
X2810937Y1084440D01*
Y1331060D01*
X2808295Y1344346D01*
X2800769Y1355609D01*
X2730000Y1426377D01*
Y1505000D01*
X2709717D01*
Y1523602D01*
X2719633Y1533518D01*
X2726750Y1550701D01*
Y1569299D01*
X2719633Y1586482D01*
X2706482Y1599633D01*
X2689299Y1606750D01*
D02*
G37*
G36*
X4416199D02*
X4397601D01*
X4380418Y1599633D01*
X4367267Y1586482D01*
X4360150Y1569299D01*
Y1550701D01*
X4367267Y1533518D01*
X4370283Y1530502D01*
Y1505000D01*
X4350000D01*
Y1375000D01*
X4410383D01*
X4471243Y1314140D01*
Y1298518D01*
X4460000Y1295000D01*
X4458543Y1295000D01*
X4350000D01*
Y1165000D01*
X4370283D01*
Y1045000D01*
X4372926Y1031714D01*
X4380451Y1020451D01*
X4494373Y906530D01*
Y623530D01*
X4487220Y616377D01*
X4431440D01*
X4429455Y618362D01*
Y696282D01*
X4428791Y699620D01*
Y766179D01*
X4428791Y766179D01*
X4427716Y778879D01*
X4429453Y787613D01*
Y896416D01*
X4426831Y909601D01*
X4419362Y920778D01*
X4408184Y928247D01*
X4395000Y930869D01*
X4381815Y928247D01*
X4370638Y920778D01*
X4362207Y927886D01*
X4361861Y928275D01*
X4361860Y928276D01*
X4347243Y938044D01*
X4342700Y938947D01*
Y842014D01*
X4317300D01*
Y938947D01*
X4312757Y938044D01*
X4310139Y936294D01*
X4298939Y942281D01*
Y1165000D01*
X4310000D01*
Y1295000D01*
X4289197D01*
Y1375000D01*
X4310000D01*
Y1505000D01*
X4200000D01*
Y1375000D01*
X4219763D01*
Y1295000D01*
X4200000D01*
Y1264717D01*
X4120000D01*
Y1295000D01*
X4102217D01*
Y1356102D01*
X4109633Y1363518D01*
X4116750Y1380701D01*
Y1399299D01*
X4109633Y1416482D01*
X4096482Y1429633D01*
X4079299Y1436750D01*
X4067347D01*
X3986750Y1517347D01*
Y1519299D01*
X3979633Y1536482D01*
X3966482Y1549633D01*
X3949299Y1556750D01*
X3930701D01*
X3913518Y1549633D01*
X3900367Y1536482D01*
X3893250Y1519299D01*
Y1500701D01*
X3900367Y1483518D01*
X3913518Y1470367D01*
X3930701Y1463250D01*
X3942653D01*
X4023250Y1382653D01*
Y1380701D01*
X4030367Y1363518D01*
X4032783Y1361103D01*
Y1295000D01*
X4010000D01*
Y1165000D01*
X4120000D01*
Y1195283D01*
X4200000D01*
Y1165000D01*
X4229505D01*
Y870798D01*
X4230547Y865560D01*
Y787613D01*
X4233169Y774428D01*
X4240638Y763251D01*
Y756749D01*
X4233169Y745572D01*
X4230547Y732387D01*
Y700479D01*
X4229763Y696540D01*
Y610337D01*
X4225027Y605602D01*
X4217910Y588419D01*
Y569821D01*
X4225027Y552638D01*
X4238178Y539487D01*
X4255361Y532370D01*
X4273959D01*
X4291142Y539487D01*
X4304293Y552638D01*
X4311410Y569821D01*
X4317300Y574402D01*
Y677986D01*
X4342700D01*
Y581053D01*
X4347243Y581956D01*
X4352204Y585271D01*
X4368794Y581522D01*
X4370190Y579433D01*
X4392511Y557111D01*
X4403775Y549585D01*
X4417060Y546943D01*
X4501600D01*
X4514886Y549586D01*
X4526149Y557111D01*
X4543470Y574433D01*
X4613630D01*
X4616983Y575100D01*
X4749900D01*
Y744900D01*
X4580100D01*
Y643867D01*
X4563807D01*
Y920910D01*
X4561164Y934196D01*
X4553639Y945459D01*
X4439717Y1059380D01*
Y1165000D01*
X4458543D01*
X4460000Y1165000D01*
X4471243Y1161483D01*
Y1067520D01*
X4473886Y1054234D01*
X4481411Y1042971D01*
X4585194Y939189D01*
X4580100Y920177D01*
Y897823D01*
X4585886Y876230D01*
X4597063Y856870D01*
X4612870Y841063D01*
X4632230Y829886D01*
X4653823Y824100D01*
X4676177D01*
X4697770Y829886D01*
X4717130Y841063D01*
X4732937Y856870D01*
X4744114Y876230D01*
X4749900Y897823D01*
Y920177D01*
X4744114Y941770D01*
X4732937Y961130D01*
X4717130Y976937D01*
X4697770Y988114D01*
X4676177Y993900D01*
X4653823D01*
X4633991Y988586D01*
X4540677Y1081900D01*
Y1328520D01*
X4538035Y1341806D01*
X4530509Y1353069D01*
X4460000Y1423577D01*
Y1505000D01*
X4439717D01*
Y1526703D01*
X4446533Y1533518D01*
X4453650Y1550701D01*
Y1569299D01*
X4446533Y1586482D01*
X4433382Y1599633D01*
X4416199Y1606750D01*
D02*
G37*
G36*
X5830259Y647300D02*
X5747700D01*
Y564741D01*
X5771784Y571194D01*
X5793516Y583741D01*
X5811259Y601484D01*
X5823805Y623215D01*
X5830259Y647300D01*
D02*
G37*
G36*
X4090259D02*
X4007700D01*
Y564741D01*
X4031784Y571194D01*
X4053516Y583741D01*
X4071259Y601484D01*
X4083805Y623215D01*
X4090259Y647300D01*
D02*
G37*
G36*
X2360259D02*
X2277700D01*
Y564741D01*
X2301784Y571194D01*
X2323516Y583741D01*
X2341259Y601484D01*
X2353805Y623215D01*
X2360259Y647300D01*
D02*
G37*
G36*
X630259D02*
X547700D01*
Y564741D01*
X571784Y571194D01*
X593516Y583741D01*
X611259Y601484D01*
X623805Y623215D01*
X630259Y647300D01*
D02*
G37*
G36*
X522300D02*
X439741D01*
X446194Y623215D01*
X458741Y601484D01*
X476484Y583741D01*
X498215Y571194D01*
X522300Y564741D01*
Y647300D01*
D02*
G37*
G36*
X3982300D02*
X3899741D01*
X3906194Y623215D01*
X3918741Y601484D01*
X3936484Y583741D01*
X3958215Y571194D01*
X3982300Y564741D01*
Y647300D01*
D02*
G37*
G36*
X2252300D02*
X2169741D01*
X2176194Y623215D01*
X2188741Y601484D01*
X2206484Y583741D01*
X2228215Y571194D01*
X2252300Y564741D01*
Y647300D01*
D02*
G37*
G36*
X5722300D02*
X5639741D01*
X5646194Y623215D01*
X5658741Y601484D01*
X5676484Y583741D01*
X5698215Y571194D01*
X5722300Y564741D01*
Y647300D01*
D02*
G37*
G36*
X1911300Y550700D02*
X1905218D01*
X1868375Y543372D01*
X1833670Y528996D01*
X1802436Y508126D01*
X1775874Y481564D01*
X1755004Y450330D01*
X1741721Y418263D01*
X1735000Y416827D01*
X1728279Y418263D01*
X1714996Y450330D01*
X1694126Y481564D01*
X1667564Y508126D01*
X1636330Y528996D01*
X1601625Y543372D01*
X1564782Y550700D01*
X1558700D01*
Y360000D01*
Y169300D01*
X1564782D01*
X1601625Y176629D01*
X1636330Y191004D01*
X1667564Y211874D01*
X1694126Y238436D01*
X1714996Y269670D01*
X1728279Y301738D01*
X1735000Y303173D01*
X1741721Y301738D01*
X1755004Y269670D01*
X1775874Y238436D01*
X1802436Y211874D01*
X1833670Y191004D01*
X1868375Y176629D01*
X1905218Y169300D01*
X1911300D01*
Y360000D01*
Y550700D01*
D02*
G37*
G36*
X3641300D02*
X3635218D01*
X3598375Y543372D01*
X3563670Y528996D01*
X3532436Y508126D01*
X3505874Y481564D01*
X3485004Y450330D01*
X3471721Y418262D01*
X3465000Y416827D01*
X3458279Y418262D01*
X3444996Y450330D01*
X3424126Y481564D01*
X3397564Y508126D01*
X3366330Y528996D01*
X3331625Y543372D01*
X3294782Y550700D01*
X3288700D01*
Y360000D01*
Y169300D01*
X3294782D01*
X3331625Y176629D01*
X3366330Y191004D01*
X3397564Y211874D01*
X3424126Y238436D01*
X3444996Y269670D01*
X3458279Y301738D01*
X3465000Y303173D01*
X3471721Y301738D01*
X3485004Y269670D01*
X3505874Y238436D01*
X3532436Y211874D01*
X3563670Y191004D01*
X3598375Y176629D01*
X3635218Y169300D01*
X3641300D01*
Y360000D01*
Y550700D01*
D02*
G37*
G36*
X5381300D02*
X5375218D01*
X5338375Y543372D01*
X5303670Y528996D01*
X5272436Y508126D01*
X5245874Y481564D01*
X5225004Y450330D01*
X5210629Y415625D01*
X5206474Y394740D01*
X5193526D01*
X5189371Y415625D01*
X5174996Y450330D01*
X5154126Y481564D01*
X5127564Y508126D01*
X5096330Y528996D01*
X5061625Y543372D01*
X5024782Y550700D01*
X5018699D01*
Y360000D01*
Y169300D01*
X5024782D01*
X5061625Y176629D01*
X5096330Y191004D01*
X5127564Y211874D01*
X5154126Y238436D01*
X5174996Y269670D01*
X5189371Y304375D01*
X5193526Y325260D01*
X5206474D01*
X5210629Y304375D01*
X5225004Y269670D01*
X5245874Y238436D01*
X5272436Y211874D01*
X5303670Y191004D01*
X5338375Y176629D01*
X5375218Y169300D01*
X5381300D01*
Y360000D01*
Y550700D01*
D02*
G37*
G36*
X6764782D02*
X6758700D01*
Y372700D01*
X6936700D01*
Y378782D01*
X6929371Y415625D01*
X6914996Y450330D01*
X6894126Y481564D01*
X6867564Y508126D01*
X6836330Y528996D01*
X6801625Y543372D01*
X6764782Y550700D01*
D02*
G37*
G36*
X3672782D02*
X3666700D01*
Y372700D01*
X3844700D01*
Y378782D01*
X3837372Y415625D01*
X3822996Y450330D01*
X3802127Y481564D01*
X3775564Y508126D01*
X3744330Y528996D01*
X3709625Y543372D01*
X3672782Y550700D01*
D02*
G37*
G36*
X1942782D02*
X1936700D01*
Y372700D01*
X2114700D01*
Y378782D01*
X2107371Y415625D01*
X2092996Y450330D01*
X2072126Y481564D01*
X2045564Y508126D01*
X2014330Y528996D01*
X1979625Y543372D01*
X1942782Y550700D01*
D02*
G37*
G36*
X212782D02*
X206700D01*
Y372700D01*
X384700D01*
Y378782D01*
X377372Y415625D01*
X362996Y450330D01*
X342127Y481564D01*
X315564Y508126D01*
X284330Y528996D01*
X249625Y543372D01*
X212782Y550700D01*
D02*
G37*
G36*
X5412782D02*
X5406700D01*
Y372700D01*
X5584700D01*
Y378782D01*
X5577372Y415625D01*
X5562996Y450330D01*
X5542127Y481564D01*
X5515564Y508126D01*
X5484330Y528996D01*
X5449625Y543372D01*
X5412782Y550700D01*
D02*
G37*
G36*
X4993299D02*
X4987218D01*
X4950375Y543372D01*
X4915670Y528996D01*
X4884436Y508126D01*
X4857873Y481564D01*
X4837004Y450330D01*
X4822628Y415625D01*
X4815300Y378782D01*
Y372700D01*
X4993299D01*
Y550700D01*
D02*
G37*
G36*
X3263300D02*
X3257218D01*
X3220375Y543372D01*
X3185670Y528996D01*
X3154436Y508126D01*
X3127873Y481564D01*
X3107004Y450330D01*
X3092628Y415625D01*
X3085300Y378782D01*
Y372700D01*
X3263300D01*
Y550700D01*
D02*
G37*
G36*
X1533300D02*
X1527218D01*
X1490375Y543372D01*
X1455670Y528996D01*
X1424436Y508126D01*
X1397874Y481564D01*
X1377004Y450330D01*
X1362628Y415625D01*
X1355300Y378782D01*
Y372700D01*
X1533300D01*
Y550700D01*
D02*
G37*
G36*
X6733300D02*
X6727218D01*
X6690375Y543372D01*
X6655670Y528996D01*
X6624436Y508126D01*
X6597874Y481564D01*
X6577004Y450330D01*
X6562628Y415625D01*
X6555300Y378782D01*
Y372700D01*
X6733300D01*
Y550700D01*
D02*
G37*
G36*
X6088782Y469700D02*
X6082700D01*
Y291700D01*
X6260700D01*
Y297782D01*
X6253372Y334625D01*
X6238996Y369330D01*
X6218127Y400564D01*
X6191564Y427126D01*
X6160330Y447996D01*
X6125625Y462371D01*
X6088782Y469700D01*
D02*
G37*
G36*
X4348782D02*
X4342700D01*
Y291700D01*
X4520700D01*
Y297782D01*
X4513371Y334625D01*
X4498996Y369330D01*
X4478126Y400564D01*
X4451564Y427126D01*
X4420330Y447996D01*
X4385625Y462371D01*
X4348782Y469700D01*
D02*
G37*
G36*
X2618782D02*
X2612700D01*
Y291700D01*
X2790700D01*
Y297782D01*
X2783371Y334625D01*
X2768996Y369330D01*
X2748126Y400564D01*
X2721564Y427126D01*
X2690330Y447996D01*
X2655625Y462371D01*
X2618782Y469700D01*
D02*
G37*
G36*
X888782D02*
X882700D01*
Y291700D01*
X1060700D01*
Y297782D01*
X1053372Y334625D01*
X1038996Y369330D01*
X1018126Y400564D01*
X991564Y427126D01*
X960330Y447996D01*
X925625Y462371D01*
X888782Y469700D01*
D02*
G37*
G36*
X6057300D02*
X6051218D01*
X6014375Y462371D01*
X5979670Y447996D01*
X5948436Y427126D01*
X5921874Y400564D01*
X5901004Y369330D01*
X5886629Y334625D01*
X5879300Y297782D01*
Y291700D01*
X6057300D01*
Y469700D01*
D02*
G37*
G36*
X857300D02*
X851218D01*
X814375Y462371D01*
X779670Y447996D01*
X748436Y427126D01*
X721874Y400564D01*
X701004Y369330D01*
X686629Y334625D01*
X679300Y297782D01*
Y291700D01*
X857300D01*
Y469700D01*
D02*
G37*
G36*
X4317300D02*
X4311218D01*
X4274375Y462371D01*
X4239670Y447996D01*
X4208436Y427126D01*
X4181874Y400564D01*
X4161004Y369330D01*
X4146628Y334625D01*
X4139300Y297782D01*
Y291700D01*
X4317300D01*
Y469700D01*
D02*
G37*
G36*
X2587300D02*
X2581218D01*
X2544375Y462371D01*
X2509670Y447996D01*
X2478436Y427126D01*
X2451873Y400564D01*
X2431004Y369330D01*
X2416628Y334625D01*
X2409300Y297782D01*
Y291700D01*
X2587300D01*
Y469700D01*
D02*
G37*
G36*
X6936700Y347300D02*
X6758700D01*
Y169300D01*
X6764782D01*
X6801625Y176629D01*
X6836330Y191004D01*
X6867564Y211874D01*
X6894126Y238436D01*
X6914996Y269670D01*
X6929371Y304375D01*
X6936700Y341218D01*
Y347300D01*
D02*
G37*
G36*
X6733300D02*
X6555300D01*
Y341218D01*
X6562628Y304375D01*
X6577004Y269670D01*
X6597874Y238436D01*
X6624436Y211874D01*
X6655670Y191004D01*
X6690375Y176629D01*
X6727218Y169300D01*
X6733300D01*
Y347300D01*
D02*
G37*
G36*
X5584700D02*
X5406700D01*
Y169300D01*
X5412782D01*
X5449625Y176629D01*
X5484330Y191004D01*
X5515564Y211874D01*
X5542127Y238436D01*
X5562996Y269670D01*
X5577372Y304375D01*
X5584700Y341218D01*
Y347300D01*
D02*
G37*
G36*
X4993299D02*
X4815300D01*
Y341218D01*
X4822628Y304375D01*
X4837004Y269670D01*
X4857873Y238436D01*
X4884436Y211874D01*
X4915670Y191004D01*
X4950375Y176629D01*
X4987218Y169300D01*
X4993299D01*
Y347300D01*
D02*
G37*
G36*
X3844700D02*
X3666700D01*
Y169300D01*
X3672782D01*
X3709625Y176629D01*
X3744330Y191004D01*
X3775564Y211874D01*
X3802127Y238436D01*
X3822996Y269670D01*
X3837372Y304375D01*
X3844700Y341218D01*
Y347300D01*
D02*
G37*
G36*
X3263300D02*
X3085300D01*
Y341218D01*
X3092628Y304375D01*
X3107004Y269670D01*
X3127873Y238436D01*
X3154436Y211874D01*
X3185670Y191004D01*
X3220375Y176629D01*
X3257218Y169300D01*
X3263300D01*
Y347300D01*
D02*
G37*
G36*
X2114700D02*
X1936700D01*
Y169300D01*
X1942782D01*
X1979625Y176629D01*
X2014330Y191004D01*
X2045564Y211874D01*
X2072126Y238436D01*
X2092996Y269670D01*
X2107371Y304375D01*
X2114700Y341218D01*
Y347300D01*
D02*
G37*
G36*
X1533300D02*
X1355300D01*
Y341218D01*
X1362628Y304375D01*
X1377004Y269670D01*
X1397874Y238436D01*
X1424436Y211874D01*
X1455670Y191004D01*
X1490375Y176629D01*
X1527218Y169300D01*
X1533300D01*
Y347300D01*
D02*
G37*
G36*
X384700D02*
X206700D01*
Y169300D01*
X212782D01*
X249625Y176629D01*
X284330Y191004D01*
X315564Y211874D01*
X342127Y238436D01*
X362996Y269670D01*
X377372Y304375D01*
X384700Y341218D01*
Y347300D01*
D02*
G37*
G36*
X6260700Y266300D02*
X6082700D01*
Y88300D01*
X6088782D01*
X6125625Y95628D01*
X6160330Y110004D01*
X6191564Y130873D01*
X6218127Y157436D01*
X6238996Y188670D01*
X6253372Y223375D01*
X6260700Y260218D01*
Y266300D01*
D02*
G37*
G36*
X6057300D02*
X5879300D01*
Y260218D01*
X5886629Y223375D01*
X5901004Y188670D01*
X5921874Y157436D01*
X5948436Y130873D01*
X5979670Y110004D01*
X6014375Y95628D01*
X6051218Y88300D01*
X6057300D01*
Y266300D01*
D02*
G37*
G36*
X4520700D02*
X4342700D01*
Y88300D01*
X4348782D01*
X4385625Y95628D01*
X4420330Y110004D01*
X4451564Y130873D01*
X4478126Y157436D01*
X4498996Y188670D01*
X4513371Y223375D01*
X4520700Y260218D01*
Y266300D01*
D02*
G37*
G36*
X4317300D02*
X4139300D01*
Y260218D01*
X4146628Y223375D01*
X4161004Y188670D01*
X4181874Y157436D01*
X4208436Y130873D01*
X4239670Y110004D01*
X4274375Y95628D01*
X4311218Y88300D01*
X4317300D01*
Y266300D01*
D02*
G37*
G36*
X2790700D02*
X2612700D01*
Y88300D01*
X2618782D01*
X2655625Y95628D01*
X2690330Y110004D01*
X2721564Y130873D01*
X2748126Y157436D01*
X2768996Y188670D01*
X2783371Y223375D01*
X2790700Y260218D01*
Y266300D01*
D02*
G37*
G36*
X2587300D02*
X2409300D01*
Y260218D01*
X2416628Y223375D01*
X2431004Y188670D01*
X2451873Y157436D01*
X2478436Y130873D01*
X2509670Y110004D01*
X2544375Y95628D01*
X2581218Y88300D01*
X2587300D01*
Y266300D01*
D02*
G37*
G36*
X1060700D02*
X882700D01*
Y88300D01*
X888782D01*
X925625Y95628D01*
X960330Y110004D01*
X991564Y130873D01*
X1018126Y157436D01*
X1038996Y188670D01*
X1053372Y223375D01*
X1060700Y260218D01*
Y266300D01*
D02*
G37*
G36*
X857300D02*
X679300D01*
Y260218D01*
X686629Y223375D01*
X701004Y188670D01*
X721874Y157436D01*
X748436Y130873D01*
X779670Y110004D01*
X814375Y95628D01*
X851218Y88300D01*
X857300D01*
Y266300D01*
D02*
G37*
%LPD*%
G36*
X1034893Y866010D02*
Y623530D01*
X1027740Y616377D01*
X971960D01*
X969975Y618362D01*
Y696282D01*
X968791Y702234D01*
Y771540D01*
X901209D01*
X891822Y778682D01*
X892085Y790940D01*
X901860Y797471D01*
X901861Y797473D01*
X902171Y797802D01*
X910848Y804888D01*
X921929Y797484D01*
X935000Y794884D01*
X948071Y797484D01*
X959152Y804888D01*
X966556Y815969D01*
X969156Y829040D01*
Y912040D01*
X968722Y914220D01*
X980427Y920476D01*
X1034893Y866010D01*
D02*
G37*
D13*
X5550000Y3140000D02*
Y3390000D01*
X3350000Y1250000D02*
X3351400Y1251400D01*
Y2030600D01*
X3352800Y2032000D01*
X3090000Y1340000D02*
Y1346873D01*
X3098800Y1355673D01*
Y2032000D01*
X3040000Y2350000D02*
X3250000D01*
X5994380Y1232540D02*
Y1444810D01*
X5974050Y1465140D02*
X5994380Y1444810D01*
X5654860Y1465140D02*
X5974050D01*
X5650000Y1470000D02*
X5654860Y1465140D01*
X4065000Y1230000D02*
X4067500Y1232500D01*
Y1387500D01*
X4070000Y1390000D01*
X4065000D02*
X4070000D01*
X3945000Y1510000D02*
X4065000Y1390000D01*
X3940000Y1510000D02*
X3945000D01*
X2519860Y1434860D02*
X2525000Y1440000D01*
X2384860Y1434860D02*
X2519860D01*
X2380000Y1430000D02*
X2384860Y1434860D01*
X1900000Y1430000D02*
X2380000D01*
X5994380Y1232540D02*
X6004122Y1222799D01*
X5804380Y1232540D02*
X5994380D01*
X4064480Y1230000D02*
X4254480D01*
Y1440000D01*
X2524740Y1232540D02*
X2534482Y1222799D01*
X6004122Y873338D02*
Y1222799D01*
Y873338D02*
X6004380Y873080D01*
X4264222Y870798D02*
X4264480Y870540D01*
X4254480Y1230000D02*
X4264222Y1220259D01*
Y870798D02*
Y1220259D01*
X2534482Y873338D02*
Y1222799D01*
Y873338D02*
X2534740Y873080D01*
X686873Y1440000D02*
X795000D01*
X636873Y1390000D02*
X686873Y1440000D01*
X560000Y1570000D02*
X630000Y1500000D01*
Y1390000D02*
Y1500000D01*
Y1390000D02*
X636873D01*
X630000Y1383127D02*
Y1390000D01*
X2524740Y1232540D02*
Y1442540D01*
X2334740Y1232540D02*
X2524740D01*
X804742Y870798D02*
X805000Y870540D01*
X605000Y1230000D02*
Y1358127D01*
Y1230000D02*
X795000D01*
X605000Y1358127D02*
X630000Y1383127D01*
X804742Y870798D02*
Y1220259D01*
X795000Y1230000D02*
X804742Y1220259D01*
X457500Y1357500D02*
X460000Y1360000D01*
X457500Y1232500D02*
Y1357500D01*
X455000Y1230000D02*
X457500Y1232500D01*
X2180000Y1360000D02*
X2182500Y1357500D01*
Y1232500D02*
Y1357500D01*
Y1232500D02*
X2185000Y1230000D01*
X5650000Y1360000D02*
X5652500Y1357500D01*
Y1232500D02*
Y1357500D01*
Y1232500D02*
X5655000Y1230000D01*
X3910000Y1360000D02*
X3912500Y1357500D01*
Y1232500D02*
Y1357500D01*
Y1232500D02*
X3915000Y1230000D01*
X6268990Y611690D02*
Y921010D01*
X6145000Y1045000D02*
X6268990Y921010D01*
X6145000Y1045000D02*
Y1230000D01*
X4405000Y1045000D02*
Y1230000D01*
Y1045000D02*
X4529090Y920910D01*
Y609150D02*
Y920910D01*
X2675000Y1025000D02*
Y1230000D01*
X2799350Y611690D02*
Y900650D01*
X2675000Y1025000D02*
X2799350Y900650D01*
X945000Y1005000D02*
X1069610Y880390D01*
X945000Y1005000D02*
Y1230000D01*
X1069610Y609150D02*
Y880390D01*
X2338400Y1731600D02*
X2340000Y1730000D01*
X2338400Y1731600D02*
Y2030400D01*
X2336800Y2032000D02*
X2338400Y2030400D01*
X2080000Y1730000D02*
X2081400Y1731400D01*
Y2030600D01*
X2082800Y2032000D01*
X6145000Y1440000D02*
Y1560000D01*
X4405000Y1567820D02*
X4406900Y1569720D01*
X4405000Y1440000D02*
Y1567820D01*
X4404480Y1430000D02*
X4505960Y1328520D01*
Y1067520D02*
Y1328520D01*
Y1067520D02*
X4664480Y909000D01*
X6144380Y1432540D02*
X6245860Y1331060D01*
Y1070060D02*
Y1331060D01*
Y1070060D02*
X6404380Y911540D01*
X3994480Y909000D02*
Y928675D01*
X3914480Y1008675D02*
X3994480Y928675D01*
X3914480Y1008675D02*
Y1230000D01*
X1046480Y1067520D02*
Y1328520D01*
Y1067520D02*
X1205000Y909000D01*
X945000Y1555000D02*
X950000Y1560000D01*
X945000Y1430000D02*
X1046480Y1328520D01*
X945000Y1440000D02*
Y1555000D01*
X5654380Y1011215D02*
Y1232540D01*
Y1011215D02*
X5734380Y931215D01*
Y911540D02*
Y931215D01*
X535000Y909000D02*
Y928675D01*
X455000Y1008675D02*
X535000Y928675D01*
X455000Y1008675D02*
Y1230000D01*
X2675000Y1555000D02*
X2680000Y1560000D01*
X2675000Y1440000D02*
Y1555000D01*
X2674740Y1432540D02*
X2776220Y1331060D01*
Y1070060D02*
Y1331060D01*
Y1070060D02*
X2934740Y911540D01*
X2184740Y1011215D02*
Y1232540D01*
Y1011215D02*
X2264740Y931215D01*
Y911540D02*
Y931215D01*
X2664740Y699080D02*
X2664998Y698822D01*
Y606522D02*
Y698822D01*
Y606522D02*
X2687320Y584200D01*
X2771860D01*
X2799350Y611690D01*
X2883890D01*
X2934740Y662540D01*
X6134380Y699080D02*
X6134638Y698822D01*
Y606522D02*
Y698822D01*
Y606522D02*
X6156960Y584200D01*
X6241500D01*
X6268990Y611690D01*
X6353530D01*
X6404380Y662540D01*
X6004380Y581840D02*
Y699080D01*
Y581840D02*
X6004560Y581660D01*
X4394480Y696540D02*
X4394738Y696282D01*
Y603982D02*
Y696282D01*
Y603982D02*
X4417060Y581660D01*
X4501600D01*
X4529090Y609150D01*
X4613630D01*
X4664480Y660000D01*
X4264480Y579300D02*
Y696540D01*
Y579300D02*
X4264660Y579120D01*
X2534740Y581840D02*
Y699080D01*
Y581840D02*
X2534920Y581660D01*
X805000Y579300D02*
X805180Y579120D01*
X805000Y579300D02*
Y696540D01*
X1154150Y609150D02*
X1205000Y660000D01*
X1069610Y609150D02*
X1154150D01*
X1042120Y581660D02*
X1069610Y609150D01*
X957580Y581660D02*
X1042120D01*
X935258Y603982D02*
X957580Y581660D01*
X935258Y603982D02*
Y696282D01*
X935000Y696540D02*
X935258Y696282D01*
D14*
X1828800Y3556000D02*
D03*
X3606800Y2032000D02*
D03*
X1828800D02*
D03*
X1320800Y3556000D02*
D03*
X2844800Y2032000D02*
D03*
X2590800D02*
D03*
X1320800D02*
D03*
X1574800D02*
D03*
X2336800D02*
D03*
X3098800D02*
D03*
X3860800D02*
D03*
X4114800D02*
D03*
X4368800D02*
D03*
X4622800D02*
D03*
X2082800D02*
D03*
X3352800D02*
D03*
X4622800Y3556000D02*
D03*
X4368800D02*
D03*
X4114800D02*
D03*
X3860800D02*
D03*
X3606800D02*
D03*
X3352800D02*
D03*
X3098800D02*
D03*
X2844800D02*
D03*
X2590800D02*
D03*
X2336800D02*
D03*
X2082800D02*
D03*
X1574800D02*
D03*
D15*
X6600000Y1900000D02*
D03*
X1630000Y1500000D02*
D03*
D16*
X4665000Y909000D02*
D03*
X6405000D02*
D03*
X3995000D02*
D03*
X5735000Y660000D02*
D03*
X3995000D02*
D03*
X2265000D02*
D03*
X535000D02*
D03*
X1205000Y909000D02*
D03*
X5735000D02*
D03*
X535000D02*
D03*
X2935000D02*
D03*
X2265000D02*
D03*
D17*
X6746000Y360000D02*
D03*
X5394000D02*
D03*
X6070000Y279000D02*
D03*
X4330000D02*
D03*
X3654000Y360000D02*
D03*
X5006000D02*
D03*
X3276000D02*
D03*
X1924000D02*
D03*
X2600000Y279000D02*
D03*
X870000D02*
D03*
X194000Y360000D02*
D03*
X1546000D02*
D03*
D18*
X1066800Y2032000D02*
D03*
Y3556000D02*
D03*
D19*
X1205000Y660000D02*
D03*
X2935000D02*
D03*
X4665000D02*
D03*
X6405000D02*
D03*
D20*
X5550000Y3390000D02*
D03*
Y3140000D02*
D03*
X3350000Y1250000D02*
D03*
X3090000Y1340000D02*
D03*
X3040000Y2350000D02*
D03*
X3250000D02*
D03*
X6400000Y2410000D02*
D03*
X5740000Y2420000D02*
D03*
X5870000Y3320000D02*
D03*
X1900000Y1430000D02*
D03*
X2380000D02*
D03*
X3940000Y1510000D02*
D03*
X4070000Y1390000D02*
D03*
X5650000Y1470000D02*
D03*
X560000Y1570000D02*
D03*
X630000Y1390000D02*
D03*
X2340000Y1730000D02*
D03*
X2080000D02*
D03*
X4406900Y1560000D02*
D03*
X6145000D02*
D03*
X3910000Y1360000D02*
D03*
X950000Y1560000D02*
D03*
X5650000Y1360000D02*
D03*
X460000D02*
D03*
X2680000Y1560000D02*
D03*
X2180000Y1360000D02*
D03*
X6004560Y581660D02*
D03*
X4264660Y579120D02*
D03*
X2534920Y581660D02*
D03*
X805180Y579120D02*
D03*
D21*
X5995000Y1440000D02*
D03*
X4255000D02*
D03*
X5995000Y1230000D02*
D03*
X4255000D02*
D03*
X5805000D02*
D03*
X4065000D02*
D03*
X795000Y1440000D02*
D03*
X2525000D02*
D03*
X2335000Y1230000D02*
D03*
X795000D02*
D03*
X2525000D02*
D03*
X605000D02*
D03*
X4405000Y1440000D02*
D03*
X6145000D02*
D03*
X3915000Y1230000D02*
D03*
X945000Y1440000D02*
D03*
X5655000Y1230000D02*
D03*
X455000D02*
D03*
X2675000Y1440000D02*
D03*
X2185000Y1230000D02*
D03*
X2675000D02*
D03*
X6145000D02*
D03*
X4405000D02*
D03*
X945000D02*
D03*
D22*
X6005000Y842014D02*
D03*
X4265000D02*
D03*
X2535000D02*
D03*
X2600000Y677986D02*
D03*
Y842014D02*
D03*
X4330000Y677986D02*
D03*
Y842014D02*
D03*
X6070000Y677986D02*
D03*
Y842014D02*
D03*
X6135000D02*
D03*
X6005000Y677986D02*
D03*
X2665000Y842014D02*
D03*
X2535000Y677986D02*
D03*
X4395000Y842014D02*
D03*
X4265000Y677986D02*
D03*
D23*
X805000Y870540D02*
D03*
X870000Y696540D02*
D03*
Y870540D02*
D03*
X805000Y696540D02*
D03*
D24*
X2665000Y677986D02*
D03*
X6135000D02*
D03*
X4395000D02*
D03*
D25*
X935000Y870540D02*
D03*
D26*
Y696540D02*
D03*
%TF.MD5,11013149dbd10e243b6d4b32f5f4bca4*%
M02*
