%TF.GenerationSoftware,Altium Limited,Altium Designer,25.6.2 (33)*%
G04 Layer_Color=255*
%FSLAX45Y45*%
%MOMM*%
%TF.SameCoordinates,85768DE1-254B-4F2A-BBB9-FB77CA5A1332*%
%TF.FilePolarity,Positive*%
%TF.FileFunction,Pads,Bot*%
%TF.Part,Single*%
G01*
G75*
%TA.AperFunction,ComponentPad*%
%ADD14C,1.59000*%
%TA.AperFunction,ViaPad*%
%ADD15C,4.00000*%
%TA.AperFunction,ComponentPad*%
%ADD16C,1.39800*%
%ADD17C,3.30600*%
%ADD18R,1.59000X1.59000*%
%ADD19R,1.39800X1.39800*%
%TA.AperFunction,SMDPad,CuDef*%
%ADD21R,0.80000X1.00000*%
G04:AMPARAMS|DCode=22|XSize=1.46387mm|YSize=0.37583mm|CornerRadius=0.18791mm|HoleSize=0mm|Usage=FLASHONLY|Rotation=90.000|XOffset=0mm|YOffset=0mm|HoleType=Round|Shape=RoundedRectangle|*
%AMROUNDEDRECTD22*
21,1,1.46387,0.00000,0,0,90.0*
21,1,1.08804,0.37583,0,0,90.0*
1,1,0.37583,0.00000,0.54402*
1,1,0.37583,0.00000,-0.54402*
1,1,0.37583,0.00000,-0.54402*
1,1,0.37583,0.00000,0.54402*
%
%ADD22ROUNDEDRECTD22*%
G04:AMPARAMS|DCode=23|XSize=1.2mm|YSize=0.37583mm|CornerRadius=0.18791mm|HoleSize=0mm|Usage=FLASHONLY|Rotation=90.000|XOffset=0mm|YOffset=0mm|HoleType=Round|Shape=RoundedRectangle|*
%AMROUNDEDRECTD23*
21,1,1.20000,0.00000,0,0,90.0*
21,1,0.82417,0.37583,0,0,90.0*
1,1,0.37583,0.00000,0.41209*
1,1,0.37583,0.00000,-0.41209*
1,1,0.37583,0.00000,-0.41209*
1,1,0.37583,0.00000,0.41209*
%
%ADD23ROUNDEDRECTD23*%
%ADD24R,0.37583X1.46387*%
G04:AMPARAMS|DCode=25|XSize=1.2mm|YSize=0.37mm|CornerRadius=0.185mm|HoleSize=0mm|Usage=FLASHONLY|Rotation=90.000|XOffset=0mm|YOffset=0mm|HoleType=Round|Shape=RoundedRectangle|*
%AMROUNDEDRECTD25*
21,1,1.20000,0.00000,0,0,90.0*
21,1,0.83000,0.37000,0,0,90.0*
1,1,0.37000,0.00000,0.41500*
1,1,0.37000,0.00000,-0.41500*
1,1,0.37000,0.00000,-0.41500*
1,1,0.37000,0.00000,0.41500*
%
%ADD25ROUNDEDRECTD25*%
%ADD26R,0.37583X1.20000*%
D14*
X1828800Y3556000D02*
D03*
X3606800Y2032000D02*
D03*
X1828800D02*
D03*
X1320800Y3556000D02*
D03*
X2844800Y2032000D02*
D03*
X2590800D02*
D03*
X1320800D02*
D03*
X1574800D02*
D03*
X2336800D02*
D03*
X3098800D02*
D03*
X3860800D02*
D03*
X4114800D02*
D03*
X4368800D02*
D03*
X4622800D02*
D03*
X2082800D02*
D03*
X3352800D02*
D03*
X4622800Y3556000D02*
D03*
X4368800D02*
D03*
X4114800D02*
D03*
X3860800D02*
D03*
X3606800D02*
D03*
X3352800D02*
D03*
X3098800D02*
D03*
X2844800D02*
D03*
X2590800D02*
D03*
X2336800D02*
D03*
X2082800D02*
D03*
X1574800D02*
D03*
D15*
X6600000Y1900000D02*
D03*
X1630000Y1500000D02*
D03*
D16*
X4665000Y909000D02*
D03*
X6405000D02*
D03*
X3995000D02*
D03*
X5735000Y660000D02*
D03*
X3995000D02*
D03*
X2265000D02*
D03*
X535000D02*
D03*
X1205000Y909000D02*
D03*
X5735000D02*
D03*
X535000D02*
D03*
X2935000D02*
D03*
X2265000D02*
D03*
D17*
X6746000Y360000D02*
D03*
X5394000D02*
D03*
X6070000Y279000D02*
D03*
X4330000D02*
D03*
X3654000Y360000D02*
D03*
X5006000D02*
D03*
X3276000D02*
D03*
X1924000D02*
D03*
X2600000Y279000D02*
D03*
X870000D02*
D03*
X194000Y360000D02*
D03*
X1546000D02*
D03*
D18*
X1066800Y2032000D02*
D03*
Y3556000D02*
D03*
D19*
X1205000Y660000D02*
D03*
X2935000D02*
D03*
X4665000D02*
D03*
X6405000D02*
D03*
D21*
X5995000Y1440000D02*
D03*
X4255000D02*
D03*
X5995000Y1230000D02*
D03*
X4255000D02*
D03*
X5805000D02*
D03*
X4065000D02*
D03*
X795000Y1440000D02*
D03*
X2525000D02*
D03*
X2335000Y1230000D02*
D03*
X795000D02*
D03*
X2525000D02*
D03*
X605000D02*
D03*
X4405000Y1440000D02*
D03*
X6145000D02*
D03*
X3915000Y1230000D02*
D03*
X945000Y1440000D02*
D03*
X5655000Y1230000D02*
D03*
X455000D02*
D03*
X2675000Y1440000D02*
D03*
X2185000Y1230000D02*
D03*
X2675000D02*
D03*
X6145000D02*
D03*
X4405000D02*
D03*
X945000D02*
D03*
D22*
X6005000Y842014D02*
D03*
X4265000D02*
D03*
X2535000D02*
D03*
X2600000Y677986D02*
D03*
Y842014D02*
D03*
X4330000Y677986D02*
D03*
Y842014D02*
D03*
X6070000Y677986D02*
D03*
Y842014D02*
D03*
X6135000D02*
D03*
X6005000Y677986D02*
D03*
X2665000Y842014D02*
D03*
X2535000Y677986D02*
D03*
X4395000Y842014D02*
D03*
X4265000Y677986D02*
D03*
D23*
X805000Y870540D02*
D03*
X870000Y696540D02*
D03*
Y870540D02*
D03*
X805000Y696540D02*
D03*
D24*
X2665000Y677986D02*
D03*
X6135000D02*
D03*
X4395000D02*
D03*
D25*
X935000Y870540D02*
D03*
D26*
Y696540D02*
D03*
%TF.MD5,bceac8f2053f9bcc874cb790e0ba90f4*%
M02*
