%TF.GenerationSoftware,Altium Limited,Altium Designer,25.6.2 (33)*%
G04 Layer_Color=255*
%FSLAX45Y45*%
%MOMM*%
%TF.SameCoordinates,85768DE1-254B-4F2A-BBB9-FB77CA5A1332*%
%TF.FilePolarity,Positive*%
%TF.FileFunction,Pads,Top*%
%TF.Part,Single*%
G01*
G75*
%TA.AperFunction,SMDPad,CuDef*%
%ADD10R,1.00000X0.80000*%
%ADD11R,0.60000X1.35000*%
%ADD12R,0.40000X1.35000*%
%TA.AperFunction,ComponentPad*%
%ADD14C,1.59000*%
%TA.AperFunction,ViaPad*%
%ADD15C,4.00000*%
%TA.AperFunction,ComponentPad*%
%ADD16C,1.39800*%
%ADD17C,3.30600*%
%ADD18R,1.59000X1.59000*%
%ADD19R,1.39800X1.39800*%
D10*
X6580000Y2925000D02*
D03*
Y2775000D02*
D03*
D11*
X5665300Y3142219D02*
D03*
X6400300D02*
D03*
X5665300Y2557221D02*
D03*
X6400300D02*
D03*
D12*
X5805300D02*
D03*
X5870300D02*
D03*
X5935300D02*
D03*
X6000300D02*
D03*
X6065300D02*
D03*
X6130300D02*
D03*
X6195300D02*
D03*
X6260300D02*
D03*
X6325300D02*
D03*
Y3142219D02*
D03*
X6260300D02*
D03*
X6195300D02*
D03*
X6130300D02*
D03*
X6065300D02*
D03*
X6000300D02*
D03*
X5935300D02*
D03*
X5805300D02*
D03*
X5740300D02*
D03*
Y2557221D02*
D03*
X5870300Y3142219D02*
D03*
D14*
X1828800Y3556000D02*
D03*
X3606800Y2032000D02*
D03*
X1828800D02*
D03*
X1320800Y3556000D02*
D03*
X2844800Y2032000D02*
D03*
X2590800D02*
D03*
X1320800D02*
D03*
X1574800D02*
D03*
X2336800D02*
D03*
X3098800D02*
D03*
X3860800D02*
D03*
X4114800D02*
D03*
X4368800D02*
D03*
X4622800D02*
D03*
X2082800D02*
D03*
X3352800D02*
D03*
X4622800Y3556000D02*
D03*
X4368800D02*
D03*
X4114800D02*
D03*
X3860800D02*
D03*
X3606800D02*
D03*
X3352800D02*
D03*
X3098800D02*
D03*
X2844800D02*
D03*
X2590800D02*
D03*
X2336800D02*
D03*
X2082800D02*
D03*
X1574800D02*
D03*
D15*
X6600000Y1900000D02*
D03*
X1630000Y1500000D02*
D03*
D16*
X4665000Y909000D02*
D03*
X6405000D02*
D03*
X3995000D02*
D03*
X5735000Y660000D02*
D03*
X3995000D02*
D03*
X2265000D02*
D03*
X535000D02*
D03*
X1205000Y909000D02*
D03*
X5735000D02*
D03*
X535000D02*
D03*
X2935000D02*
D03*
X2265000D02*
D03*
D17*
X6746000Y360000D02*
D03*
X5394000D02*
D03*
X6070000Y279000D02*
D03*
X4330000D02*
D03*
X3654000Y360000D02*
D03*
X5006000D02*
D03*
X3276000D02*
D03*
X1924000D02*
D03*
X2600000Y279000D02*
D03*
X870000D02*
D03*
X194000Y360000D02*
D03*
X1546000D02*
D03*
D18*
X1066800Y2032000D02*
D03*
Y3556000D02*
D03*
D19*
X1205000Y660000D02*
D03*
X2935000D02*
D03*
X4665000D02*
D03*
X6405000D02*
D03*
%TF.MD5,acc9b5928dfc739b3f5375ac5daa8ab4*%
M02*
