%TF.GenerationSoftware,Altium Limited,Altium Designer,25.6.2 (33)*%
G04 Layer_Color=255*
%FSLAX45Y45*%
%MOMM*%
%TF.SameCoordinates,5DA55B6F-82E9-41E6-B114-64E7E2ADA8B0*%
%TF.FilePolarity,Positive*%
%TF.FileFunction,Pads,Top*%
%TF.Part,Single*%
G01*
G75*
%TA.AperFunction,ComponentPad*%
%ADD12R,1.39800X1.39800*%
%ADD13C,1.59000*%
%ADD14R,1.59000X1.59000*%
%ADD15C,3.30600*%
%ADD16C,1.39800*%
D12*
X6380200Y1130300D02*
D03*
X4653000D02*
D03*
X2925800D02*
D03*
X1198600D02*
D03*
D13*
X1524000Y152400D02*
D03*
X1778000Y1676400D02*
D03*
X4318000D02*
D03*
X4064000D02*
D03*
X3810000D02*
D03*
X3556000D02*
D03*
X3302000D02*
D03*
X3048000D02*
D03*
X2794000D02*
D03*
X2540000D02*
D03*
X2286000D02*
D03*
X2032000D02*
D03*
X1524000D02*
D03*
X1270000D02*
D03*
X1016000D02*
D03*
X4318000Y152400D02*
D03*
X4064000D02*
D03*
X3810000D02*
D03*
X3556000D02*
D03*
X3302000D02*
D03*
X3048000D02*
D03*
X2794000D02*
D03*
X2540000D02*
D03*
X2286000D02*
D03*
X2032000D02*
D03*
X1778000D02*
D03*
X1270000D02*
D03*
X1016000D02*
D03*
D14*
X762000Y1676400D02*
D03*
Y152400D02*
D03*
D15*
X1539600Y830300D02*
D03*
X187600D02*
D03*
X863600Y749300D02*
D03*
X6045200D02*
D03*
X5369200Y830300D02*
D03*
X6721200D02*
D03*
X4318000Y749300D02*
D03*
X3642000Y830300D02*
D03*
X4994000D02*
D03*
X2590800Y749300D02*
D03*
X1914800Y830300D02*
D03*
X3266800D02*
D03*
D16*
X528600Y1379300D02*
D03*
Y1130300D02*
D03*
X1198600Y1379300D02*
D03*
X6380200D02*
D03*
X5710200Y1130300D02*
D03*
Y1379300D02*
D03*
X4653000D02*
D03*
X3983000Y1130300D02*
D03*
Y1379300D02*
D03*
X2925800D02*
D03*
X2255800Y1130300D02*
D03*
Y1379300D02*
D03*
%TF.MD5,f7ef26ceeb66b72dfb4edc7aeca01a9e*%
M02*
