%TF.GenerationSoftware,Altium Limited,Altium Designer,25.6.2 (33)*%
G04 Layer_Physical_Order=1*
G04 Layer_Color=255*
%FSLAX45Y45*%
%MOMM*%
%TF.SameCoordinates,5DA55B6F-82E9-41E6-B114-64E7E2ADA8B0*%
%TF.FilePolarity,Positive*%
%TF.FileFunction,Copper,L1,Top,Signal*%
%TF.Part,Single*%
G01*
G75*
%TA.AperFunction,Conductor*%
%ADD10C,0.38100*%
%ADD11C,0.25400*%
%TA.AperFunction,ComponentPad*%
%ADD12R,1.39800X1.39800*%
%ADD13C,1.59000*%
%ADD14R,1.59000X1.59000*%
%ADD15C,3.30600*%
%ADD16C,1.39800*%
%TA.AperFunction,ViaPad*%
%ADD17C,0.63500*%
G36*
X6858000Y1879103D02*
X6867958Y1879103D01*
X6887490Y1875218D01*
X6905891Y1867596D01*
X6922449Y1856532D01*
X6936532Y1842449D01*
X6947596Y1825891D01*
X6955218Y1807491D01*
X6959103Y1787957D01*
X6959104Y1777999D01*
X6959103Y127000D01*
X6959103Y117042D01*
X6955218Y97510D01*
X6947596Y79109D01*
X6936532Y62550D01*
X6922449Y48467D01*
X6905891Y37403D01*
X6887491Y29782D01*
X6867958Y25896D01*
X117042D01*
X97509Y29782D01*
X79109Y37403D01*
X62550Y48468D01*
X48467Y62550D01*
X37403Y79109D01*
X29781Y97509D01*
X25896Y117042D01*
Y127000D01*
Y724916D01*
X38596Y728769D01*
X47552Y715366D01*
X72666Y690252D01*
X102196Y670520D01*
X135009Y656929D01*
X169842Y650000D01*
X205358D01*
X240192Y656929D01*
X273004Y670520D01*
X302535Y690252D01*
X327648Y715366D01*
X347380Y744896D01*
X360971Y777709D01*
X367900Y812542D01*
Y848058D01*
X360971Y882892D01*
X347380Y915704D01*
X327648Y945235D01*
X302535Y970348D01*
X273004Y990080D01*
X240192Y1003671D01*
X205358Y1010600D01*
X169842D01*
X135009Y1003671D01*
X102196Y990080D01*
X72666Y970348D01*
X47552Y945235D01*
X38596Y931832D01*
X25896Y935684D01*
X25896Y1778000D01*
Y1787958D01*
X29782Y1807490D01*
X37403Y1825890D01*
X48467Y1842449D01*
X62550Y1856532D01*
X79109Y1867596D01*
X97509Y1875218D01*
X117042Y1879103D01*
X127001Y1879104D01*
X6858000Y1879103D01*
D02*
G37*
%LPC*%
G36*
X5193265Y1853485D02*
Y1809587D01*
X5237164D01*
X5229015Y1829260D01*
X5212938Y1845336D01*
X5193265Y1853485D01*
D02*
G37*
G36*
X5167865D02*
X5148193Y1845336D01*
X5132116Y1829260D01*
X5123967Y1809587D01*
X5167865D01*
Y1853485D01*
D02*
G37*
G36*
X5237164Y1784187D02*
X5193265D01*
Y1740289D01*
X5212938Y1748437D01*
X5229015Y1764514D01*
X5237164Y1784187D01*
D02*
G37*
G36*
X5167865D02*
X5123967D01*
X5132116Y1764514D01*
X5148193Y1748437D01*
X5167865Y1740289D01*
Y1784187D01*
D02*
G37*
G36*
X4330441Y1770900D02*
X4305559D01*
X4281524Y1764460D01*
X4259976Y1752019D01*
X4242381Y1734424D01*
X4229940Y1712876D01*
X4223500Y1688841D01*
Y1663959D01*
X4229940Y1639924D01*
X4242381Y1618376D01*
X4259976Y1600781D01*
X4281524Y1588340D01*
X4305559Y1581900D01*
X4330441D01*
X4354476Y1588340D01*
X4376024Y1600781D01*
X4393619Y1618376D01*
X4406060Y1639924D01*
X4412500Y1663959D01*
Y1688841D01*
X4406060Y1712876D01*
X4393619Y1734424D01*
X4376024Y1752019D01*
X4354476Y1764460D01*
X4330441Y1770900D01*
D02*
G37*
G36*
X4076441D02*
X4051559D01*
X4027524Y1764460D01*
X4005976Y1752019D01*
X3988381Y1734424D01*
X3975940Y1712876D01*
X3969500Y1688841D01*
Y1663959D01*
X3975940Y1639924D01*
X3988381Y1618376D01*
X4005976Y1600781D01*
X4027524Y1588340D01*
X4051559Y1581900D01*
X4076441D01*
X4100476Y1588340D01*
X4122024Y1600781D01*
X4139619Y1618376D01*
X4152060Y1639924D01*
X4158500Y1663959D01*
Y1688841D01*
X4152060Y1712876D01*
X4139619Y1734424D01*
X4122024Y1752019D01*
X4100476Y1764460D01*
X4076441Y1770900D01*
D02*
G37*
G36*
X3822441D02*
X3797559D01*
X3773524Y1764460D01*
X3751976Y1752019D01*
X3734381Y1734424D01*
X3721940Y1712876D01*
X3715500Y1688841D01*
Y1663959D01*
X3721940Y1639924D01*
X3734381Y1618376D01*
X3751976Y1600781D01*
X3773524Y1588340D01*
X3797559Y1581900D01*
X3822441D01*
X3846476Y1588340D01*
X3868024Y1600781D01*
X3885619Y1618376D01*
X3898060Y1639924D01*
X3904500Y1663959D01*
Y1688841D01*
X3898060Y1712876D01*
X3885619Y1734424D01*
X3868024Y1752019D01*
X3846476Y1764460D01*
X3822441Y1770900D01*
D02*
G37*
G36*
X3568441D02*
X3543559D01*
X3519524Y1764460D01*
X3497976Y1752019D01*
X3480381Y1734424D01*
X3467940Y1712876D01*
X3461500Y1688841D01*
Y1663959D01*
X3467940Y1639924D01*
X3480381Y1618376D01*
X3497976Y1600781D01*
X3519524Y1588340D01*
X3543559Y1581900D01*
X3568441D01*
X3592476Y1588340D01*
X3614024Y1600781D01*
X3631619Y1618376D01*
X3644060Y1639924D01*
X3650500Y1663959D01*
Y1688841D01*
X3644060Y1712876D01*
X3631619Y1734424D01*
X3614024Y1752019D01*
X3592476Y1764460D01*
X3568441Y1770900D01*
D02*
G37*
G36*
X3314441D02*
X3289559D01*
X3265524Y1764460D01*
X3243976Y1752019D01*
X3226381Y1734424D01*
X3213940Y1712876D01*
X3207500Y1688841D01*
Y1663959D01*
X3213940Y1639924D01*
X3226381Y1618376D01*
X3243976Y1600781D01*
X3265524Y1588340D01*
X3289559Y1581900D01*
X3314441D01*
X3338476Y1588340D01*
X3360024Y1600781D01*
X3377619Y1618376D01*
X3390060Y1639924D01*
X3396500Y1663959D01*
Y1688841D01*
X3390060Y1712876D01*
X3377619Y1734424D01*
X3360024Y1752019D01*
X3338476Y1764460D01*
X3314441Y1770900D01*
D02*
G37*
G36*
X3060441D02*
X3035559D01*
X3011524Y1764460D01*
X2989976Y1752019D01*
X2972381Y1734424D01*
X2959940Y1712876D01*
X2953500Y1688841D01*
Y1663959D01*
X2959940Y1639924D01*
X2972381Y1618376D01*
X2989976Y1600781D01*
X3011524Y1588340D01*
X3035559Y1581900D01*
X3060441D01*
X3084476Y1588340D01*
X3106024Y1600781D01*
X3123619Y1618376D01*
X3136060Y1639924D01*
X3142500Y1663959D01*
Y1688841D01*
X3136060Y1712876D01*
X3123619Y1734424D01*
X3106024Y1752019D01*
X3084476Y1764460D01*
X3060441Y1770900D01*
D02*
G37*
G36*
X2806441D02*
X2781559D01*
X2757524Y1764460D01*
X2735976Y1752019D01*
X2718381Y1734424D01*
X2705940Y1712876D01*
X2699500Y1688841D01*
Y1663959D01*
X2705940Y1639924D01*
X2718381Y1618376D01*
X2735976Y1600781D01*
X2757524Y1588340D01*
X2781559Y1581900D01*
X2806441D01*
X2830476Y1588340D01*
X2852024Y1600781D01*
X2869619Y1618376D01*
X2882060Y1639924D01*
X2888500Y1663959D01*
Y1688841D01*
X2882060Y1712876D01*
X2869619Y1734424D01*
X2852024Y1752019D01*
X2830476Y1764460D01*
X2806441Y1770900D01*
D02*
G37*
G36*
X2552441D02*
X2527559D01*
X2503524Y1764460D01*
X2481976Y1752019D01*
X2464381Y1734424D01*
X2451940Y1712876D01*
X2445500Y1688841D01*
Y1663959D01*
X2451940Y1639924D01*
X2464381Y1618376D01*
X2481976Y1600781D01*
X2503524Y1588340D01*
X2527559Y1581900D01*
X2552441D01*
X2576476Y1588340D01*
X2598024Y1600781D01*
X2615619Y1618376D01*
X2628060Y1639924D01*
X2634500Y1663959D01*
Y1688841D01*
X2628060Y1712876D01*
X2615619Y1734424D01*
X2598024Y1752019D01*
X2576476Y1764460D01*
X2552441Y1770900D01*
D02*
G37*
G36*
X2298441D02*
X2273559D01*
X2249524Y1764460D01*
X2227976Y1752019D01*
X2210381Y1734424D01*
X2197940Y1712876D01*
X2191500Y1688841D01*
Y1663959D01*
X2197940Y1639924D01*
X2210381Y1618376D01*
X2227976Y1600781D01*
X2249524Y1588340D01*
X2273559Y1581900D01*
X2298441D01*
X2322476Y1588340D01*
X2344024Y1600781D01*
X2361619Y1618376D01*
X2374060Y1639924D01*
X2380500Y1663959D01*
Y1688841D01*
X2374060Y1712876D01*
X2361619Y1734424D01*
X2344024Y1752019D01*
X2322476Y1764460D01*
X2298441Y1770900D01*
D02*
G37*
G36*
X2044441D02*
X2019559D01*
X1995524Y1764460D01*
X1973976Y1752019D01*
X1956381Y1734424D01*
X1943940Y1712876D01*
X1937500Y1688841D01*
Y1663959D01*
X1943940Y1639924D01*
X1956381Y1618376D01*
X1973976Y1600781D01*
X1995524Y1588340D01*
X2019559Y1581900D01*
X2044441D01*
X2068476Y1588340D01*
X2090024Y1600781D01*
X2107619Y1618376D01*
X2120060Y1639924D01*
X2126500Y1663959D01*
Y1688841D01*
X2120060Y1712876D01*
X2107619Y1734424D01*
X2090024Y1752019D01*
X2068476Y1764460D01*
X2044441Y1770900D01*
D02*
G37*
G36*
X1790441D02*
X1765559D01*
X1741524Y1764460D01*
X1719976Y1752019D01*
X1702381Y1734424D01*
X1689940Y1712876D01*
X1683500Y1688841D01*
Y1663959D01*
X1689940Y1639924D01*
X1702381Y1618376D01*
X1719976Y1600781D01*
X1741524Y1588340D01*
X1765559Y1581900D01*
X1790441D01*
X1814476Y1588340D01*
X1836024Y1600781D01*
X1853619Y1618376D01*
X1866060Y1639924D01*
X1872500Y1663959D01*
Y1688841D01*
X1866060Y1712876D01*
X1853619Y1734424D01*
X1836024Y1752019D01*
X1814476Y1764460D01*
X1790441Y1770900D01*
D02*
G37*
G36*
X1536441D02*
X1511559D01*
X1487524Y1764460D01*
X1465976Y1752019D01*
X1448381Y1734424D01*
X1435940Y1712876D01*
X1429500Y1688841D01*
Y1663959D01*
X1435940Y1639924D01*
X1448381Y1618376D01*
X1465976Y1600781D01*
X1487524Y1588340D01*
X1511559Y1581900D01*
X1536441D01*
X1560476Y1588340D01*
X1582024Y1600781D01*
X1599619Y1618376D01*
X1612060Y1639924D01*
X1618500Y1663959D01*
Y1688841D01*
X1612060Y1712876D01*
X1599619Y1734424D01*
X1582024Y1752019D01*
X1560476Y1764460D01*
X1536441Y1770900D01*
D02*
G37*
G36*
X1282441D02*
X1257559D01*
X1233524Y1764460D01*
X1211976Y1752019D01*
X1194381Y1734424D01*
X1181940Y1712876D01*
X1175500Y1688841D01*
Y1663959D01*
X1181940Y1639924D01*
X1194381Y1618376D01*
X1211976Y1600781D01*
X1233524Y1588340D01*
X1257559Y1581900D01*
X1282441D01*
X1306476Y1588340D01*
X1328024Y1600781D01*
X1345619Y1618376D01*
X1358060Y1639924D01*
X1364500Y1663959D01*
Y1688841D01*
X1358060Y1712876D01*
X1345619Y1734424D01*
X1328024Y1752019D01*
X1306476Y1764460D01*
X1282441Y1770900D01*
D02*
G37*
G36*
X1028441D02*
X1003559D01*
X979524Y1764460D01*
X957976Y1752019D01*
X940381Y1734424D01*
X927940Y1712876D01*
X921500Y1688841D01*
Y1663959D01*
X927940Y1639924D01*
X940381Y1618376D01*
X957976Y1600781D01*
X979524Y1588340D01*
X1003559Y1581900D01*
X1028441D01*
X1052476Y1588340D01*
X1074024Y1600781D01*
X1091619Y1618376D01*
X1104060Y1639924D01*
X1110500Y1663959D01*
Y1688841D01*
X1104060Y1712876D01*
X1091619Y1734424D01*
X1074024Y1752019D01*
X1052476Y1764460D01*
X1028441Y1770900D01*
D02*
G37*
G36*
X856500D02*
X667500D01*
Y1581900D01*
X856500D01*
Y1770900D01*
D02*
G37*
G36*
X5591100Y1533117D02*
X647700D01*
X634414Y1530474D01*
X623151Y1522949D01*
X559199Y1458996D01*
X539777Y1464200D01*
X517423D01*
X495830Y1458414D01*
X476470Y1447237D01*
X460663Y1431430D01*
X449486Y1412070D01*
X443700Y1390477D01*
Y1368123D01*
X449486Y1346530D01*
X460663Y1327170D01*
X476470Y1311363D01*
X495830Y1300186D01*
X517423Y1294400D01*
X539777D01*
X561370Y1300186D01*
X580730Y1311363D01*
X596537Y1327170D01*
X607714Y1346530D01*
X613500Y1368123D01*
Y1390477D01*
X608296Y1409899D01*
X662080Y1463683D01*
X1149556D01*
X1152959Y1450983D01*
X1146470Y1447237D01*
X1130663Y1431430D01*
X1119486Y1412070D01*
X1113700Y1390477D01*
Y1368123D01*
X1119486Y1346530D01*
X1130663Y1327170D01*
X1146470Y1311363D01*
X1165830Y1300186D01*
X1187423Y1294400D01*
X1209777D01*
X1231370Y1300186D01*
X1250730Y1311363D01*
X1266537Y1327170D01*
X1276590Y1344583D01*
X1776240D01*
X1888071Y1232751D01*
X1899334Y1225226D01*
X1912620Y1222583D01*
X2223108D01*
X2224780Y1209883D01*
X2223030Y1209414D01*
X2203670Y1198237D01*
X2187863Y1182430D01*
X2176686Y1163070D01*
X2170900Y1141477D01*
Y1119123D01*
X2176686Y1097530D01*
X2187863Y1078170D01*
X2203670Y1062363D01*
X2223030Y1051186D01*
X2244623Y1045400D01*
X2266977D01*
X2288570Y1051186D01*
X2307930Y1062363D01*
X2323737Y1078170D01*
X2334914Y1097530D01*
X2340700Y1119123D01*
Y1141477D01*
X2334914Y1163070D01*
X2323737Y1182430D01*
X2307930Y1198237D01*
X2288570Y1209414D01*
X2286820Y1209883D01*
X2288492Y1222583D01*
X2830500D01*
Y1143000D01*
X2925800D01*
X3021100D01*
Y1222583D01*
X3950308D01*
X3951980Y1209883D01*
X3950230Y1209414D01*
X3930870Y1198237D01*
X3915063Y1182430D01*
X3903886Y1163070D01*
X3898100Y1141477D01*
Y1119123D01*
X3903886Y1097530D01*
X3915063Y1078170D01*
X3930870Y1062363D01*
X3950230Y1051186D01*
X3971823Y1045400D01*
X3994177D01*
X4015770Y1051186D01*
X4035130Y1062363D01*
X4050937Y1078170D01*
X4062114Y1097530D01*
X4067900Y1119123D01*
Y1141477D01*
X4062114Y1163070D01*
X4050937Y1182430D01*
X4035130Y1198237D01*
X4015770Y1209414D01*
X4014020Y1209883D01*
X4015692Y1222583D01*
X4557700D01*
Y1143000D01*
X4653000D01*
Y1130300D01*
D01*
Y1143000D01*
X4748300D01*
Y1222583D01*
X5677508D01*
X5679180Y1209883D01*
X5677430Y1209414D01*
X5658070Y1198237D01*
X5642263Y1182430D01*
X5631086Y1163070D01*
X5625300Y1141477D01*
Y1119123D01*
X5631086Y1097530D01*
X5642263Y1078170D01*
X5658070Y1062363D01*
X5677430Y1051186D01*
X5699023Y1045400D01*
X5721377D01*
X5742970Y1051186D01*
X5762330Y1062363D01*
X5778137Y1078170D01*
X5789314Y1097530D01*
X5795100Y1119123D01*
Y1141477D01*
X5789314Y1163070D01*
X5778137Y1182430D01*
X5762330Y1198237D01*
X5742970Y1209414D01*
X5741220Y1209883D01*
X5742892Y1222583D01*
X6045200D01*
X6058486Y1225226D01*
X6069749Y1232751D01*
X6181580Y1344583D01*
X6302210D01*
X6312263Y1327170D01*
X6328070Y1311363D01*
X6347430Y1300186D01*
X6369023Y1294400D01*
X6391377D01*
X6412970Y1300186D01*
X6432330Y1311363D01*
X6448137Y1327170D01*
X6459314Y1346530D01*
X6465100Y1368123D01*
Y1390477D01*
X6459314Y1412070D01*
X6448137Y1431430D01*
X6432330Y1447237D01*
X6412970Y1458414D01*
X6391377Y1464200D01*
X6369023D01*
X6347430Y1458414D01*
X6328070Y1447237D01*
X6312263Y1431430D01*
X6302210Y1414017D01*
X6167200D01*
X6153914Y1411374D01*
X6142651Y1403849D01*
X6030820Y1292017D01*
X5754221D01*
X5750818Y1304717D01*
X5762330Y1311363D01*
X5778137Y1327170D01*
X5789314Y1346530D01*
X5795100Y1368123D01*
Y1390477D01*
X5789314Y1412070D01*
X5778137Y1431430D01*
X5762330Y1447237D01*
X5742970Y1458414D01*
X5721377Y1464200D01*
X5699023D01*
X5679601Y1458996D01*
X5615648Y1522949D01*
X5604386Y1530474D01*
X5591100Y1533117D01*
D02*
G37*
G36*
X6475500Y1225600D02*
X6392900D01*
Y1143000D01*
X6475500D01*
Y1225600D01*
D02*
G37*
G36*
X1293900D02*
X1211300D01*
Y1143000D01*
X1293900D01*
Y1225600D01*
D02*
G37*
G36*
X6367500D02*
X6284900D01*
Y1143000D01*
X6367500D01*
Y1225600D01*
D02*
G37*
G36*
X1185900D02*
X1103300D01*
Y1143000D01*
X1185900D01*
Y1225600D01*
D02*
G37*
G36*
X539777Y1215200D02*
X517423D01*
X495830Y1209414D01*
X476470Y1198237D01*
X460663Y1182430D01*
X449486Y1163070D01*
X443700Y1141477D01*
Y1119123D01*
X449486Y1097530D01*
X460663Y1078170D01*
X476470Y1062363D01*
X495830Y1051186D01*
X517423Y1045400D01*
X539777D01*
X561370Y1051186D01*
X580730Y1062363D01*
X596537Y1078170D01*
X607714Y1097530D01*
X613500Y1119123D01*
Y1141477D01*
X607714Y1163070D01*
X596537Y1182430D01*
X580730Y1198237D01*
X561370Y1209414D01*
X539777Y1215200D01*
D02*
G37*
G36*
X6475500Y1117600D02*
X6392900D01*
Y1035000D01*
X6475500D01*
Y1117600D01*
D02*
G37*
G36*
X6367500D02*
X6284900D01*
Y1035000D01*
X6367500D01*
Y1117600D01*
D02*
G37*
G36*
X4748300D02*
X4665700D01*
Y1035000D01*
X4748300D01*
Y1117600D01*
D02*
G37*
G36*
X4640300D02*
X4557700D01*
Y1035000D01*
X4640300D01*
Y1117600D01*
D02*
G37*
G36*
X3021100D02*
X2938500D01*
Y1035000D01*
X3021100D01*
Y1117600D01*
D02*
G37*
G36*
X2913100D02*
X2830500D01*
Y1035000D01*
X2913100D01*
Y1117600D01*
D02*
G37*
G36*
X1293900D02*
X1211300D01*
Y1035000D01*
X1293900D01*
Y1117600D01*
D02*
G37*
G36*
X1185900D02*
X1103300D01*
Y1035000D01*
X1185900D01*
Y1117600D01*
D02*
G37*
G36*
X5193265Y1040685D02*
Y996787D01*
X5237164D01*
X5229015Y1016460D01*
X5212938Y1032536D01*
X5193265Y1040685D01*
D02*
G37*
G36*
X5167865D02*
X5148193Y1032536D01*
X5132116Y1016460D01*
X5123967Y996787D01*
X5167865D01*
Y1040685D01*
D02*
G37*
G36*
X5386958Y1010600D02*
X5351442D01*
X5316609Y1003671D01*
X5283796Y990080D01*
X5254266Y970348D01*
X5247803Y963886D01*
X5237036Y971080D01*
X5237164Y971387D01*
X5193265D01*
Y927489D01*
X5205371Y932503D01*
X5213790Y922244D01*
X5209420Y915704D01*
X5195829Y882892D01*
X5188900Y848058D01*
Y812542D01*
X5195829Y777709D01*
X5209420Y744896D01*
X5229152Y715366D01*
X5254266Y690252D01*
X5283796Y670520D01*
X5316609Y656929D01*
X5351442Y650000D01*
X5386958D01*
X5421792Y656929D01*
X5454604Y670520D01*
X5484135Y690252D01*
X5509248Y715366D01*
X5528980Y744896D01*
X5542571Y777709D01*
X5549500Y812542D01*
Y848058D01*
X5542571Y882892D01*
X5528980Y915704D01*
X5509248Y945235D01*
X5484135Y970348D01*
X5454604Y990080D01*
X5421792Y1003671D01*
X5386958Y1010600D01*
D02*
G37*
G36*
X5011758D02*
X4976242D01*
X4941408Y1003671D01*
X4908596Y990080D01*
X4879065Y970348D01*
X4853952Y945235D01*
X4834220Y915704D01*
X4820629Y882892D01*
X4813700Y848058D01*
Y812542D01*
X4820629Y777709D01*
X4834220Y744896D01*
X4853952Y715366D01*
X4879065Y690252D01*
X4908596Y670520D01*
X4941408Y656929D01*
X4976242Y650000D01*
X5011758D01*
X5046591Y656929D01*
X5079404Y670520D01*
X5108934Y690252D01*
X5134048Y715366D01*
X5153780Y744896D01*
X5167371Y777709D01*
X5174300Y812542D01*
Y848058D01*
X5167371Y882892D01*
X5153780Y915704D01*
X5150202Y921059D01*
X5158621Y931318D01*
X5167865Y927489D01*
Y971387D01*
X5120507D01*
X5120502Y971382D01*
X5111865Y967418D01*
X5108934Y970348D01*
X5079404Y990080D01*
X5046591Y1003671D01*
X5011758Y1010600D01*
D02*
G37*
G36*
X1166900Y868358D02*
Y824460D01*
X1210798D01*
X1202650Y844133D01*
X1186573Y860209D01*
X1166900Y868358D01*
D02*
G37*
G36*
X1141500D02*
X1121827Y860209D01*
X1105751Y844133D01*
X1097602Y824460D01*
X1141500D01*
Y868358D01*
D02*
G37*
G36*
X1210798Y799060D02*
X1097602D01*
X1105751Y779387D01*
X1116788Y768350D01*
X1104711Y756273D01*
X1096562Y736600D01*
X1209758D01*
X1201609Y756273D01*
X1190572Y767310D01*
X1202650Y779387D01*
X1210798Y799060D01*
D02*
G37*
G36*
X1209758Y711200D02*
X1165860D01*
Y667302D01*
X1185533Y675451D01*
X1201609Y691527D01*
X1209758Y711200D01*
D02*
G37*
G36*
X1140460D02*
X1096562D01*
X1104711Y691527D01*
X1120787Y675451D01*
X1140460Y667302D01*
Y711200D01*
D02*
G37*
G36*
X6738958Y1010600D02*
X6703442D01*
X6668608Y1003671D01*
X6635796Y990080D01*
X6606265Y970348D01*
X6581152Y945235D01*
X6561420Y915704D01*
X6547829Y882892D01*
X6540900Y848058D01*
Y812542D01*
X6547829Y777709D01*
X6561420Y744896D01*
X6581152Y715366D01*
X6606265Y690252D01*
X6635796Y670520D01*
X6668608Y656929D01*
X6703442Y650000D01*
X6738958D01*
X6773791Y656929D01*
X6806604Y670520D01*
X6836134Y690252D01*
X6861248Y715366D01*
X6880980Y744896D01*
X6894571Y777709D01*
X6901500Y812542D01*
Y848058D01*
X6894571Y882892D01*
X6880980Y915704D01*
X6861248Y945235D01*
X6836134Y970348D01*
X6806604Y990080D01*
X6773791Y1003671D01*
X6738958Y1010600D01*
D02*
G37*
G36*
X3659758D02*
X3624242D01*
X3589409Y1003671D01*
X3556596Y990080D01*
X3527066Y970348D01*
X3501952Y945235D01*
X3482220Y915704D01*
X3468629Y882892D01*
X3461700Y848058D01*
Y812542D01*
X3468629Y777709D01*
X3482220Y744896D01*
X3501952Y715366D01*
X3527066Y690252D01*
X3556596Y670520D01*
X3589409Y656929D01*
X3624242Y650000D01*
X3659758D01*
X3694592Y656929D01*
X3727404Y670520D01*
X3756935Y690252D01*
X3782048Y715366D01*
X3801780Y744896D01*
X3815371Y777709D01*
X3822300Y812542D01*
Y848058D01*
X3815371Y882892D01*
X3801780Y915704D01*
X3782048Y945235D01*
X3756935Y970348D01*
X3727404Y990080D01*
X3694592Y1003671D01*
X3659758Y1010600D01*
D02*
G37*
G36*
X3284558D02*
X3249042D01*
X3214208Y1003671D01*
X3181396Y990080D01*
X3151865Y970348D01*
X3126752Y945235D01*
X3107020Y915704D01*
X3093429Y882892D01*
X3086500Y848058D01*
Y812542D01*
X3093429Y777709D01*
X3107020Y744896D01*
X3126752Y715366D01*
X3151865Y690252D01*
X3181396Y670520D01*
X3214208Y656929D01*
X3249042Y650000D01*
X3284558D01*
X3319391Y656929D01*
X3352204Y670520D01*
X3381734Y690252D01*
X3406848Y715366D01*
X3426580Y744896D01*
X3440171Y777709D01*
X3447100Y812542D01*
Y848058D01*
X3440171Y882892D01*
X3426580Y915704D01*
X3406848Y945235D01*
X3381734Y970348D01*
X3352204Y990080D01*
X3319391Y1003671D01*
X3284558Y1010600D01*
D02*
G37*
G36*
X1932558D02*
X1897042D01*
X1862209Y1003671D01*
X1829396Y990080D01*
X1799866Y970348D01*
X1774752Y945235D01*
X1755020Y915704D01*
X1741429Y882892D01*
X1734500Y848058D01*
Y812542D01*
X1741429Y777709D01*
X1755020Y744896D01*
X1774752Y715366D01*
X1799866Y690252D01*
X1829396Y670520D01*
X1862209Y656929D01*
X1897042Y650000D01*
X1932558D01*
X1967392Y656929D01*
X2000204Y670520D01*
X2029735Y690252D01*
X2054848Y715366D01*
X2074580Y744896D01*
X2088171Y777709D01*
X2095100Y812542D01*
Y848058D01*
X2088171Y882892D01*
X2074580Y915704D01*
X2054848Y945235D01*
X2029735Y970348D01*
X2000204Y990080D01*
X1967392Y1003671D01*
X1932558Y1010600D01*
D02*
G37*
G36*
X1557358D02*
X1521842D01*
X1487008Y1003671D01*
X1454196Y990080D01*
X1424665Y970348D01*
X1399552Y945235D01*
X1379820Y915704D01*
X1366229Y882892D01*
X1359300Y848058D01*
Y812542D01*
X1366229Y777709D01*
X1379820Y744896D01*
X1399552Y715366D01*
X1424665Y690252D01*
X1454196Y670520D01*
X1487008Y656929D01*
X1521842Y650000D01*
X1557358D01*
X1592191Y656929D01*
X1625004Y670520D01*
X1654534Y690252D01*
X1679648Y715366D01*
X1699380Y744896D01*
X1712971Y777709D01*
X1719900Y812542D01*
Y848058D01*
X1712971Y882892D01*
X1699380Y915704D01*
X1679648Y945235D01*
X1654534Y970348D01*
X1625004Y990080D01*
X1592191Y1003671D01*
X1557358Y1010600D01*
D02*
G37*
G36*
X6062958Y929600D02*
X6027442D01*
X5992609Y922671D01*
X5959796Y909080D01*
X5930266Y889348D01*
X5905152Y864234D01*
X5885420Y834704D01*
X5871829Y801891D01*
X5864900Y767058D01*
Y731542D01*
X5871829Y696709D01*
X5885420Y663896D01*
X5905152Y634366D01*
X5930266Y609252D01*
X5959796Y589520D01*
X5992609Y575929D01*
X6027442Y569000D01*
X6062958D01*
X6097791Y575929D01*
X6130604Y589520D01*
X6160134Y609252D01*
X6185248Y634366D01*
X6204980Y663896D01*
X6218571Y696709D01*
X6225500Y731542D01*
Y767058D01*
X6218571Y801891D01*
X6204980Y834704D01*
X6185248Y864234D01*
X6160134Y889348D01*
X6130604Y909080D01*
X6097791Y922671D01*
X6062958Y929600D01*
D02*
G37*
G36*
X4335758D02*
X4300242D01*
X4265409Y922671D01*
X4232596Y909080D01*
X4203066Y889348D01*
X4177952Y864234D01*
X4158220Y834704D01*
X4144629Y801891D01*
X4137700Y767058D01*
Y731542D01*
X4144629Y696709D01*
X4158220Y663896D01*
X4177952Y634366D01*
X4203066Y609252D01*
X4232596Y589520D01*
X4265409Y575929D01*
X4300242Y569000D01*
X4335758D01*
X4370591Y575929D01*
X4403404Y589520D01*
X4432934Y609252D01*
X4458048Y634366D01*
X4477780Y663896D01*
X4491371Y696709D01*
X4498300Y731542D01*
Y767058D01*
X4491371Y801891D01*
X4477780Y834704D01*
X4458048Y864234D01*
X4432934Y889348D01*
X4403404Y909080D01*
X4370591Y922671D01*
X4335758Y929600D01*
D02*
G37*
G36*
X2608558D02*
X2573042D01*
X2538209Y922671D01*
X2505396Y909080D01*
X2475866Y889348D01*
X2450752Y864234D01*
X2431020Y834704D01*
X2417429Y801891D01*
X2410500Y767058D01*
Y731542D01*
X2417429Y696709D01*
X2431020Y663896D01*
X2450752Y634366D01*
X2475866Y609252D01*
X2505396Y589520D01*
X2538209Y575929D01*
X2573042Y569000D01*
X2608558D01*
X2643391Y575929D01*
X2676204Y589520D01*
X2705734Y609252D01*
X2730848Y634366D01*
X2750580Y663896D01*
X2764171Y696709D01*
X2771100Y731542D01*
Y767058D01*
X2764171Y801891D01*
X2750580Y834704D01*
X2730848Y864234D01*
X2705734Y889348D01*
X2676204Y909080D01*
X2643391Y922671D01*
X2608558Y929600D01*
D02*
G37*
G36*
X881358D02*
X845842D01*
X811009Y922671D01*
X778196Y909080D01*
X748666Y889348D01*
X723552Y864234D01*
X703820Y834704D01*
X690229Y801891D01*
X683300Y767058D01*
Y731542D01*
X690229Y696709D01*
X703820Y663896D01*
X723552Y634366D01*
X748666Y609252D01*
X778196Y589520D01*
X811009Y575929D01*
X845842Y569000D01*
X881358D01*
X916191Y575929D01*
X949004Y589520D01*
X978534Y609252D01*
X1003648Y634366D01*
X1023380Y663896D01*
X1036971Y696709D01*
X1043900Y731542D01*
Y767058D01*
X1036971Y801891D01*
X1023380Y834704D01*
X1003648Y864234D01*
X978534Y889348D01*
X949004Y909080D01*
X916191Y922671D01*
X881358Y929600D01*
D02*
G37*
G36*
X4330441Y246900D02*
X4305559D01*
X4281524Y240460D01*
X4259976Y228019D01*
X4242381Y210424D01*
X4229940Y188876D01*
X4223500Y164841D01*
Y139959D01*
X4229940Y115924D01*
X4242381Y94376D01*
X4259976Y76781D01*
X4281524Y64340D01*
X4305559Y57900D01*
X4330441D01*
X4354476Y64340D01*
X4376024Y76781D01*
X4393619Y94376D01*
X4406060Y115924D01*
X4412500Y139959D01*
Y164841D01*
X4406060Y188876D01*
X4393619Y210424D01*
X4376024Y228019D01*
X4354476Y240460D01*
X4330441Y246900D01*
D02*
G37*
G36*
X4076441D02*
X4051559D01*
X4027524Y240460D01*
X4005976Y228019D01*
X3988381Y210424D01*
X3975940Y188876D01*
X3969500Y164841D01*
Y139959D01*
X3975940Y115924D01*
X3988381Y94376D01*
X4005976Y76781D01*
X4027524Y64340D01*
X4051559Y57900D01*
X4076441D01*
X4100476Y64340D01*
X4122024Y76781D01*
X4139619Y94376D01*
X4152060Y115924D01*
X4158500Y139959D01*
Y164841D01*
X4152060Y188876D01*
X4139619Y210424D01*
X4122024Y228019D01*
X4100476Y240460D01*
X4076441Y246900D01*
D02*
G37*
G36*
X3822441D02*
X3797559D01*
X3773524Y240460D01*
X3751976Y228019D01*
X3734381Y210424D01*
X3721940Y188876D01*
X3715500Y164841D01*
Y139959D01*
X3721940Y115924D01*
X3734381Y94376D01*
X3751976Y76781D01*
X3773524Y64340D01*
X3797559Y57900D01*
X3822441D01*
X3846476Y64340D01*
X3868024Y76781D01*
X3885619Y94376D01*
X3898060Y115924D01*
X3904500Y139959D01*
Y164841D01*
X3898060Y188876D01*
X3885619Y210424D01*
X3868024Y228019D01*
X3846476Y240460D01*
X3822441Y246900D01*
D02*
G37*
G36*
X3568441D02*
X3543559D01*
X3519524Y240460D01*
X3497976Y228019D01*
X3480381Y210424D01*
X3467940Y188876D01*
X3461500Y164841D01*
Y139959D01*
X3467940Y115924D01*
X3480381Y94376D01*
X3497976Y76781D01*
X3519524Y64340D01*
X3543559Y57900D01*
X3568441D01*
X3592476Y64340D01*
X3614024Y76781D01*
X3631619Y94376D01*
X3644060Y115924D01*
X3650500Y139959D01*
Y164841D01*
X3644060Y188876D01*
X3631619Y210424D01*
X3614024Y228019D01*
X3592476Y240460D01*
X3568441Y246900D01*
D02*
G37*
G36*
X3314441D02*
X3289559D01*
X3265524Y240460D01*
X3243976Y228019D01*
X3226381Y210424D01*
X3213940Y188876D01*
X3207500Y164841D01*
Y139959D01*
X3213940Y115924D01*
X3226381Y94376D01*
X3243976Y76781D01*
X3265524Y64340D01*
X3289559Y57900D01*
X3314441D01*
X3338476Y64340D01*
X3360024Y76781D01*
X3377619Y94376D01*
X3390060Y115924D01*
X3396500Y139959D01*
Y164841D01*
X3390060Y188876D01*
X3377619Y210424D01*
X3360024Y228019D01*
X3338476Y240460D01*
X3314441Y246900D01*
D02*
G37*
G36*
X3060441D02*
X3035559D01*
X3011524Y240460D01*
X2989976Y228019D01*
X2972381Y210424D01*
X2959940Y188876D01*
X2953500Y164841D01*
Y139959D01*
X2959940Y115924D01*
X2972381Y94376D01*
X2989976Y76781D01*
X3011524Y64340D01*
X3035559Y57900D01*
X3060441D01*
X3084476Y64340D01*
X3106024Y76781D01*
X3123619Y94376D01*
X3136060Y115924D01*
X3142500Y139959D01*
Y164841D01*
X3136060Y188876D01*
X3123619Y210424D01*
X3106024Y228019D01*
X3084476Y240460D01*
X3060441Y246900D01*
D02*
G37*
G36*
X2806441D02*
X2781559D01*
X2757524Y240460D01*
X2735976Y228019D01*
X2718381Y210424D01*
X2705940Y188876D01*
X2699500Y164841D01*
Y139959D01*
X2705940Y115924D01*
X2718381Y94376D01*
X2735976Y76781D01*
X2757524Y64340D01*
X2781559Y57900D01*
X2806441D01*
X2830476Y64340D01*
X2852024Y76781D01*
X2869619Y94376D01*
X2882060Y115924D01*
X2888500Y139959D01*
Y164841D01*
X2882060Y188876D01*
X2869619Y210424D01*
X2852024Y228019D01*
X2830476Y240460D01*
X2806441Y246900D01*
D02*
G37*
G36*
X2552441D02*
X2527559D01*
X2503524Y240460D01*
X2481976Y228019D01*
X2464381Y210424D01*
X2451940Y188876D01*
X2445500Y164841D01*
Y139959D01*
X2451940Y115924D01*
X2464381Y94376D01*
X2481976Y76781D01*
X2503524Y64340D01*
X2527559Y57900D01*
X2552441D01*
X2576476Y64340D01*
X2598024Y76781D01*
X2615619Y94376D01*
X2628060Y115924D01*
X2634500Y139959D01*
Y164841D01*
X2628060Y188876D01*
X2615619Y210424D01*
X2598024Y228019D01*
X2576476Y240460D01*
X2552441Y246900D01*
D02*
G37*
G36*
X2298441D02*
X2273559D01*
X2249524Y240460D01*
X2227976Y228019D01*
X2210381Y210424D01*
X2197940Y188876D01*
X2191500Y164841D01*
Y139959D01*
X2197940Y115924D01*
X2210381Y94376D01*
X2227976Y76781D01*
X2249524Y64340D01*
X2273559Y57900D01*
X2298441D01*
X2322476Y64340D01*
X2344024Y76781D01*
X2361619Y94376D01*
X2374060Y115924D01*
X2380500Y139959D01*
Y164841D01*
X2374060Y188876D01*
X2361619Y210424D01*
X2344024Y228019D01*
X2322476Y240460D01*
X2298441Y246900D01*
D02*
G37*
G36*
X2044441D02*
X2019559D01*
X1995524Y240460D01*
X1973976Y228019D01*
X1956381Y210424D01*
X1943940Y188876D01*
X1937500Y164841D01*
Y139959D01*
X1943940Y115924D01*
X1956381Y94376D01*
X1973976Y76781D01*
X1995524Y64340D01*
X2019559Y57900D01*
X2044441D01*
X2068476Y64340D01*
X2090024Y76781D01*
X2107619Y94376D01*
X2120060Y115924D01*
X2126500Y139959D01*
Y164841D01*
X2120060Y188876D01*
X2107619Y210424D01*
X2090024Y228019D01*
X2068476Y240460D01*
X2044441Y246900D01*
D02*
G37*
G36*
X1790441D02*
X1765559D01*
X1741524Y240460D01*
X1719976Y228019D01*
X1702381Y210424D01*
X1689940Y188876D01*
X1683500Y164841D01*
Y139959D01*
X1689940Y115924D01*
X1702381Y94376D01*
X1719976Y76781D01*
X1741524Y64340D01*
X1765559Y57900D01*
X1790441D01*
X1814476Y64340D01*
X1836024Y76781D01*
X1853619Y94376D01*
X1866060Y115924D01*
X1872500Y139959D01*
Y164841D01*
X1866060Y188876D01*
X1853619Y210424D01*
X1836024Y228019D01*
X1814476Y240460D01*
X1790441Y246900D01*
D02*
G37*
G36*
X1536441D02*
X1511559D01*
X1487524Y240460D01*
X1465976Y228019D01*
X1448381Y210424D01*
X1435940Y188876D01*
X1429500Y164841D01*
Y139959D01*
X1435940Y115924D01*
X1448381Y94376D01*
X1465976Y76781D01*
X1487524Y64340D01*
X1511559Y57900D01*
X1536441D01*
X1560476Y64340D01*
X1582024Y76781D01*
X1599619Y94376D01*
X1612060Y115924D01*
X1618500Y139959D01*
Y164841D01*
X1612060Y188876D01*
X1599619Y210424D01*
X1582024Y228019D01*
X1560476Y240460D01*
X1536441Y246900D01*
D02*
G37*
G36*
X1282441D02*
X1257559D01*
X1233524Y240460D01*
X1211976Y228019D01*
X1194381Y210424D01*
X1181940Y188876D01*
X1175500Y164841D01*
Y139959D01*
X1181940Y115924D01*
X1194381Y94376D01*
X1211976Y76781D01*
X1233524Y64340D01*
X1257559Y57900D01*
X1282441D01*
X1306476Y64340D01*
X1328024Y76781D01*
X1345619Y94376D01*
X1358060Y115924D01*
X1364500Y139959D01*
Y164841D01*
X1358060Y188876D01*
X1345619Y210424D01*
X1328024Y228019D01*
X1306476Y240460D01*
X1282441Y246900D01*
D02*
G37*
G36*
X1028441D02*
X1003559D01*
X979524Y240460D01*
X957976Y228019D01*
X940381Y210424D01*
X927940Y188876D01*
X921500Y164841D01*
Y139959D01*
X927940Y115924D01*
X940381Y94376D01*
X957976Y76781D01*
X979524Y64340D01*
X1003559Y57900D01*
X1028441D01*
X1052476Y64340D01*
X1074024Y76781D01*
X1091619Y94376D01*
X1104060Y115924D01*
X1110500Y139959D01*
Y164841D01*
X1104060Y188876D01*
X1091619Y210424D01*
X1074024Y228019D01*
X1052476Y240460D01*
X1028441Y246900D01*
D02*
G37*
G36*
X856500D02*
X667500D01*
Y57900D01*
X856500D01*
Y246900D01*
D02*
G37*
%LPD*%
G36*
X5630504Y1409899D02*
X5625300Y1390477D01*
Y1368123D01*
X5631086Y1346530D01*
X5642263Y1327170D01*
X5658070Y1311363D01*
X5669581Y1304717D01*
X5666179Y1292017D01*
X5444917D01*
Y1314803D01*
X5449833Y1319718D01*
X5456950Y1336901D01*
Y1355499D01*
X5449833Y1372682D01*
X5436682Y1385833D01*
X5419499Y1392950D01*
X5400901D01*
X5383718Y1385833D01*
X5370567Y1372682D01*
X5363450Y1355499D01*
Y1336901D01*
X5370567Y1319718D01*
X5375483Y1314803D01*
Y1292017D01*
X4697021D01*
X4693619Y1304717D01*
X4705130Y1311363D01*
X4720937Y1327170D01*
X4732114Y1346530D01*
X4737900Y1368123D01*
Y1390477D01*
X4732114Y1412070D01*
X4720937Y1431430D01*
X4705130Y1447237D01*
X4698641Y1450983D01*
X4702044Y1463683D01*
X4892883D01*
Y1428397D01*
X4887967Y1423482D01*
X4880850Y1406299D01*
Y1387701D01*
X4887967Y1370518D01*
X4901118Y1357367D01*
X4918301Y1350250D01*
X4936899D01*
X4954082Y1357367D01*
X4967233Y1370518D01*
X4974350Y1387701D01*
Y1406299D01*
X4967233Y1423482D01*
X4962317Y1428397D01*
Y1463683D01*
X5576720D01*
X5630504Y1409899D01*
D02*
G37*
G36*
X4607359Y1450983D02*
X4600870Y1447237D01*
X4585063Y1431430D01*
X4573886Y1412070D01*
X4568100Y1390477D01*
Y1368123D01*
X4573886Y1346530D01*
X4585063Y1327170D01*
X4600870Y1311363D01*
X4612382Y1304717D01*
X4608979Y1292017D01*
X4027021D01*
X4023618Y1304717D01*
X4035130Y1311363D01*
X4050937Y1327170D01*
X4062114Y1346530D01*
X4067900Y1368123D01*
Y1390477D01*
X4062696Y1409899D01*
X4116480Y1463683D01*
X4603956D01*
X4607359Y1450983D01*
D02*
G37*
G36*
X3937359D02*
X3930870Y1447237D01*
X3915063Y1431430D01*
X3903886Y1412070D01*
X3898100Y1390477D01*
Y1368123D01*
X3903886Y1346530D01*
X3915063Y1327170D01*
X3930870Y1311363D01*
X3942381Y1304717D01*
X3938979Y1292017D01*
X2969821D01*
X2966419Y1304717D01*
X2977930Y1311363D01*
X2993737Y1327170D01*
X3004914Y1346530D01*
X3010700Y1368123D01*
Y1390477D01*
X3004914Y1412070D01*
X2993737Y1431430D01*
X2977930Y1447237D01*
X2971441Y1450983D01*
X2974844Y1463683D01*
X3933956D01*
X3937359Y1450983D01*
D02*
G37*
G36*
X2880159D02*
X2873670Y1447237D01*
X2857863Y1431430D01*
X2846686Y1412070D01*
X2840900Y1390477D01*
Y1368123D01*
X2846686Y1346530D01*
X2857863Y1327170D01*
X2873670Y1311363D01*
X2885182Y1304717D01*
X2881779Y1292017D01*
X2299821D01*
X2296418Y1304717D01*
X2307930Y1311363D01*
X2323737Y1327170D01*
X2334914Y1346530D01*
X2340700Y1368123D01*
Y1390477D01*
X2335496Y1409899D01*
X2389280Y1463683D01*
X2876756D01*
X2880159Y1450983D01*
D02*
G37*
G36*
X2210159D02*
X2203670Y1447237D01*
X2187863Y1431430D01*
X2176686Y1412070D01*
X2170900Y1390477D01*
Y1368123D01*
X2176686Y1346530D01*
X2187863Y1327170D01*
X2203670Y1311363D01*
X2215181Y1304717D01*
X2211779Y1292017D01*
X1927000D01*
X1815169Y1403849D01*
X1803906Y1411374D01*
X1790620Y1414017D01*
X1276590D01*
X1266537Y1431430D01*
X1250730Y1447237D01*
X1244241Y1450983D01*
X1247644Y1463683D01*
X2206756D01*
X2210159Y1450983D01*
D02*
G37*
D10*
X4927600Y1397000D02*
Y1498400D01*
X5591100D01*
X5410200Y1257300D02*
Y1346200D01*
Y1257300D02*
X6045200D01*
X4653280D02*
X5410200D01*
X4653280D02*
Y1379020D01*
X2925800Y1262660D02*
Y1379300D01*
X2931160Y1257300D02*
X4653280D01*
X1790620Y1379300D02*
X1912620Y1257300D01*
X6045200D02*
X6167200Y1379300D01*
X1912620Y1257300D02*
X2931160D01*
X6167200Y1379300D02*
X6380200D01*
X1198600D02*
X1790620D01*
X4097020Y1493320D02*
Y1498400D01*
X3983000Y1379300D02*
X4097020Y1493320D01*
Y1498400D02*
X4927600D01*
X2374900D02*
X2379980D01*
X2255800Y1379300D02*
X2374900Y1498400D01*
X2379980D02*
X4097020D01*
X5591100D02*
X5710200Y1379300D01*
X647700Y1498400D02*
X2379980D01*
X528600Y1379300D02*
X647700Y1498400D01*
D11*
X4653000Y1379300D02*
X4653280Y1379020D01*
X2925800Y1262660D02*
X2931160Y1257300D01*
D12*
X6380200Y1130300D02*
D03*
X4653000D02*
D03*
X2925800D02*
D03*
X1198600D02*
D03*
D13*
X1524000Y152400D02*
D03*
X1778000Y1676400D02*
D03*
X4318000D02*
D03*
X4064000D02*
D03*
X3810000D02*
D03*
X3556000D02*
D03*
X3302000D02*
D03*
X3048000D02*
D03*
X2794000D02*
D03*
X2540000D02*
D03*
X2286000D02*
D03*
X2032000D02*
D03*
X1524000D02*
D03*
X1270000D02*
D03*
X1016000D02*
D03*
X4318000Y152400D02*
D03*
X4064000D02*
D03*
X3810000D02*
D03*
X3556000D02*
D03*
X3302000D02*
D03*
X3048000D02*
D03*
X2794000D02*
D03*
X2540000D02*
D03*
X2286000D02*
D03*
X2032000D02*
D03*
X1778000D02*
D03*
X1270000D02*
D03*
X1016000D02*
D03*
D14*
X762000Y1676400D02*
D03*
Y152400D02*
D03*
D15*
X1539600Y830300D02*
D03*
X187600D02*
D03*
X863600Y749300D02*
D03*
X6045200D02*
D03*
X5369200Y830300D02*
D03*
X6721200D02*
D03*
X4318000Y749300D02*
D03*
X3642000Y830300D02*
D03*
X4994000D02*
D03*
X2590800Y749300D02*
D03*
X1914800Y830300D02*
D03*
X3266800D02*
D03*
D16*
X528600Y1379300D02*
D03*
Y1130300D02*
D03*
X1198600Y1379300D02*
D03*
X6380200D02*
D03*
X5710200Y1130300D02*
D03*
Y1379300D02*
D03*
X4653000D02*
D03*
X3983000Y1130300D02*
D03*
Y1379300D02*
D03*
X2925800D02*
D03*
X2255800Y1130300D02*
D03*
Y1379300D02*
D03*
D17*
X5410200Y1346200D02*
D03*
X4927600Y1397000D02*
D03*
X5180565Y984087D02*
D03*
Y1796887D02*
D03*
X1153160Y723900D02*
D03*
X1154200Y811760D02*
D03*
%TF.MD5,6c3afdababd2ce4665759cd6f8136c14*%
M02*
