%TF.GenerationSoftware,Altium Limited,Altium Designer,25.6.2 (33)*%
G04 Layer_Color=0*
%FSLAX45Y45*%
%MOMM*%
%TF.SameCoordinates,5DA55B6F-82E9-41E6-B114-64E7E2ADA8B0*%
%TF.FilePolarity,Positive*%
%TF.FileFunction,Plated,1,2,PTH,Drill*%
%TF.Part,Single*%
G01*
G75*
%TA.AperFunction,ComponentDrill*%
%ADD32C,0.89000*%
%ADD33C,1.04000*%
%ADD34C,2.29000*%
%TA.AperFunction,ViaDrill,NotFilled*%
%ADD35C,0.30000*%
D32*
X6380200Y1130300D02*
D03*
X4653000D02*
D03*
X2925800D02*
D03*
X1198600D02*
D03*
X528600Y1379300D02*
D03*
Y1130300D02*
D03*
X1198600Y1379300D02*
D03*
X6380200D02*
D03*
X5710200Y1130300D02*
D03*
Y1379300D02*
D03*
X4653000D02*
D03*
X3983000Y1130300D02*
D03*
Y1379300D02*
D03*
X2925800D02*
D03*
X2255800Y1130300D02*
D03*
Y1379300D02*
D03*
D33*
X1524000Y152400D02*
D03*
X1778000Y1676400D02*
D03*
X4318000D02*
D03*
X4064000D02*
D03*
X3810000D02*
D03*
X3556000D02*
D03*
X3302000D02*
D03*
X3048000D02*
D03*
X2794000D02*
D03*
X2540000D02*
D03*
X2286000D02*
D03*
X2032000D02*
D03*
X1524000D02*
D03*
X1270000D02*
D03*
X1016000D02*
D03*
X762000D02*
D03*
X4318000Y152400D02*
D03*
X4064000D02*
D03*
X3810000D02*
D03*
X3556000D02*
D03*
X3302000D02*
D03*
X3048000D02*
D03*
X2794000D02*
D03*
X2540000D02*
D03*
X2286000D02*
D03*
X2032000D02*
D03*
X1778000D02*
D03*
X1270000D02*
D03*
X1016000D02*
D03*
X762000D02*
D03*
D34*
X1539600Y830300D02*
D03*
X187600D02*
D03*
X863600Y749300D02*
D03*
X6045200D02*
D03*
X5369200Y830300D02*
D03*
X6721200D02*
D03*
X4318000Y749300D02*
D03*
X3642000Y830300D02*
D03*
X4994000D02*
D03*
X2590800Y749300D02*
D03*
X1914800Y830300D02*
D03*
X3266800D02*
D03*
D35*
X5410200Y1346200D02*
D03*
X4927600Y1397000D02*
D03*
X5180565Y984087D02*
D03*
Y1796887D02*
D03*
X1153160Y723900D02*
D03*
X1154200Y811760D02*
D03*
%TF.MD5,62c91c20f204f69d0d69e40a754feba7*%
M02*
