%TF.GenerationSoftware,Altium Limited,Altium Designer,25.6.2 (33)*%
G04 Layer_Color=32896*
%FSLAX45Y45*%
%MOMM*%
%TF.SameCoordinates,5DA55B6F-82E9-41E6-B114-64E7E2ADA8B0*%
%TF.FilePolarity,Positive*%
%TF.FileFunction,Legend,Bot*%
%TF.Part,Single*%
G01*
G75*
%TA.AperFunction,NonConductor*%
%ADD22C,0.20000*%
%ADD24C,0.25000*%
%ADD25C,0.25400*%
D22*
X1345450Y405540D02*
Y615540D01*
X1092950Y405540D02*
Y615540D01*
X889000Y1549400D02*
Y1803400D01*
X597000Y1549400D02*
Y1803400D01*
X4483000D01*
Y1549400D02*
Y1803400D01*
X597000Y1549400D02*
X4483000D01*
X889000Y25400D02*
Y279400D01*
X597000Y25400D02*
Y279400D01*
X4483000D01*
Y25400D02*
Y279400D01*
X597000Y25400D02*
X4483000D01*
X6863400Y202832D02*
Y122858D01*
X6823413D01*
X6810084Y136187D01*
Y189503D01*
X6823413Y202832D01*
X6863400D01*
X6743439Y122858D02*
X6770097D01*
X6783426Y136187D01*
Y162845D01*
X6770097Y176174D01*
X6743439D01*
X6730110Y162845D01*
Y149516D01*
X6783426D01*
X6703452Y122858D02*
X6663464D01*
X6650136Y136187D01*
X6663464Y149516D01*
X6690123D01*
X6703452Y162845D01*
X6690123Y176174D01*
X6650136D01*
X6623477Y122858D02*
X6596819D01*
X6610148D01*
Y176174D01*
X6623477D01*
X6530174Y96200D02*
X6516845D01*
X6503516Y109529D01*
Y176174D01*
X6543503D01*
X6556832Y162845D01*
Y136187D01*
X6543503Y122858D01*
X6503516D01*
X6476858D02*
Y176174D01*
X6436871D01*
X6423542Y162845D01*
Y122858D01*
X6356897D02*
X6383555D01*
X6396884Y136187D01*
Y162845D01*
X6383555Y176174D01*
X6356897D01*
X6343568Y162845D01*
Y149516D01*
X6396884D01*
X6316910Y176174D02*
Y122858D01*
Y149516D01*
X6303580Y162845D01*
X6290252Y176174D01*
X6276922D01*
X6236935D02*
X6223606D01*
Y162845D01*
X6236935D01*
Y176174D01*
Y136187D02*
X6223606D01*
Y122858D01*
X6236935D01*
Y136187D01*
X6090316Y122858D02*
Y176174D01*
X6063658Y202832D01*
X6037000Y176174D01*
Y122858D01*
Y162845D01*
X6090316D01*
X6010342Y122858D02*
Y176174D01*
X5970355D01*
X5957026Y162845D01*
Y122858D01*
X5877051Y202832D02*
Y122858D01*
X5917038D01*
X5930368Y136187D01*
Y162845D01*
X5917038Y176174D01*
X5877051D01*
X5810406Y122858D02*
X5837064D01*
X5850393Y136187D01*
Y162845D01*
X5837064Y176174D01*
X5810406D01*
X5797077Y162845D01*
Y149516D01*
X5850393D01*
X5770419Y176174D02*
Y122858D01*
Y149516D01*
X5757090Y162845D01*
X5743761Y176174D01*
X5730432D01*
X5690445Y122858D02*
X5650458D01*
X5637129Y136187D01*
X5650458Y149516D01*
X5677116D01*
X5690445Y162845D01*
X5677116Y176174D01*
X5637129D01*
X5477181Y202832D02*
X5530497D01*
Y122858D01*
X5477181D01*
X5530497Y162845D02*
X5503839D01*
X5450523Y176174D02*
Y122858D01*
Y149516D01*
X5437193Y162845D01*
X5423864Y176174D01*
X5410535D01*
X5370548Y122858D02*
X5343890D01*
X5357219D01*
Y176174D01*
X5370548D01*
X5303903Y122858D02*
Y202832D01*
Y149516D02*
X5263916Y176174D01*
X5303903Y149516D02*
X5263916Y122858D01*
X5223929D02*
X5183942D01*
X5170613Y136187D01*
X5183942Y149516D01*
X5210600D01*
X5223929Y162845D01*
X5210600Y176174D01*
X5170613D01*
X5103967Y122858D02*
X5130626D01*
X5143955Y136187D01*
Y162845D01*
X5130626Y176174D01*
X5103967D01*
X5090639Y162845D01*
Y149516D01*
X5143955D01*
X5063980Y122858D02*
Y176174D01*
X5023993D01*
X5010664Y162845D01*
Y122858D01*
X6863400Y375600D02*
Y455574D01*
X6823413D01*
X6810084Y442245D01*
Y415587D01*
X6823413Y402258D01*
X6863400D01*
X6836742D02*
X6810084Y375600D01*
X6783426Y455574D02*
Y375600D01*
Y415587D01*
X6730110D01*
Y455574D01*
Y375600D01*
X6570161Y442245D02*
X6583490Y455574D01*
X6610148D01*
X6623477Y442245D01*
Y428916D01*
X6610148Y415587D01*
X6583490D01*
X6570161Y402258D01*
Y388929D01*
X6583490Y375600D01*
X6610148D01*
X6623477Y388929D01*
X6503516Y375600D02*
X6530174D01*
X6543503Y388929D01*
Y415587D01*
X6530174Y428916D01*
X6503516D01*
X6490187Y415587D01*
Y402258D01*
X6543503D01*
X6463529Y375600D02*
Y428916D01*
X6423542D01*
X6410213Y415587D01*
Y375600D01*
X6383555D02*
X6343568D01*
X6330239Y388929D01*
X6343568Y402258D01*
X6370226D01*
X6383555Y415587D01*
X6370226Y428916D01*
X6330239D01*
X6290252Y375600D02*
X6263594D01*
X6250265Y388929D01*
Y415587D01*
X6263594Y428916D01*
X6290252D01*
X6303581Y415587D01*
Y388929D01*
X6290252Y375600D01*
X6223607Y428916D02*
Y375600D01*
Y402258D01*
X6210277Y415587D01*
X6196948Y428916D01*
X6183619D01*
X6063658Y375600D02*
Y455574D01*
X6023671D01*
X6010342Y442245D01*
Y415587D01*
X6023671Y402258D01*
X6063658D01*
X6037000D02*
X6010342Y375600D01*
X5943697D02*
X5970355D01*
X5983684Y388929D01*
Y415587D01*
X5970355Y428916D01*
X5943697D01*
X5930368Y415587D01*
Y402258D01*
X5983684D01*
X5850394Y428916D02*
X5890381D01*
X5903710Y415587D01*
Y388929D01*
X5890381Y375600D01*
X5850394D01*
X5783748D02*
X5810406D01*
X5823736Y388929D01*
Y415587D01*
X5810406Y428916D01*
X5783748D01*
X5770419Y415587D01*
Y402258D01*
X5823736D01*
X5743761Y375600D02*
X5717103D01*
X5730432D01*
Y428916D01*
X5743761D01*
X5677116D02*
X5650458Y375600D01*
X5623800Y428916D01*
X5557155Y375600D02*
X5583813D01*
X5597142Y388929D01*
Y415587D01*
X5583813Y428916D01*
X5557155D01*
X5543826Y415587D01*
Y402258D01*
X5597142D01*
X5517168Y428916D02*
Y375600D01*
Y402258D01*
X5503839Y415587D01*
X5490510Y428916D01*
X5477181D01*
X5357219Y375600D02*
Y455574D01*
X5330561Y428916D01*
X5303903Y455574D01*
Y375600D01*
X5263916D02*
X5237258D01*
X5223929Y388929D01*
Y415587D01*
X5237258Y428916D01*
X5263916D01*
X5277245Y415587D01*
Y388929D01*
X5263916Y375600D01*
X5143955Y455574D02*
Y375600D01*
X5183942D01*
X5197271Y388929D01*
Y415587D01*
X5183942Y428916D01*
X5143955D01*
X5117297D02*
Y388929D01*
X5103968Y375600D01*
X5063981D01*
Y428916D01*
X5037323Y375600D02*
X5010665D01*
X5023994D01*
Y455574D01*
X5037323D01*
X4930690Y375600D02*
X4957348D01*
X4970677Y388929D01*
Y415587D01*
X4957348Y428916D01*
X4930690D01*
X4917361Y415587D01*
Y402258D01*
X4970677D01*
X6863400Y328574D02*
Y275258D01*
X6836742Y248600D01*
X6810084Y275258D01*
Y328574D01*
X6743439Y248600D02*
X6770097D01*
X6783426Y261929D01*
Y288587D01*
X6770097Y301916D01*
X6743439D01*
X6730110Y288587D01*
Y275258D01*
X6783426D01*
X6703452Y301916D02*
Y248600D01*
Y275258D01*
X6690123Y288587D01*
X6676794Y301916D01*
X6663464D01*
X6623477Y248600D02*
X6583490D01*
X6570161Y261929D01*
X6583490Y275258D01*
X6610148D01*
X6623477Y288587D01*
X6610148Y301916D01*
X6570161D01*
X6543503Y248600D02*
X6516845D01*
X6530174D01*
Y301916D01*
X6543503D01*
X6463529Y248600D02*
X6436871D01*
X6423542Y261929D01*
Y288587D01*
X6436871Y301916D01*
X6463529D01*
X6476858Y288587D01*
Y261929D01*
X6463529Y248600D01*
X6396884D02*
Y301916D01*
X6356897D01*
X6343568Y288587D01*
Y248600D01*
X6236935D02*
X6210277D01*
X6223606D01*
Y328574D01*
X6236935Y315245D01*
X6170290Y248600D02*
Y261929D01*
X6156961D01*
Y248600D01*
X6170290D01*
X6103645Y315245D02*
X6090316Y328574D01*
X6063658D01*
X6050329Y315245D01*
Y261929D01*
X6063658Y248600D01*
X6090316D01*
X6103645Y261929D01*
Y315245D01*
D24*
X1166700Y715748D02*
G03*
X1166700Y715748I-12500J0D01*
G01*
X774500Y1851400D02*
G03*
X774500Y1851400I-12500J0D01*
G01*
Y327400D02*
G03*
X774500Y327400I-12500J0D01*
G01*
D25*
X854759Y715010D02*
X981718D01*
X1007110Y689618D01*
Y638835D01*
X981718Y613443D01*
X854759D01*
X1007110Y562659D02*
Y511876D01*
Y537267D01*
X854759D01*
X880151Y562659D01*
X5360670Y1433830D02*
X5513021D01*
Y1510005D01*
X5487629Y1535397D01*
X5436845D01*
X5411453Y1510005D01*
Y1433830D01*
Y1484613D02*
X5360670Y1535397D01*
Y1687748D02*
Y1586181D01*
X5462237Y1687748D01*
X5487629D01*
X5513021Y1662356D01*
Y1611573D01*
X5487629Y1586181D01*
X5359425Y1117633D02*
X5511775D01*
Y1193808D01*
X5486383Y1219200D01*
X5435600D01*
X5410208Y1193808D01*
Y1117633D01*
Y1168417D02*
X5359425Y1219200D01*
Y1269984D02*
Y1320767D01*
Y1295376D01*
X5511775D01*
X5486383Y1269984D01*
%TF.MD5,e2bcb58daa08e36b19363da0bfbdb36f*%
M02*
