%TF.GenerationSoftware,Altium Limited,Altium Designer,25.6.2 (33)*%
G04 Layer_Color=65535*
%FSLAX45Y45*%
%MOMM*%
%TF.SameCoordinates,5DA55B6F-82E9-41E6-B114-64E7E2ADA8B0*%
%TF.FilePolarity,Positive*%
%TF.FileFunction,Legend,Top*%
%TF.Part,Single*%
G01*
G75*
%TA.AperFunction,NonConductor*%
%ADD22C,0.20000*%
%ADD23C,0.12700*%
D22*
X1213600Y1610300D02*
G03*
X1213600Y1610300I-10000J0D01*
G01*
X6395200D02*
G03*
X6395200Y1610300I-10000J0D01*
G01*
X4668000D02*
G03*
X4668000Y1610300I-10000J0D01*
G01*
X2940800D02*
G03*
X2940800Y1610300I-10000J0D01*
G01*
D23*
X1563600Y279300D02*
Y623300D01*
X163600Y279300D02*
Y623300D01*
X1560600Y1041300D02*
Y1562300D01*
X163600Y1041300D02*
Y1562300D01*
X1560600D02*
X1563600D01*
X163600D02*
X1560600D01*
X163600Y279300D02*
X1563600D01*
X5345200D02*
X6745200D01*
X5345200Y1562300D02*
X6742200D01*
X6745200D01*
X5345200Y1041300D02*
Y1562300D01*
X6742200Y1041300D02*
Y1562300D01*
X5345200Y279300D02*
Y623300D01*
X6745200Y279300D02*
Y623300D01*
X3618000Y279300D02*
X5018000D01*
X3618000Y1562300D02*
X5015000D01*
X5018000D01*
X3618000Y1041300D02*
Y1562300D01*
X5015000Y1041300D02*
Y1562300D01*
X3618000Y279300D02*
Y623300D01*
X5018000Y279300D02*
Y623300D01*
X1890800Y279300D02*
X3290800D01*
X1890800Y1562300D02*
X3287800D01*
X3290800D01*
X1890800Y1041300D02*
Y1562300D01*
X3287800Y1041300D02*
Y1562300D01*
X1890800Y279300D02*
Y623300D01*
X3290800Y279300D02*
Y623300D01*
%TF.MD5,af546cd2de8df0d5ce29f0454d6e543c*%
M02*
